<?xml version="1.0" encoding="UTF-8" standalone="no"?>
<!-- Created with Inkscape (http://www.inkscape.org/) -->

<svg
   width="30mm"
   height="20.282053mm"
   viewBox="0 0 30 20.282052"
   version="1.1"
   id="svg5"
   sodipodi:docname="ArduinoGreenhouseLogoPath.svg"
   inkscape:version="1.2-dev (f2d16dd, 2021-12-14)"
   xmlns:inkscape="http://www.inkscape.org/namespaces/inkscape"
   xmlns:sodipodi="http://sodipodi.sourceforge.net/DTD/sodipodi-0.dtd"
   xmlns="http://www.w3.org/2000/svg"
   xmlns:svg="http://www.w3.org/2000/svg">
  <sodipodi:namedview
     id="namedview7"
     pagecolor="#505050"
     bordercolor="#eeeeee"
     borderopacity="1"
     inkscape:pageshadow="0"
     inkscape:pageopacity="0"
     inkscape:pagecheckerboard="0"
     inkscape:blackoutopacity="0.0"
     inkscape:document-units="mm"
     showgrid="false"
     inkscape:zoom="8"
     inkscape:cx="56.1875"
     inkscape:cy="34.8125"
     inkscape:window-width="1920"
     inkscape:window-height="1046"
     inkscape:window-x="-11"
     inkscape:window-y="-11"
     inkscape:window-maximized="1"
     inkscape:current-layer="layer1">
    <inkscape:grid
       type="xygrid"
       id="grid4723"
       originx="-31.994141"
       originy="-45.816158" />
  </sodipodi:namedview>
  <defs
     id="defs2">
    <inkscape:path-effect
       effect="taper_stroke"
       id="path-effect22785"
       is_visible="true"
       lpeversion="1"
       stroke_width="1.36"
       attach_start="0.35563774"
       end_offset="0.2"
       start_smoothing="1.3"
       end_smoothing="1.4"
       jointype="extrapolated"
       start_shape="center"
       end_shape="center"
       miter_limit="100" />
    <inkscape:path-effect
       effect="skeletal"
       id="path-effect21955"
       is_visible="true"
       lpeversion="1"
       pattern="M 0,4.9921382 C 0,2.2364779 2.2364779,0 4.9921382,0 c 2.7556604,0 4.9921383,2.2364779 4.9921383,4.9921382 0,2.7556604 -2.2364779,4.9921383 -4.9921383,4.9921383 C 2.2364779,9.9842765 0,7.7477986 0,4.9921382 Z"
       copytype="single_stretched"
       prop_scale="1"
       scale_y_rel="false"
       spacing="0"
       normal_offset="0"
       tang_offset="0"
       prop_units="false"
       vertical_pattern="false"
       hide_knot="false"
       fuse_tolerance="0" />
    <inkscape:path-effect
       effect="fill_between_many"
       method="bsplinespiro"
       linkedpaths="#path21953,0,1"
       id="path-effect22787"
       is_visible="true"
       lpeversion="0"
       join="true"
       close="true"
       autoreverse="true"
       applied="false" />
  </defs>
  <g
     inkscape:label="Ebene 1"
     inkscape:groupmode="layer"
     id="layer1"
     transform="translate(-31.994142,-45.816163)">
    <path
       id="path178"
       style="color:#000000;fill:#000000;stroke-width:0.76619;stroke-linecap:round;stroke-linejoin:round;-inkscape-stroke:none"
       d="M 50.476562 0 A 2.8759244 2.8759244 0 0 0 49.021484 0.3828125 L 49.021484 0.38085938 L 12.777344 21.205078 A 2.8756369 2.8756369 0 0 0 11.716797 25.130859 A 2.8756369 2.8756369 0 0 0 15.642578 26.193359 L 50.425781 6.2070312 L 87.328125 28.203125 L 2.875 28.203125 A 2.8759244 2.8759244 0 0 0 0 31.078125 L 0 73.78125 A 2.8756369 2.8756369 0 0 0 2.875 76.65625 A 2.8756369 2.8756369 0 0 0 5.75 73.78125 L 5.75 33.955078 L 97.767578 33.955078 A 2.8759244 2.8759244 0 0 0 99.240234 28.609375 L 51.925781 0.40625 A 2.8759244 2.8759244 0 0 0 50.476562 0 z M 105.53125 43.201172 C 101.21163 43.201172 97.681641 46.739298 97.681641 51.056641 C 97.681641 53.075214 98.455303 54.918183 99.71875 56.3125 C 100.99714 54.422687 102.09777 52.197667 103.44141 50.265625 C 104.67493 48.459771 105.9079 47.490747 106.83203 46.970703 C 107.72247 46.469613 108.38715 46.341498 108.68164 46.318359 C 108.74189 46.313824 108.79368 46.310925 108.8418 46.310547 C 108.92204 46.310142 108.99269 46.319702 109.07422 46.357422 C 109.13945 46.387658 109.22236 46.464144 109.24609 46.564453 C 109.2597 46.621222 109.23948 46.650776 109.22852 46.691406 C 109.25422 46.717863 109.2828 46.728915 109.29883 46.773438 C 109.33247 46.867208 109.30859 46.972202 109.27344 47.033203 C 109.24547 47.081808 109.21469 47.118227 109.17969 47.150391 C 109.16381 47.170422 109.14745 47.189127 109.13086 47.199219 C 109.1267 47.201653 109.08197 47.22398 109.07422 47.228516 C 109.04625 47.246279 109.01595 47.265238 108.98242 47.285156 C 108.9416 47.309345 108.89175 47.333603 108.80078 47.382812 C 108.72186 47.425483 108.61744 47.483001 108.50391 47.546875 C 108.401 47.606265 108.29186 47.670751 108.18164 47.738281 C 108.05934 47.797281 107.93165 47.862758 107.79883 47.9375 C 106.8747 48.457544 105.64173 49.426567 104.4082 51.232422 C 102.73895 53.632675 101.44764 56.486746 99.720703 58.585938 C 98.977629 59.483008 98.371579 60.012215 97.953125 60.357422 C 97.743815 60.530071 97.584358 60.652993 97.460938 60.769531 C 97.399256 60.827774 97.34538 60.88517 97.300781 60.958984 C 97.256183 61.032836 97.219863 61.139839 97.240234 61.248047 C 97.262912 61.369219 97.258678 61.476791 97.306641 61.621094 C 97.33083 61.693283 97.382401 61.785772 97.472656 61.84375 C 97.562949 61.901766 97.664206 61.912965 97.755859 61.908203 C 97.946537 61.898376 98.306696 61.815258 98.847656 61.484375 C 99.388609 61.153515 100.09374 60.574107 100.91602 59.568359 C 101.30582 59.094446 101.67144 58.590447 102.02148 58.070312 C 103.0789 58.603498 104.2717 58.904297 105.53125 58.904297 C 109.84865 58.904297 113.38672 55.373984 113.38672 51.056641 L 113.38672 43.201172 L 111.54492 43.201172 L 105.53125 43.201172 z M 19.916016 43.544922 L 14.212891 58.375 L 18.302734 58.375 L 19.326172 55.796875 L 24.636719 55.796875 L 25.599609 58.375 L 29.710938 58.375 L 24.125 43.544922 L 19.916016 43.544922 z M 30.910156 43.544922 L 30.910156 58.375 L 34.765625 58.375 L 34.765625 52.669922 L 34.804688 52.669922 L 38.443359 58.375 L 43.242188 58.375 L 38.580078 52.296875 C 40.684466 51.923193 41.826172 50.152811 41.826172 48.107422 C 41.826172 44.941009 39.602283 43.544922 36.671875 43.544922 L 30.910156 43.544922 z M 44.283203 43.544922 L 44.283203 58.375 L 49.751953 58.375 C 53.862393 58.375 57.283203 55.128431 57.283203 50.958984 C 57.283203 46.789542 53.882062 43.544922 49.751953 43.544922 L 44.283203 43.544922 z M 58.994141 43.544922 L 58.994141 51.884766 C 58.994141 53.792486 59.073777 55.679532 60.548828 57.115234 C 61.787856 58.334604 63.734134 58.767578 65.464844 58.767578 C 67.195557 58.767578 69.143785 58.334604 70.382812 57.115234 C 71.857853 55.679532 71.935547 53.792486 71.935547 51.884766 L 71.935547 43.544922 L 68.082031 43.544922 L 68.082031 51.353516 C 68.082031 53.280897 67.942887 55.384766 65.464844 55.384766 C 62.986778 55.384766 62.849609 53.280897 62.849609 51.353516 L 62.849609 43.544922 L 58.994141 43.544922 z M 74.375 43.544922 L 74.375 58.375 L 78.230469 58.375 L 78.230469 43.544922 L 74.375 43.544922 z M 80.746094 43.544922 L 80.746094 58.375 L 84.601562 58.375 L 84.601562 49.287109 L 84.640625 49.287109 L 91.701172 58.375 L 95.556641 58.375 L 95.556641 43.544922 L 91.701172 43.544922 L 91.701172 52.611328 L 91.662109 52.611328 L 84.601562 43.544922 L 80.746094 43.544922 z M 34.765625 46.496094 L 35.138672 46.496094 C 36.397368 46.496094 37.814453 46.731026 37.814453 48.34375 C 37.814453 49.956456 36.397368 50.193359 35.138672 50.193359 L 34.765625 50.193359 L 34.765625 46.496094 z M 48.138672 46.810547 L 49.042969 46.810547 C 51.521031 46.810547 53.271484 48.303915 53.271484 50.958984 C 53.271484 53.850058 51.304966 55.109375 49.003906 55.109375 L 48.138672 55.109375 L 48.138672 46.810547 z M 21.980469 48.126953 L 22.021484 48.126953 L 23.59375 52.847656 L 20.388672 52.847656 L 21.980469 48.126953 z M 52.431641 61.517578 L 52.431641 73.113281 L 54.068359 73.113281 L 54.068359 65.511719 L 61.988281 73.773438 L 61.988281 62.255859 L 60.349609 62.255859 L 60.349609 69.800781 L 52.431641 61.517578 z M 20.476562 62.044922 C 18.896665 62.044922 17.554835 62.595556 16.453125 63.697266 C 15.351415 64.794286 14.800781 66.129869 14.800781 67.705078 C 14.800781 69.247476 15.342826 70.570165 16.425781 71.671875 C 17.508739 72.768895 18.809173 73.316406 20.328125 73.316406 C 21.884582 73.316406 23.167834 72.749763 24.175781 71.615234 C 24.621163 71.108916 24.937485 70.565699 25.125 69.984375 C 25.317202 69.384294 25.412109 68.662225 25.412109 67.818359 L 25.412109 67.458984 L 20.925781 67.458984 L 20.925781 69 L 23.634766 69 C 23.559755 69.764163 23.200867 70.42024 22.558594 70.96875 C 21.916321 71.512576 21.191123 71.785156 20.384766 71.785156 C 19.437765 71.785156 18.559093 71.420019 17.748047 70.693359 C 16.880744 69.910443 16.447266 68.914618 16.447266 67.705078 C 16.447266 66.533049 16.837004 65.557527 17.615234 64.779297 C 18.393462 63.987005 19.355315 63.591797 20.503906 63.591797 C 21.783765 63.591797 22.869024 64.184995 23.759766 65.371094 L 24.927734 64.251953 C 24.247956 63.473728 23.556735 62.911378 22.853516 62.564453 C 22.14561 62.217533 21.353242 62.044922 20.476562 62.044922 z M 101.86719 62.044922 C 100.93894 62.044922 100.16258 62.321801 99.539062 62.875 C 98.915541 63.42351 98.603516 64.104186 98.603516 64.919922 C 98.603516 66.129456 99.347851 67.049527 100.83398 67.677734 L 101.88086 68.113281 C 102.15276 68.230472 102.38707 68.355053 102.58398 68.486328 C 102.78088 68.612907 102.9406 68.750369 103.0625 68.900391 C 103.18906 69.045729 103.27967 69.208577 103.33594 69.386719 C 103.39689 69.560169 103.42773 69.751917 103.42773 69.962891 C 103.42773 70.48796 103.25942 70.921436 102.92188 71.263672 C 102.58433 71.605903 102.15944 71.777344 101.64844 71.777344 C 101.00147 71.777344 100.50942 71.543029 100.17188 71.074219 C 99.98435 70.825748 99.854308 70.38485 99.779297 69.751953 L 98.119141 70.117188 C 98.26916 71.129826 98.647188 71.914775 99.251953 72.472656 C 99.866099 73.030545 100.64363 73.310547 101.58594 73.310547 C 102.57982 73.310547 103.41163 72.982512 104.08203 72.326172 C 104.74774 71.674523 105.08008 70.848181 105.08008 69.849609 C 105.08008 69.104198 104.87662 68.475851 104.46875 67.964844 C 104.06089 67.449152 103.41652 67.014502 102.53516 66.658203 L 101.45117 66.214844 C 100.66356 65.891362 100.27148 65.465306 100.27148 64.935547 C 100.27148 64.551124 100.42066 64.231673 100.7207 63.978516 C 101.02074 63.720666 101.39877 63.591797 101.85352 63.591797 C 102.22388 63.591797 102.52536 63.666384 102.75977 63.816406 C 102.9848 63.95705 103.22224 64.238222 103.4707 64.660156 L 104.79883 63.873047 C 104.09561 62.654134 103.11892 62.044922 101.86719 62.044922 z M 80.3125 62.050781 C 78.746664 62.050781 77.406788 62.600245 76.291016 63.697266 C 75.170555 64.794286 74.609375 66.106438 74.609375 67.634766 C 74.609375 69.374064 75.224836 70.781889 76.453125 71.855469 C 77.568897 72.82591 78.826767 73.310547 80.228516 73.310547 C 81.8131 73.310547 83.166646 72.764206 84.287109 71.671875 C 85.402881 70.584228 85.960938 69.260363 85.960938 67.699219 C 85.960938 66.147451 85.404057 64.817336 84.292969 63.710938 C 83.186578 62.604539 81.859582 62.050781 80.3125 62.050781 z M 27.472656 62.255859 L 27.472656 73.113281 L 29.111328 73.113281 L 29.111328 68.669922 L 29.408203 68.669922 L 32.507812 73.113281 L 34.511719 73.113281 L 31.150391 68.486328 C 31.872364 68.331619 32.453848 67.977027 32.894531 67.423828 C 33.335214 66.870629 33.556641 66.210255 33.556641 65.441406 C 33.556641 64.456897 33.205172 63.664534 32.501953 63.064453 C 31.86437 62.525321 30.827146 62.255859 29.392578 62.255859 L 27.472656 62.255859 z M 36.144531 62.255859 L 36.144531 73.113281 L 42.134766 73.113281 L 42.134766 71.574219 L 37.783203 71.574219 L 37.783203 67.945312 L 42.009766 67.945312 L 42.009766 66.404297 L 37.783203 66.404297 L 37.783203 63.794922 L 42.134766 63.794922 L 42.134766 62.255859 L 36.144531 62.255859 z M 44.287109 62.255859 L 44.287109 73.113281 L 50.279297 73.113281 L 50.279297 71.574219 L 45.925781 71.574219 L 45.925781 67.945312 L 50.152344 67.945312 L 50.152344 66.404297 L 45.925781 66.404297 L 45.925781 63.794922 L 50.279297 63.794922 L 50.279297 62.255859 L 44.287109 62.255859 z M 64.589844 62.255859 L 64.589844 73.113281 L 66.228516 73.113281 L 66.228516 68.042969 L 70.912109 68.042969 L 70.912109 73.113281 L 72.548828 73.113281 L 72.548828 62.255859 L 70.912109 62.255859 L 70.912109 66.503906 L 66.228516 66.503906 L 66.228516 62.255859 L 64.589844 62.255859 z M 88.021484 62.255859 L 88.021484 69.246094 C 88.021484 70.389998 88.377252 71.331544 89.089844 72.072266 C 89.886825 72.897377 90.867811 73.310547 92.035156 73.310547 C 93.202499 73.310547 94.188566 72.897377 94.990234 72.072266 C 95.702827 71.331544 96.058594 70.389998 96.058594 69.246094 L 96.058594 62.255859 L 94.419922 62.255859 L 94.419922 68.794922 C 94.419922 69.741923 94.267619 70.42455 93.962891 70.841797 C 93.508143 71.465316 92.864952 71.777344 92.035156 71.777344 C 91.210048 71.777344 90.569985 71.465316 90.115234 70.841797 C 89.810506 70.410487 89.658203 69.72786 89.658203 68.794922 L 89.658203 62.255859 L 88.021484 62.255859 z M 107.05664 62.255859 L 107.05664 73.113281 L 113.04883 73.113281 L 113.04883 71.574219 L 108.69531 71.574219 L 108.69531 67.945312 L 112.92188 67.945312 L 112.92188 66.404297 L 108.69531 66.404297 L 108.69531 63.794922 L 113.04883 63.794922 L 113.04883 62.255859 L 107.05664 62.255859 z M 80.292969 63.591797 C 81.427497 63.591797 82.377633 63.985829 83.146484 64.773438 C 83.920023 65.556352 84.306641 66.525627 84.306641 67.683594 C 84.306641 68.827495 83.915729 69.798722 83.132812 70.595703 C 82.349898 71.383309 81.389218 71.777344 80.25 71.777344 C 79.199861 71.777344 78.274327 71.390728 77.472656 70.617188 C 76.666304 69.843649 76.263672 68.856411 76.263672 67.65625 C 76.263672 66.512346 76.651463 65.551662 77.429688 64.773438 C 78.207915 63.985829 79.163129 63.591797 80.292969 63.591797 z M 29.111328 63.794922 L 29.695312 63.794922 C 31.204889 63.794922 31.960938 64.35181 31.960938 65.462891 C 31.960938 66.048909 31.762942 66.490974 31.369141 66.791016 C 30.975339 67.091055 30.396978 67.242188 29.632812 67.242188 L 29.111328 67.242188 L 29.111328 63.794922 z "
       transform="matrix(0.26458333,0,0,0.26458333,31.994142,45.816163)" />
  </g>
</svg>
