M48
; DRILL file {KiCad (5.1.9)-1} date 12/30/21 20:13:21
; FORMAT={-:-/ absolute / metric / decimal}
; #@! TF.CreationDate,2021-12-30T20:13:21+01:00
; #@! TF.GenerationSoftware,Kicad,Pcbnew,(5.1.9)-1
; #@! TF.FileFunction,Plated,1,2,PTH
FMAT,2
METRIC
T1C0.800
T2C0.900
T3C1.000
T4C1.100
T5C1.400
%
G90
G05
T1
X122.0Y-71.12
X127.0Y-71.12
X133.35Y-71.12
X143.51Y-71.12
X170.18Y-60.96
X170.18Y-66.04
X180.34Y-60.96
X180.34Y-66.04
T2
X139.7Y-63.5
X139.7Y-66.04
T3
X121.92Y-39.37
X121.92Y-56.47
X161.42Y-39.37
X161.42Y-56.47
T4
X121.92Y-63.5
X132.08Y-63.5
X166.37Y-64.77
X166.37Y-67.31
X166.37Y-69.85
T5
X109.22Y-39.45
X109.22Y-44.45
X109.22Y-53.42
X109.22Y-58.42
X175.26Y-39.37
X175.26Y-44.37
X175.26Y-52.07
T0
M30
