G04 #@! TF.GenerationSoftware,KiCad,Pcbnew,(5.1.9)-1*
G04 #@! TF.CreationDate,2021-12-30T20:13:11+01:00*
G04 #@! TF.ProjectId,Pumpe,50756d70-652e-46b6-9963-61645f706362,rev?*
G04 #@! TF.SameCoordinates,Original*
G04 #@! TF.FileFunction,Legend,Top*
G04 #@! TF.FilePolarity,Positive*
%FSLAX46Y46*%
G04 Gerber Fmt 4.6, Leading zero omitted, Abs format (unit mm)*
G04 Created by KiCad (PCBNEW (5.1.9)-1) date 2021-12-30 20:13:11*
%MOMM*%
%LPD*%
G01*
G04 APERTURE LIST*
%ADD10C,0.152400*%
%ADD11C,0.120000*%
%ADD12C,0.150000*%
%ADD13C,2.000000*%
%ADD14O,1.600000X1.600000*%
%ADD15C,1.600000*%
%ADD16O,2.000000X1.905000*%
%ADD17R,2.000000X1.905000*%
%ADD18O,3.500000X3.500000*%
%ADD19C,3.000000*%
%ADD20C,1.800000*%
%ADD21R,1.800000X1.800000*%
%ADD22O,2.200000X2.200000*%
%ADD23R,2.200000X2.200000*%
G04 APERTURE END LIST*
D10*
X137245638Y-47554895D02*
X137245638Y-48135466D01*
X137206933Y-48251580D01*
X137129523Y-48328990D01*
X137013409Y-48367695D01*
X136936000Y-48367695D01*
X138019733Y-48367695D02*
X137632685Y-48367695D01*
X137632685Y-47554895D01*
X138755123Y-48290285D02*
X138716419Y-48328990D01*
X138600304Y-48367695D01*
X138522895Y-48367695D01*
X138406780Y-48328990D01*
X138329371Y-48251580D01*
X138290666Y-48174171D01*
X138251961Y-48019352D01*
X138251961Y-47903238D01*
X138290666Y-47748419D01*
X138329371Y-47671009D01*
X138406780Y-47593600D01*
X138522895Y-47554895D01*
X138600304Y-47554895D01*
X138716419Y-47593600D01*
X138755123Y-47632304D01*
X139335695Y-47554895D02*
X139335695Y-48135466D01*
X139296990Y-48251580D01*
X139219580Y-48328990D01*
X139103466Y-48367695D01*
X139026057Y-48367695D01*
X140109790Y-48367695D02*
X139722742Y-48367695D01*
X139722742Y-47554895D01*
X140845180Y-48290285D02*
X140806476Y-48328990D01*
X140690361Y-48367695D01*
X140612952Y-48367695D01*
X140496838Y-48328990D01*
X140419428Y-48251580D01*
X140380723Y-48174171D01*
X140342019Y-48019352D01*
X140342019Y-47903238D01*
X140380723Y-47748419D01*
X140419428Y-47671009D01*
X140496838Y-47593600D01*
X140612952Y-47554895D01*
X140690361Y-47554895D01*
X140806476Y-47593600D01*
X140845180Y-47632304D01*
X141425752Y-47554895D02*
X141425752Y-48135466D01*
X141387047Y-48251580D01*
X141309638Y-48328990D01*
X141193523Y-48367695D01*
X141116114Y-48367695D01*
X142199847Y-48367695D02*
X141812800Y-48367695D01*
X141812800Y-47554895D01*
X142935238Y-48290285D02*
X142896533Y-48328990D01*
X142780419Y-48367695D01*
X142703009Y-48367695D01*
X142586895Y-48328990D01*
X142509485Y-48251580D01*
X142470780Y-48174171D01*
X142432076Y-48019352D01*
X142432076Y-47903238D01*
X142470780Y-47748419D01*
X142509485Y-47671009D01*
X142586895Y-47593600D01*
X142703009Y-47554895D01*
X142780419Y-47554895D01*
X142896533Y-47593600D01*
X142935238Y-47632304D01*
X143515809Y-47554895D02*
X143515809Y-48135466D01*
X143477104Y-48251580D01*
X143399695Y-48328990D01*
X143283580Y-48367695D01*
X143206171Y-48367695D01*
X144289904Y-48367695D02*
X143902857Y-48367695D01*
X143902857Y-47554895D01*
X145025295Y-48290285D02*
X144986590Y-48328990D01*
X144870476Y-48367695D01*
X144793066Y-48367695D01*
X144676952Y-48328990D01*
X144599542Y-48251580D01*
X144560838Y-48174171D01*
X144522133Y-48019352D01*
X144522133Y-47903238D01*
X144560838Y-47748419D01*
X144599542Y-47671009D01*
X144676952Y-47593600D01*
X144793066Y-47554895D01*
X144870476Y-47554895D01*
X144986590Y-47593600D01*
X145025295Y-47632304D01*
X174355276Y-72850828D02*
X174548800Y-73392695D01*
X174742323Y-72850828D01*
X175477714Y-73392695D02*
X175013257Y-73392695D01*
X175245485Y-73392695D02*
X175245485Y-72579895D01*
X175168076Y-72696009D01*
X175090666Y-72773419D01*
X175013257Y-72812123D01*
X175826057Y-73315285D02*
X175864761Y-73353990D01*
X175826057Y-73392695D01*
X175787352Y-73353990D01*
X175826057Y-73315285D01*
X175826057Y-73392695D01*
X176367923Y-72579895D02*
X176445333Y-72579895D01*
X176522742Y-72618600D01*
X176561447Y-72657304D01*
X176600152Y-72734714D01*
X176638857Y-72889533D01*
X176638857Y-73083057D01*
X176600152Y-73237876D01*
X176561447Y-73315285D01*
X176522742Y-73353990D01*
X176445333Y-73392695D01*
X176367923Y-73392695D01*
X176290514Y-73353990D01*
X176251809Y-73315285D01*
X176213104Y-73237876D01*
X176174400Y-73083057D01*
X176174400Y-72889533D01*
X176213104Y-72734714D01*
X176251809Y-72657304D01*
X176290514Y-72618600D01*
X176367923Y-72579895D01*
X178032228Y-73392695D02*
X177567771Y-73392695D01*
X177800000Y-73392695D02*
X177800000Y-72579895D01*
X177722590Y-72696009D01*
X177645180Y-72773419D01*
X177567771Y-72812123D01*
X178341866Y-72657304D02*
X178380571Y-72618600D01*
X178457980Y-72579895D01*
X178651504Y-72579895D01*
X178728914Y-72618600D01*
X178767619Y-72657304D01*
X178806323Y-72734714D01*
X178806323Y-72812123D01*
X178767619Y-72928238D01*
X178303161Y-73392695D01*
X178806323Y-73392695D01*
X179735238Y-72541190D02*
X179038552Y-73586219D01*
X179967466Y-72657304D02*
X180006171Y-72618600D01*
X180083580Y-72579895D01*
X180277104Y-72579895D01*
X180354514Y-72618600D01*
X180393219Y-72657304D01*
X180431923Y-72734714D01*
X180431923Y-72812123D01*
X180393219Y-72928238D01*
X179928761Y-73392695D01*
X180431923Y-73392695D01*
X181206019Y-73392695D02*
X180741561Y-73392695D01*
X180973790Y-73392695D02*
X180973790Y-72579895D01*
X180896380Y-72696009D01*
X180818971Y-72773419D01*
X180741561Y-72812123D01*
D11*
X115655258Y-71490231D02*
G75*
G02*
X115686934Y-71502208I-18608J-97091D01*
G01*
X115513295Y-71575020D02*
G75*
G02*
X115541791Y-71512284I78794J2049D01*
G01*
X115541791Y-71512283D02*
G75*
G02*
X115613861Y-71486300I72069J-86957D01*
G01*
X115816640Y-71670226D02*
G75*
G02*
X115739342Y-71609175I174463J300349D01*
G01*
X115991944Y-71706909D02*
G75*
G02*
X115911831Y-71709180I-44022J138701D01*
G01*
X116150723Y-71843177D02*
G75*
G02*
X116047694Y-71875970I-150208J293683D01*
G01*
X115776674Y-70898195D02*
G75*
G02*
X115768667Y-70826885I76017J44640D01*
G01*
X116264335Y-70658246D02*
G75*
G02*
X116283774Y-70692370I-77860J-66951D01*
G01*
X115846013Y-70969863D02*
G75*
G02*
X115776674Y-70898196I113106J178808D01*
G01*
X115989759Y-71049220D02*
G75*
G02*
X116206841Y-71181579I-533615J-1119382D01*
G01*
X115810653Y-71880925D02*
G75*
G02*
X115742423Y-71863758I30834J266732D01*
G01*
X115739343Y-71609174D02*
G75*
G02*
X115713861Y-71545378I67118J63796D01*
G01*
X116062575Y-71666376D02*
G75*
G02*
X115991944Y-71706909I-128723J142500D01*
G01*
X116142531Y-71513231D02*
G75*
G02*
X116115705Y-71597708I-254557J34337D01*
G01*
X106858212Y-71845587D02*
G75*
G02*
X106828392Y-71875700I-48810J18514D01*
G01*
X106828392Y-71875700D02*
G75*
G02*
X106772108Y-71886300I-56284J144122D01*
G01*
X116228513Y-71782471D02*
G75*
G02*
X116150722Y-71843177I-196821J172021D01*
G01*
X106673861Y-71201641D02*
X106673861Y-71886300D01*
X116184509Y-70803347D02*
G75*
G02*
X116140211Y-70789031I3072J85202D01*
G01*
X115613860Y-71486301D02*
G75*
G02*
X115655257Y-71490232I1J-219933D01*
G01*
X115952495Y-70688936D02*
G75*
G02*
X116024686Y-70703199I3092J-174184D01*
G01*
X115879732Y-70705698D02*
G75*
G02*
X115952495Y-70688937I75963J-163458D01*
G01*
X115814719Y-70751155D02*
G75*
G02*
X115879731Y-70705697I160923J-160923D01*
G01*
X116221438Y-70613419D02*
G75*
G02*
X116264335Y-70658246I-399443J-425189D01*
G01*
X116284488Y-70722414D02*
G75*
G02*
X116268463Y-70752804I-80202J22872D01*
G01*
X115683800Y-71830322D02*
G75*
G02*
X115621344Y-71774112I347867J449324D01*
G01*
X116268464Y-70752804D02*
G75*
G02*
X116225891Y-70791448I-157401J130631D01*
G01*
X115989758Y-71049221D02*
G75*
G02*
X115846013Y-70969864I593213J1244405D01*
G01*
X115911831Y-71709181D02*
G75*
G02*
X115816640Y-71670226I92852J362682D01*
G01*
X115706684Y-71521142D02*
G75*
G02*
X115713861Y-71545378I-37334J-24236D01*
G01*
X115621344Y-71774112D02*
G75*
G02*
X115540816Y-71669018I434808J416573D01*
G01*
X115686934Y-71502208D02*
G75*
G02*
X115706684Y-71521142I-30431J-51510D01*
G01*
X116225891Y-70791447D02*
G75*
G02*
X116184509Y-70803347I-38886J57323D01*
G01*
X116293447Y-71687102D02*
G75*
G02*
X116228514Y-71782472I-426258J220427D01*
G01*
X115742423Y-71863758D02*
G75*
G02*
X115683800Y-71830322I88920J224010D01*
G01*
X116137731Y-71427480D02*
G75*
G02*
X116142530Y-71513231I-220549J-55354D01*
G01*
X116024685Y-70703198D02*
G75*
G02*
X116088146Y-70746300I-81073J-187637D01*
G01*
X116140211Y-70789031D02*
G75*
G02*
X116088146Y-70746300I190956J285750D01*
G01*
X115903974Y-71886301D02*
G75*
G02*
X115810653Y-71880925I0J812656D01*
G01*
X106872585Y-71779155D02*
G75*
G02*
X106858213Y-71845587I-227730J14496D01*
G01*
X115768667Y-70826886D02*
G75*
G02*
X115814720Y-70751156I178410J-56627D01*
G01*
X116007906Y-70509504D02*
G75*
G02*
X116122717Y-70545400I-61837J-399336D01*
G01*
X116353044Y-71495437D02*
G75*
G02*
X116293447Y-71687101I-569352J71940D01*
G01*
X116206841Y-71181579D02*
G75*
G02*
X116326213Y-71328457I-242882J-319343D01*
G01*
X116115705Y-71597709D02*
G75*
G02*
X116062575Y-71666376I-217812J113640D01*
G01*
X106673861Y-71886300D02*
X106772108Y-71886300D01*
X116283774Y-70692370D02*
G75*
G02*
X116284488Y-70722414I-47932J-16171D01*
G01*
X115767010Y-70543052D02*
G75*
G02*
X115886095Y-70508721I181425J-405614D01*
G01*
X115886095Y-70508720D02*
G75*
G02*
X116007906Y-70509504I58263J-411173D01*
G01*
X116122717Y-70545400D02*
G75*
G02*
X116221438Y-70613419I-174326J-358664D01*
G01*
X116326213Y-71328457D02*
G75*
G02*
X116353044Y-71495438I-271545J-129279D01*
G01*
X116047694Y-71875969D02*
G75*
G02*
X115903974Y-71886300I-143721J994545D01*
G01*
X115540815Y-71669018D02*
G75*
G02*
X115513294Y-71575020I163747J98971D01*
G01*
X109504192Y-70684073D02*
G75*
G02*
X109475861Y-70712729I-43974J15142D01*
G01*
X109465861Y-71873669D02*
G75*
G02*
X109385787Y-71884584I-84605J321497D01*
G01*
X107953861Y-71686300D02*
X107953861Y-71466300D01*
X108953861Y-71046300D02*
X108953861Y-70886300D01*
X108213861Y-71046300D02*
X107953861Y-71046300D01*
X108466606Y-70538317D02*
G75*
G02*
X108499424Y-70565560I-11487J-47226D01*
G01*
X108464824Y-71088667D02*
G75*
G02*
X108473861Y-71146300I-179268J-57633D01*
G01*
X109452894Y-71213851D02*
G75*
G02*
X109383577Y-71228643I-88953J247030D01*
G01*
X109475860Y-70712729D02*
G75*
G02*
X109413284Y-70724291I-67039J187711D01*
G01*
X109233861Y-70726300D02*
X109413284Y-70724291D01*
X108953861Y-70726300D02*
X109233861Y-70726300D01*
X109504192Y-71728527D02*
G75*
G02*
X109513861Y-71786300I-167770J-57773D01*
G01*
X109133861Y-71886300D02*
X109385787Y-71884584D01*
X109415006Y-71048189D02*
X109236643Y-71046300D01*
X108953861Y-70886300D02*
X108953861Y-70726300D01*
X109236643Y-71046300D02*
X108953861Y-71046300D01*
X109488287Y-71185655D02*
G75*
G02*
X109452894Y-71213850I-59253J38067D01*
G01*
X109415006Y-71048189D02*
G75*
G02*
X109477617Y-71059031I-4494J-212155D01*
G01*
X108452894Y-70693851D02*
G75*
G02*
X108383577Y-70708643I-88953J247030D01*
G01*
X109477616Y-71059031D02*
G75*
G02*
X109503126Y-71085636I-12508J-37525D01*
G01*
X109503126Y-71085636D02*
G75*
G02*
X109506643Y-71136300I-116868J-33567D01*
G01*
X108753861Y-71206300D02*
X108753861Y-71886300D01*
X107953861Y-71046300D02*
X107953861Y-70888128D01*
X108506643Y-70616301D02*
G75*
G02*
X108488287Y-70665655I-122191J17354D01*
G01*
X108953861Y-71686300D02*
X108953861Y-71468128D01*
X109506643Y-71136301D02*
G75*
G02*
X109488287Y-71185655I-122191J17354D01*
G01*
X109223861Y-71238128D02*
X109383577Y-71228643D01*
X108437860Y-71060146D02*
G75*
G02*
X108464824Y-71088667I-16321J-42437D01*
G01*
X108953861Y-71468128D02*
X108953861Y-71249956D01*
X109233861Y-71686300D02*
X108953861Y-71686300D01*
X108464824Y-71203933D02*
G75*
G02*
X108437861Y-71232454I-43285J13915D01*
G01*
X109500971Y-71844359D02*
G75*
G02*
X109465861Y-71873669I-48824J22802D01*
G01*
X109413284Y-71688310D02*
X109233861Y-71686300D01*
X109413285Y-71688310D02*
G75*
G02*
X109475861Y-71699872I-4464J-199273D01*
G01*
X109475861Y-71699872D02*
G75*
G02*
X109504192Y-71728528I-15643J-43798D01*
G01*
X108384989Y-70527975D02*
X108136643Y-70526300D01*
X107753861Y-70526300D02*
X107753861Y-71206300D01*
X108473860Y-71146301D02*
G75*
G02*
X108464824Y-71203934I-188304J0D01*
G01*
X108437860Y-71232454D02*
G75*
G02*
X108378802Y-71244200I-63567J165276D01*
G01*
X108136643Y-70526300D02*
X107753861Y-70526300D01*
X108378803Y-71048401D02*
G75*
G02*
X108437861Y-71060147I-4510J-177022D01*
G01*
X108213861Y-71246300D02*
X108378802Y-71244200D01*
X107953861Y-71466300D02*
X107953861Y-71246300D01*
X107953861Y-71246300D02*
X108213861Y-71246300D01*
X108233861Y-71686300D02*
X107953861Y-71686300D01*
X108499424Y-70565560D02*
G75*
G02*
X108506643Y-70616300I-83828J-37810D01*
G01*
X107953861Y-70888128D02*
X107953861Y-70729956D01*
X108488287Y-70665655D02*
G75*
G02*
X108452894Y-70693850I-59253J38067D01*
G01*
X108223861Y-70718128D02*
X108383577Y-70708643D01*
X108384989Y-70527975D02*
G75*
G02*
X108466607Y-70538318I-4939J-366188D01*
G01*
X108753861Y-71886300D02*
X109133861Y-71886300D01*
X111313861Y-71886300D02*
X111413861Y-71886300D01*
X111313861Y-71206300D02*
X111313861Y-71886300D01*
X108753861Y-70526300D02*
X108753861Y-71206300D01*
X109133861Y-70526300D02*
X108753861Y-70526300D01*
X109385787Y-70528017D02*
X109133861Y-70526300D01*
X109385787Y-70528017D02*
G75*
G02*
X109465861Y-70538932I-4531J-332412D01*
G01*
X108953861Y-71249956D02*
X109223861Y-71238128D01*
X107953861Y-70729956D02*
X108223861Y-70718128D01*
X109513861Y-71786301D02*
G75*
G02*
X109500971Y-71844360I-137202J0D01*
G01*
X109465861Y-70538931D02*
G75*
G02*
X109500971Y-70568241I-13714J-52113D01*
G01*
X108378802Y-71048401D02*
X108213861Y-71046300D01*
X109500971Y-70568241D02*
G75*
G02*
X109513861Y-70626300I-124312J-58059D01*
G01*
X109513860Y-70626300D02*
G75*
G02*
X109504192Y-70684073I-177438J-1D01*
G01*
X107172402Y-70804688D02*
G75*
G02*
X107216898Y-70886961I-146008J-132136D01*
G01*
X106872585Y-71779155D02*
X106882108Y-71596300D01*
X106673861Y-70516981D02*
X106673861Y-71201641D01*
X108413284Y-71688310D02*
X108233861Y-71686300D01*
X107403860Y-71886099D02*
G75*
G02*
X107337929Y-71871918I296J161732D01*
G01*
X108413285Y-71688310D02*
G75*
G02*
X108475861Y-71699872I-4464J-199273D01*
G01*
X108475861Y-71699872D02*
G75*
G02*
X108504192Y-71728528I-15643J-43798D01*
G01*
X108504192Y-71728527D02*
G75*
G02*
X108513861Y-71786300I-167770J-57773D01*
G01*
X108513861Y-71786301D02*
G75*
G02*
X108500971Y-71844360I-137202J0D01*
G01*
X108465861Y-71873669D02*
G75*
G02*
X108385787Y-71884584I-84605J321497D01*
G01*
X107753861Y-71886300D02*
X108133861Y-71886300D01*
X107508840Y-71842708D02*
X107469055Y-71781497D01*
X107508841Y-71842708D02*
G75*
G02*
X107513861Y-71859935I-27048J-17227D01*
G01*
X107088871Y-70749327D02*
G75*
G02*
X107136923Y-70774668I-126447J-298004D01*
G01*
X107419777Y-71709876D02*
X107361331Y-71629935D01*
X106873861Y-70948996D02*
X106876142Y-70805669D01*
X107218424Y-70980496D02*
G75*
G02*
X107177138Y-71060661I-176195J40027D01*
G01*
X107167358Y-70567318D02*
G75*
G02*
X107236025Y-70601697I-89024J-263580D01*
G01*
X107419118Y-70936899D02*
G75*
G02*
X107380204Y-71083666I-350756J14458D01*
G01*
X106893861Y-71306300D02*
X107093861Y-71596099D01*
X107197768Y-71297623D02*
G75*
G02*
X107281206Y-71211390I634091J-530054D01*
G01*
X107361331Y-71629935D02*
X107213621Y-71427888D01*
X107469055Y-71781497D02*
X107419777Y-71709876D01*
X107513861Y-71859934D02*
G75*
G02*
X107507086Y-71870142I-11077J-1D01*
G01*
X107446019Y-71884269D02*
G75*
G02*
X107403861Y-71886099I-41304J464948D01*
G01*
X106882108Y-71596300D02*
X106893861Y-71306300D01*
X107304005Y-70658263D02*
G75*
G02*
X107392224Y-70789090I-292179J-292179D01*
G01*
X107182721Y-71355690D02*
G75*
G02*
X107197768Y-71297622I68764J13164D01*
G01*
X107093861Y-71596099D02*
X107204886Y-71750815D01*
X107481547Y-71878497D02*
G75*
G02*
X107446018Y-71884269I-57527J241864D01*
G01*
X107036435Y-70732058D02*
G75*
G02*
X107088871Y-70749327I-77392J-323240D01*
G01*
X108500971Y-71844359D02*
G75*
G02*
X108465861Y-71873669I-48824J22802D01*
G01*
X107213621Y-71427888D02*
G75*
G02*
X107182721Y-71355690I149653J106763D01*
G01*
X107177138Y-71060661D02*
G75*
G02*
X107103768Y-71106808I-116451J103747D01*
G01*
X108133861Y-71886300D02*
X108385787Y-71884584D01*
X106938665Y-71151617D02*
G75*
G02*
X106896639Y-71144157I-12790J50053D01*
G01*
X106876142Y-70805668D02*
G75*
G02*
X106888971Y-70755869I117610J-3746D01*
G01*
X107753861Y-71206300D02*
X107753861Y-71886300D01*
X107216897Y-70886961D02*
G75*
G02*
X107218423Y-70980496I-190600J-49888D01*
G01*
X107236025Y-70601696D02*
G75*
G02*
X107304005Y-70658263I-274646J-399194D01*
G01*
X107077480Y-70546861D02*
G75*
G02*
X107167358Y-70567318I-55065J-449601D01*
G01*
X107136923Y-70774668D02*
G75*
G02*
X107172402Y-70804689I-94485J-147636D01*
G01*
X106876723Y-71107928D02*
X106873861Y-70948996D01*
X107337929Y-71871918D02*
G75*
G02*
X107276899Y-71831321I91318J203451D01*
G01*
X107380204Y-71083667D02*
G75*
G02*
X107281206Y-71211390I-396090J204782D01*
G01*
X106987661Y-70726301D02*
G75*
G02*
X107036435Y-70732058I0J-209471D01*
G01*
X106896639Y-71144157D02*
G75*
G02*
X106876723Y-71107928I26004J37884D01*
G01*
X107507086Y-71870142D02*
G75*
G02*
X107481548Y-71878497I-63192J149954D01*
G01*
X107392223Y-70789090D02*
G75*
G02*
X107419118Y-70936899I-315223J-133708D01*
G01*
X106919414Y-70732922D02*
G75*
G02*
X106987661Y-70726300I68247J-348387D01*
G01*
X106888971Y-70755870D02*
G75*
G02*
X106919414Y-70732922I38825J-19840D01*
G01*
X107103768Y-71106808D02*
X106938665Y-71151617D01*
X106934914Y-70533603D02*
X106673861Y-70516981D01*
X107276899Y-71831322D02*
G75*
G02*
X107204886Y-71750815I415340J443984D01*
G01*
X107077480Y-70546861D02*
X106934914Y-70533603D01*
X115762239Y-70247420D02*
X115901496Y-70108361D01*
X106326934Y-69746300D02*
X106373807Y-69886300D01*
X105985335Y-69734815D02*
X106326934Y-69746300D01*
X105643735Y-69723330D02*
X105985335Y-69734815D01*
X105379497Y-69074625D02*
X105246289Y-69426279D01*
X116843861Y-68128976D02*
X116604355Y-68133627D01*
X117390468Y-68922603D02*
X117393861Y-68691660D01*
X105579122Y-69884815D02*
X105643735Y-69723330D01*
X116395640Y-68145289D02*
X116226867Y-68162465D01*
X105514508Y-70046300D02*
X105579122Y-69884815D01*
X105043108Y-70028177D02*
G75*
G02*
X105032841Y-70016300I2227J12301D01*
G01*
X116031437Y-70036234D02*
G75*
G02*
X116096806Y-70047420I4192J-172094D01*
G01*
X115461572Y-70293846D02*
G75*
G02*
X115577933Y-70166300I1208641J-985797D01*
G01*
X105274184Y-70046300D02*
X105514508Y-70046300D01*
X115779839Y-69917253D02*
X115665103Y-70069196D01*
X117380251Y-69138880D02*
X117390468Y-68922603D01*
X117134355Y-69754946D02*
G75*
G02*
X116971394Y-69913022I-1156518J1029224D01*
G01*
X116604355Y-68133627D02*
X116395640Y-68145289D01*
X115410268Y-70457499D02*
G75*
G02*
X115403885Y-70395533I60868J37581D01*
G01*
X115500336Y-70474202D02*
G75*
G02*
X115461898Y-70486300I-38438J55011D01*
G01*
X117393861Y-68126300D02*
X116843861Y-68128976D01*
X116246597Y-70080699D02*
G75*
G02*
X116096806Y-70047420I39291J530604D01*
G01*
X116658927Y-70059686D02*
G75*
G02*
X116451965Y-70083112I-291256J1647203D01*
G01*
X117271393Y-69576065D02*
G75*
G02*
X117134355Y-69754946I-1283055J841002D01*
G01*
X105246289Y-69426279D02*
X105134250Y-69727308D01*
X116122732Y-68185089D02*
G75*
G02*
X116226867Y-68162465I179210J-573905D01*
G01*
X117365420Y-69319774D02*
X117380251Y-69138880D01*
X115973767Y-70052915D02*
G75*
G02*
X116031437Y-70036234I60543J-101278D01*
G01*
X116971394Y-69913022D02*
G75*
G02*
X116815409Y-70011162I-438695J524238D01*
G01*
X115461898Y-70486301D02*
G75*
G02*
X115410267Y-70457499I0J60679D01*
G01*
X115500336Y-70474202D02*
X115578189Y-70416129D01*
X105181976Y-70044139D02*
X105274184Y-70046300D01*
X116815408Y-70011161D02*
G75*
G02*
X116658926Y-70059686I-270267J594987D01*
G01*
X105104156Y-70037488D02*
X105181976Y-70044139D01*
X115665103Y-70069195D02*
G75*
G02*
X115577933Y-70166300I-808263J637892D01*
G01*
X105043109Y-70028178D02*
X105104156Y-70037488D01*
X105032841Y-70016301D02*
G75*
G02*
X105036516Y-69993342I60671J2063D01*
G01*
X115403885Y-70395533D02*
G75*
G02*
X115461572Y-70293846I328327J-119054D01*
G01*
X105134250Y-69727308D02*
X105036516Y-69993342D01*
X117393861Y-68691660D02*
X117393861Y-68126300D01*
X117365420Y-69319774D02*
G75*
G02*
X117346820Y-69414027I-497386J49194D01*
G01*
X117346819Y-69414026D02*
G75*
G02*
X117271394Y-69576065I-594266J178045D01*
G01*
X116451964Y-70083112D02*
G75*
G02*
X116246597Y-70080699I-83299J1650899D01*
G01*
X115901496Y-70108360D02*
G75*
G02*
X115973768Y-70052915I274848J-283432D01*
G01*
X115668302Y-70338912D02*
X115762239Y-70247420D01*
X115578189Y-70416129D02*
X115668302Y-70338912D01*
X106298821Y-70741838D02*
G75*
G02*
X106305651Y-70769861I-40723J-24769D01*
G01*
X113378958Y-70505686D02*
G75*
G02*
X113504599Y-70548210I-242927J-924634D01*
G01*
X112872629Y-70886284D02*
G75*
G02*
X113174634Y-70703744I383130J-292777D01*
G01*
X113843896Y-70808071D02*
G75*
G02*
X113926027Y-70992930I-489590J-328197D01*
G01*
X116066673Y-71333338D02*
G75*
G02*
X116114434Y-71380983I-205322J-253581D01*
G01*
X115995239Y-71284331D02*
G75*
G02*
X116066673Y-71333338I-272547J-473836D01*
G01*
X113703755Y-70661276D02*
G75*
G02*
X113843895Y-70808072I-353295J-477569D01*
G01*
X113021213Y-70544253D02*
G75*
G02*
X113159514Y-70503656I424473J-1190186D01*
G01*
X113419568Y-71880348D02*
G75*
G02*
X113097858Y-71876824I-152223J789886D01*
G01*
X112559832Y-71243452D02*
G75*
G02*
X112674568Y-70816362I701974J40375D01*
G01*
X105621102Y-70516434D02*
X105564117Y-70530985D01*
X115898266Y-71233587D02*
X115995239Y-71284330D01*
X105746356Y-70494459D02*
X105685123Y-70503721D01*
X113174634Y-70703744D02*
G75*
G02*
X113517362Y-70777501I79305J-464651D01*
G01*
X113271150Y-70491311D02*
G75*
G02*
X113378959Y-70505686I-3589J-438380D01*
G01*
X113159515Y-70503657D02*
G75*
G02*
X113271150Y-70491312I107741J-463385D01*
G01*
X106191044Y-70878207D02*
G75*
G02*
X106159036Y-70864021I9475J64585D01*
G01*
X106188849Y-70632240D02*
G75*
G02*
X106270424Y-70701969I-159693J-269403D01*
G01*
X115810682Y-71187630D02*
X115898266Y-71233587D01*
X115726558Y-71134366D02*
X115810682Y-71187630D01*
X115656711Y-71081751D02*
G75*
G02*
X115617797Y-71039782I133176J162506D01*
G01*
X115566121Y-70758573D02*
G75*
G02*
X115639398Y-70632930I297671J-89417D01*
G01*
X113698468Y-71754785D02*
G75*
G02*
X113419568Y-71880347I-404424J525781D01*
G01*
X105793860Y-70490787D02*
G75*
G02*
X105903079Y-70505696I9269J-339608D01*
G01*
X106050014Y-70560646D02*
G75*
G02*
X106188849Y-70632240I-536861J-1211502D01*
G01*
X115639398Y-70632930D02*
G75*
G02*
X115767010Y-70543052I293731J-281514D01*
G01*
X112767605Y-71233397D02*
G75*
G02*
X112872629Y-70886284I515427J33496D01*
G01*
X105716962Y-70703213D02*
G75*
G02*
X105857843Y-70700986I78102J-483337D01*
G01*
X105581474Y-70745368D02*
G75*
G02*
X105716963Y-70703214I215776J-454714D01*
G01*
X112916937Y-71563224D02*
G75*
G02*
X112767605Y-71233397I363131J363130D01*
G01*
X105374581Y-70920119D02*
G75*
G02*
X105581475Y-70745368I434151J-304157D01*
G01*
X113103034Y-71681771D02*
G75*
G02*
X112916937Y-71563224I174269J478913D01*
G01*
X113504599Y-70548210D02*
G75*
G02*
X113703755Y-70661276I-367016J-878394D01*
G01*
X113672835Y-71478707D02*
G75*
G02*
X113520848Y-71634961I-418845J255363D01*
G01*
X113743562Y-71096179D02*
G75*
G02*
X113746136Y-71289459I-463798J-102834D01*
G01*
X113664123Y-70919419D02*
G75*
G02*
X113743562Y-71096179I-387112J-280204D01*
G01*
X112722987Y-71651965D02*
G75*
G02*
X112559833Y-71243452I529619J448359D01*
G01*
X105549776Y-71635503D02*
G75*
G02*
X105355674Y-71427014I343862J514731D01*
G01*
X105857843Y-70700987D02*
G75*
G02*
X105990064Y-70738591I-59562J-460680D01*
G01*
X105685123Y-70503721D02*
X105621102Y-70516434D01*
X106220128Y-70871086D02*
G75*
G02*
X106191045Y-70878206I-23308J32250D01*
G01*
X113318061Y-71707441D02*
G75*
G02*
X113103034Y-71681770I-52737J471665D01*
G01*
X113746136Y-71289460D02*
G75*
G02*
X113672835Y-71478708I-562691J109126D01*
G01*
X113886590Y-71520543D02*
G75*
G02*
X113698468Y-71754785I-575802J269770D01*
G01*
X105746356Y-70494458D02*
G75*
G02*
X105793861Y-70490786I60542J-474076D01*
G01*
X113517362Y-70777501D02*
G75*
G02*
X113664123Y-70919419I-326479J-484464D01*
G01*
X106305650Y-70769861D02*
G75*
G02*
X106295199Y-70797423I-50721J3471D01*
G01*
X113953860Y-71218398D02*
G75*
G02*
X113886590Y-71520543I-712176J0D01*
G01*
X112674568Y-70816362D02*
G75*
G02*
X113021213Y-70544253I579884J-381872D01*
G01*
X105903079Y-70505696D02*
G75*
G02*
X106050014Y-70560646I-389670J-1265881D01*
G01*
X106295199Y-70797423D02*
G75*
G02*
X106261249Y-70836055I-316442J243860D01*
G01*
X106261249Y-70836055D02*
G75*
G02*
X106220128Y-70871086I-239596J239596D01*
G01*
X105291808Y-71167113D02*
G75*
G02*
X105374580Y-70920119I458645J-16334D01*
G01*
X106100421Y-70812463D02*
X106159036Y-70864021D01*
X113926028Y-70992930D02*
G75*
G02*
X113953861Y-71218399I-899307J-225469D01*
G01*
X113097859Y-71876824D02*
G75*
G02*
X112722987Y-71651966I142948J663229D01*
G01*
X106270425Y-70701969D02*
G75*
G02*
X106298821Y-70741837I-260485J-215578D01*
G01*
X105355674Y-71427014D02*
G75*
G02*
X105291808Y-71167114I425917J242458D01*
G01*
X115617796Y-71039782D02*
G75*
G02*
X115559004Y-70901345I296306J207541D01*
G01*
X115656710Y-71081751D02*
X115726558Y-71134366D01*
X115559004Y-70901345D02*
G75*
G02*
X115566121Y-70758573I292751J56971D01*
G01*
X105990064Y-70738590D02*
G75*
G02*
X106100421Y-70812463I-167615J-369762D01*
G01*
X116114435Y-71380983D02*
G75*
G02*
X116137731Y-71427480I-93019J-75690D01*
G01*
X113520847Y-71634962D02*
G75*
G02*
X113318061Y-71707441I-254840J393083D01*
G01*
X105465194Y-71822074D02*
G75*
G02*
X105222970Y-71624153I285589J596698D01*
G01*
X110383418Y-71057677D02*
X110217221Y-70886064D01*
X105730678Y-71720131D02*
G75*
G02*
X105671666Y-71699629I172960J593001D01*
G01*
X105773861Y-71726300D02*
G75*
G02*
X105730678Y-71720131I0J154223D01*
G01*
X106158571Y-71456301D02*
G75*
G02*
X106103774Y-71542228I-220373J80099D01*
G01*
X106171711Y-71403993D02*
G75*
G02*
X106158571Y-71456300I-260826J37718D01*
G01*
X105833861Y-71266301D02*
G75*
G02*
X105843529Y-71208528I177438J1D01*
G01*
X105222971Y-71624153D02*
G75*
G02*
X105097650Y-71335822I534144J403560D01*
G01*
X109793861Y-70451926D02*
X109793861Y-71169113D01*
X105427296Y-70597076D02*
G75*
G02*
X105564117Y-70530985I262259J-368258D01*
G01*
X110722680Y-71399223D02*
G75*
G02*
X110695949Y-71393251I-9838J18776D01*
G01*
X109893861Y-71886300D02*
X109993861Y-71886300D01*
X110752588Y-70996300D02*
X110750306Y-71264710D01*
X109793861Y-71886300D02*
X109893861Y-71886300D01*
X113313861Y-68166300D02*
X113313861Y-69106300D01*
X110873861Y-70526300D02*
X110753861Y-70526300D01*
X110750307Y-71264710D02*
G75*
G02*
X110741921Y-71371981I-844842J12080D01*
G01*
X106160261Y-71379505D02*
G75*
G02*
X106171711Y-71403994I-12923J-20964D01*
G01*
X110993861Y-71226300D02*
X110993861Y-70526300D01*
X105873127Y-71704108D02*
G75*
G02*
X105773861Y-71726300I-99267J210923D01*
G01*
X105995410Y-71633131D02*
G75*
G02*
X105873127Y-71704109I-472599J673383D01*
G01*
X106103774Y-71542227D02*
G75*
G02*
X105995410Y-71633131I-581099J582673D01*
G01*
X106123170Y-71368274D02*
G75*
G02*
X106160261Y-71379506I-2705J-75790D01*
G01*
X106393861Y-71166300D02*
X106113861Y-71166300D01*
X106393861Y-71320385D02*
X106393861Y-71166300D01*
X106393861Y-71320385D02*
G75*
G02*
X106345741Y-71534620I-500961J0D01*
G01*
X105112222Y-71012384D02*
G75*
G02*
X105176694Y-70864219I531226J-143045D01*
G01*
X110217221Y-70886064D02*
X109793861Y-70451926D01*
X105176694Y-70864219D02*
G75*
G02*
X105289914Y-70717065I805054J-502278D01*
G01*
X110465867Y-71436472D02*
X110647432Y-71624363D01*
X110963860Y-71926472D02*
G75*
G02*
X110943957Y-71918447I-162J28292D01*
G01*
X109997874Y-70946300D02*
X110465867Y-71436472D01*
X109995867Y-71416300D02*
X109997874Y-70946300D01*
X105840449Y-71322530D02*
G75*
G02*
X105833861Y-71266300I236671J56230D01*
G01*
X105097649Y-71335822D02*
G75*
G02*
X105112222Y-71012384I737298J128828D01*
G01*
X106113861Y-71166300D02*
X105934437Y-71168310D01*
X106008221Y-71848512D02*
G75*
G02*
X105777527Y-71892967I-230693J576343D01*
G01*
X110976035Y-71914825D02*
X110985048Y-71720726D01*
X110532483Y-71214131D02*
X110383418Y-71057677D01*
X110656504Y-71346362D02*
X110532483Y-71214131D01*
X110993861Y-70526300D02*
X110873861Y-70526300D01*
X109793861Y-71169113D02*
X109793861Y-71886300D01*
X105906302Y-71363562D02*
X106012572Y-71366300D01*
X105906302Y-71363562D02*
G75*
G02*
X105861732Y-71350705I5255J101901D01*
G01*
X105861732Y-71350704D02*
G75*
G02*
X105840449Y-71322531I21445J38325D01*
G01*
X105843530Y-71208528D02*
G75*
G02*
X105871861Y-71179872I43973J-15142D01*
G01*
X106345741Y-71534620D02*
G75*
G02*
X106209059Y-71721284I-553257J261741D01*
G01*
X110647432Y-71624363D02*
X110805200Y-71782606D01*
X110985048Y-71720726D02*
X110991704Y-71494723D01*
X110976034Y-71914825D02*
G75*
G02*
X110963861Y-71926472I-12244J612D01*
G01*
X110805200Y-71782606D02*
X110943957Y-71918447D01*
X105777527Y-71892967D02*
G75*
G02*
X105465194Y-71822074I0J723470D01*
G01*
X105289914Y-70717066D02*
G75*
G02*
X105427296Y-70597077I672230J-631028D01*
G01*
X109993861Y-71886300D02*
X109995867Y-71416300D01*
X110741920Y-71371981D02*
G75*
G02*
X110722679Y-71399223I-36222J5168D01*
G01*
X110656505Y-71346362D02*
G75*
G02*
X110695949Y-71393251I-441210J-411196D01*
G01*
X113551526Y-68166300D02*
X113313861Y-68166300D01*
X106209059Y-71721283D02*
G75*
G02*
X106008222Y-71848511I-442354J476153D01*
G01*
X110753861Y-70526300D02*
X110752588Y-70996300D01*
X110991704Y-71494723D02*
X110993861Y-71226300D01*
X105608286Y-71670256D02*
G75*
G02*
X105549776Y-71635503I298370J568971D01*
G01*
X105871861Y-71179872D02*
G75*
G02*
X105934437Y-71168310I67039J-187711D01*
G01*
X105671666Y-71699629D02*
G75*
G02*
X105608286Y-71670256I267780J660873D01*
G01*
X106012572Y-71366300D02*
X106123170Y-71368274D01*
X112175744Y-69572514D02*
G75*
G02*
X112066256Y-69810274I-696896J176829D01*
G01*
X110704964Y-69734907D02*
G75*
G02*
X110638207Y-69584424I475738J301097D01*
G01*
X111983861Y-68174304D02*
X111753861Y-68162308D01*
X110597386Y-69049100D02*
X110607137Y-69287687D01*
X112753861Y-68166300D02*
X112513861Y-68166300D01*
X112993861Y-69106300D02*
X112993861Y-68166300D01*
X110607137Y-69287687D02*
X110621053Y-69488348D01*
X114693861Y-68186300D02*
X114673861Y-68735425D01*
X111073861Y-68166300D02*
X110833861Y-68166300D01*
X109413229Y-68606300D02*
G75*
G02*
X109508495Y-68611992I1J-800088D01*
G01*
X111116276Y-70047164D02*
G75*
G02*
X110959009Y-69980795I165344J611308D01*
G01*
X115153861Y-69104304D02*
X115153861Y-68162308D01*
X112513861Y-68166300D02*
X112513861Y-69106300D01*
X112993861Y-70046300D02*
X112993861Y-69106300D01*
X110816616Y-69872140D02*
G75*
G02*
X110704964Y-69734907I519451J536660D01*
G01*
X112513861Y-70046300D02*
X112753861Y-70046300D01*
X111753861Y-68162308D02*
X111752118Y-68674304D01*
X110959009Y-69980795D02*
G75*
G02*
X110816616Y-69872139I389868J658548D01*
G01*
X113789192Y-68166300D02*
X113551526Y-68166300D01*
X114221526Y-68725425D02*
X113789192Y-68166300D01*
X114653861Y-69284549D02*
X114221526Y-68725425D01*
X114673861Y-68735425D02*
X114653861Y-69284549D01*
X114923861Y-68174304D02*
X114693861Y-68186300D01*
X113791664Y-70046300D02*
X113802762Y-69479856D01*
X109508496Y-68611992D02*
G75*
G02*
X109581953Y-68629776I-38166J-318256D01*
G01*
X115153861Y-70046300D02*
X115153861Y-69104304D01*
X114923219Y-70046300D02*
X115153861Y-70046300D01*
X111128448Y-69463893D02*
G75*
G02*
X111084384Y-69229700I797666J271326D01*
G01*
X111084384Y-69229700D02*
X111073923Y-68756300D01*
X114692577Y-70046300D02*
X114923219Y-70046300D01*
X113313861Y-70046300D02*
X113552762Y-70046300D01*
X113313861Y-69106300D02*
X113313861Y-70046300D01*
X110638207Y-69584423D02*
G75*
G02*
X110621053Y-69488348I500257J138887D01*
G01*
X112066256Y-69810274D02*
G75*
G02*
X111883500Y-69977951I-477524J337034D01*
G01*
X111731841Y-70038428D02*
G75*
G02*
X111522944Y-70072170I-344482J1469212D01*
G01*
X112993861Y-68166300D02*
X112753861Y-68166300D01*
X111373861Y-69638076D02*
G75*
G02*
X111220003Y-69584329I23039J313043D01*
G01*
X111522944Y-70072170D02*
G75*
G02*
X111303334Y-70076683I-142256J1576904D01*
G01*
X112226464Y-68626300D02*
X112213861Y-68186300D01*
X109233861Y-69103940D02*
X109233861Y-68606300D01*
X111073923Y-68756300D02*
X111073861Y-68166300D01*
X112513861Y-69106300D02*
X112513861Y-70046300D01*
X110593861Y-68166300D02*
X110594084Y-68796300D01*
X109581953Y-68629776D02*
G75*
G02*
X109648057Y-68663919I-107259J-288727D01*
G01*
X115153861Y-68162308D02*
X114923861Y-68174304D01*
X114253219Y-69479856D02*
X114692577Y-70046300D01*
X112226280Y-69210974D02*
X112226464Y-68626300D01*
X112226280Y-69210973D02*
G75*
G02*
X112175744Y-69572514I-1667809J48823D01*
G01*
X111737314Y-69217650D02*
G75*
G02*
X111680830Y-69479395I-831722J42518D01*
G01*
X111752118Y-68674304D02*
X111737315Y-69217650D01*
X112213861Y-68186300D02*
X111983861Y-68174304D01*
X111883500Y-69977951D02*
G75*
G02*
X111731842Y-70038429I-277072J474410D01*
G01*
X110833861Y-68166300D02*
X110593861Y-68166300D01*
X109648057Y-68663918D02*
G75*
G02*
X109720247Y-68720354I-392872J-576932D01*
G01*
X112753861Y-70046300D02*
X112993861Y-70046300D01*
X111303334Y-70076684D02*
G75*
G02*
X111116277Y-70047165I43059J880304D01*
G01*
X110594084Y-68796300D02*
X110597386Y-69049100D01*
X109233861Y-68606300D02*
X109413229Y-68606300D01*
X111565516Y-69602567D02*
G75*
G02*
X111373861Y-69638076I-163476J347360D01*
G01*
X113813861Y-68913411D02*
X114253219Y-69479856D01*
X111220003Y-69584329D02*
G75*
G02*
X111128449Y-69463893I134658J197383D01*
G01*
X111680830Y-69479395D02*
G75*
G02*
X111565515Y-69602567I-212540J83417D01*
G01*
X113802762Y-69479856D02*
X113813861Y-68913411D01*
X113552762Y-70046300D02*
X113791664Y-70046300D01*
X107891003Y-68629157D02*
G75*
G02*
X107947822Y-68743969I-141483J-141484D01*
G01*
X107596247Y-68918165D02*
X107593861Y-68786300D01*
X109789523Y-68791664D02*
G75*
G02*
X109828708Y-68856393I-186270J-156985D01*
G01*
X109859562Y-69936060D02*
G75*
G02*
X109752556Y-69981040I-315743J601375D01*
G01*
X108141247Y-68245036D02*
G75*
G02*
X108278879Y-68326891I-138434J-389395D01*
G01*
X108783861Y-68188756D02*
G75*
G02*
X108809893Y-68176968I28007J-27211D01*
G01*
X108934298Y-68172013D02*
X108809893Y-68176968D01*
X109253861Y-68175119D02*
X109083071Y-68170749D01*
X109590326Y-68202618D02*
X109253861Y-68175119D01*
X109590326Y-68202618D02*
G75*
G02*
X109816399Y-68259543I-117690J-944779D01*
G01*
X109816399Y-68259543D02*
G75*
G02*
X109993539Y-68361356I-243215J-628163D01*
G01*
X109993539Y-68361356D02*
G75*
G02*
X110166419Y-68528449I-795242J-995768D01*
G01*
X107634632Y-68997538D02*
G75*
G02*
X107608001Y-68972151I15361J42775D01*
G01*
X108379644Y-68456978D02*
G75*
G02*
X108441574Y-68667549I-508332J-263896D01*
G01*
X110166419Y-68528448D02*
G75*
G02*
X110352124Y-68887881I-671052J-574396D01*
G01*
X110358441Y-69292912D02*
G75*
G02*
X110182998Y-69666284I-904784J197241D01*
G01*
X107760467Y-68570930D02*
G75*
G02*
X107812200Y-68584765I-66614J-352736D01*
G01*
X107596158Y-68643900D02*
G75*
G02*
X107609185Y-68595081I111468J-3597D01*
G01*
X108278879Y-68326892D02*
G75*
G02*
X108379644Y-68456978I-306622J-341578D01*
G01*
X108753861Y-70054727D02*
X109223861Y-70038893D01*
X107947821Y-68743969D02*
G75*
G02*
X107924246Y-68871243I-205858J-27688D01*
G01*
X107931294Y-68197943D02*
G75*
G02*
X108141247Y-68245036I-88794J-887429D01*
G01*
X108771697Y-68217210D02*
G75*
G02*
X108783861Y-68188756I43092J-1596D01*
G01*
X110182999Y-69666284D02*
G75*
G02*
X109859563Y-69936060I-789301J617523D01*
G01*
X109223861Y-70038893D02*
X109476267Y-70026963D01*
X108762673Y-68480093D02*
X108756025Y-68783229D01*
X108441574Y-68667549D02*
G75*
G02*
X108425643Y-68900260I-721747J-67490D01*
G01*
X107684961Y-69006300D02*
G75*
G02*
X107634633Y-68997538I-1J148909D01*
G01*
X108340184Y-69099995D02*
G75*
G02*
X108201937Y-69216134I-261296J170685D01*
G01*
X107858484Y-68605055D02*
G75*
G02*
X107891003Y-68629158I-64827J-121449D01*
G01*
X107593861Y-68786300D02*
X107596158Y-68643899D01*
X107931294Y-68197943D02*
X107583861Y-68174069D01*
X107583861Y-68174069D02*
X107113861Y-68156440D01*
X107609185Y-68595081D02*
G75*
G02*
X107640074Y-68572595I38586J-20546D01*
G01*
X109236567Y-69296345D02*
X109233861Y-69103940D01*
X109083071Y-68170749D02*
X108934298Y-68172013D01*
X109271298Y-69624718D02*
G75*
G02*
X109256308Y-69600556I16771J27136D01*
G01*
X108771696Y-68217210D02*
X108762673Y-68480093D01*
X107825834Y-68970036D02*
G75*
G02*
X107684960Y-69006300I-140874J255496D01*
G01*
X109509842Y-69600340D02*
G75*
G02*
X109359742Y-69641324I-317896J868897D01*
G01*
X107812200Y-68584765D02*
G75*
G02*
X107858485Y-68605055I-108059J-309440D01*
G01*
X109865283Y-69074793D02*
X109871675Y-69217922D01*
X107608002Y-68972151D02*
G75*
G02*
X107596247Y-68918165I143988J59624D01*
G01*
X108425644Y-68900260D02*
G75*
G02*
X108340184Y-69099995I-609725J142728D01*
G01*
X109862047Y-69297547D02*
G75*
G02*
X109832187Y-69362127I-197140J51959D01*
G01*
X109244858Y-69462194D02*
X109236567Y-69296345D01*
X107924247Y-68871243D02*
G75*
G02*
X107825835Y-68970037I-218790J119530D01*
G01*
X109256308Y-69600556D02*
X109244858Y-69462194D01*
X109752556Y-69981040D02*
G75*
G02*
X109635131Y-70009324I-244439J756907D01*
G01*
X109720247Y-68720354D02*
G75*
G02*
X109789523Y-68791663I-469209J-525137D01*
G01*
X107113861Y-68156440D02*
X107113861Y-69103366D01*
X109768266Y-69442895D02*
G75*
G02*
X109662090Y-69529144I-323551J289826D01*
G01*
X110352124Y-68887881D02*
G75*
G02*
X110358441Y-69292912I-860845J-215990D01*
G01*
X109828708Y-68856393D02*
G75*
G02*
X109850918Y-68938780I-316500J-129512D01*
G01*
X109359742Y-69641324D02*
G75*
G02*
X109271298Y-69624717I-22684J123008D01*
G01*
X109662090Y-69529144D02*
G75*
G02*
X109509842Y-69600339I-485775J840424D01*
G01*
X109832187Y-69362127D02*
G75*
G02*
X109768266Y-69442895I-693274J482985D01*
G01*
X109635132Y-70009324D02*
G75*
G02*
X109476267Y-70026963I-256399J1585025D01*
G01*
X108756025Y-68783229D02*
X108753861Y-69137180D01*
X107711004Y-68566300D02*
G75*
G02*
X107760467Y-68570930I-1J-266553D01*
G01*
X107640073Y-68572594D02*
G75*
G02*
X107711003Y-68566300I70931J-396520D01*
G01*
X108753861Y-69137180D02*
X108753861Y-70054727D01*
X109871674Y-69217922D02*
G75*
G02*
X109862047Y-69297546I-292802J-4990D01*
G01*
X109850918Y-68938780D02*
X109865283Y-69074793D01*
X106906776Y-69959805D02*
X106815982Y-69703049D01*
X106858619Y-70035843D02*
G75*
G02*
X106786128Y-70041459I-69700J429016D01*
G01*
X106667270Y-70038209D02*
X106786128Y-70041459D01*
X108209004Y-69474508D02*
X108136411Y-69372064D01*
X105896020Y-68996300D02*
X105924447Y-68908117D01*
X107113861Y-70050293D02*
X107343861Y-70038297D01*
X105804435Y-69276300D02*
X105815607Y-69245048D01*
X108298232Y-69594118D02*
X108209004Y-69474508D01*
X106102243Y-69111331D02*
X106129282Y-69198521D01*
X108392283Y-69717987D02*
X108298232Y-69594118D01*
X108586129Y-69975156D02*
X108553599Y-69931432D01*
X106129282Y-69198521D02*
X106150798Y-69272180D01*
X108339519Y-70046300D02*
X108524827Y-70044808D01*
X108479999Y-69833879D02*
X108392283Y-69717987D01*
X108553599Y-69931432D02*
X108479999Y-69833879D01*
X108600927Y-70013370D02*
G75*
G02*
X108585923Y-70035669I-20803J-2200D01*
G01*
X108040641Y-70046300D02*
X108339519Y-70046300D01*
X105982283Y-68769608D02*
X106008444Y-68839082D01*
X106708998Y-69407335D02*
X106582114Y-69066300D01*
X106906776Y-69959805D02*
G75*
G02*
X106913478Y-69998209I-111688J-39277D01*
G01*
X107818996Y-69698412D02*
X108040641Y-70046300D01*
X105924447Y-68908117D02*
X105949838Y-68833863D01*
X105727173Y-68162949D02*
X105379497Y-69074625D01*
X106037459Y-68919072D02*
X106070188Y-69014067D01*
X107597351Y-69350523D02*
X107818996Y-69698412D01*
X106251133Y-68186300D02*
X105989153Y-68174625D01*
X107585606Y-69688412D02*
X107597351Y-69350523D01*
X105815607Y-69245048D02*
X105839231Y-69173425D01*
X107573861Y-70026300D02*
X107585606Y-69688412D01*
X107343861Y-70038297D02*
X107573861Y-70026300D01*
X105832799Y-69314626D02*
G75*
G02*
X105808299Y-69298632I15110J49909D01*
G01*
X106509240Y-70027569D02*
G75*
G02*
X106446869Y-70009504I14371J166319D01*
G01*
X106150799Y-69272180D02*
G75*
G02*
X106153861Y-69294067I-76687J-21887D01*
G01*
X106913477Y-69998209D02*
G75*
G02*
X106899544Y-70021845I-26680J-197D01*
G01*
X107113861Y-69103366D02*
X107113861Y-70050293D01*
X105839231Y-69173425D02*
X105866877Y-69088031D01*
X105808298Y-69298632D02*
G75*
G02*
X105804435Y-69276300I16833J14412D01*
G01*
X105884198Y-69323789D02*
G75*
G02*
X105832798Y-69314626I13084J222146D01*
G01*
X105969581Y-69326300D02*
X105884198Y-69323788D01*
X106099728Y-69316832D02*
G75*
G02*
X106040223Y-69323976I-96224J550122D01*
G01*
X106509239Y-70027569D02*
X106667270Y-70038209D01*
X106582114Y-69066300D02*
X106251133Y-68186300D01*
X106815982Y-69703049D02*
X106708998Y-69407335D01*
X106040223Y-69323976D02*
X105969581Y-69326300D01*
X106153861Y-69294068D02*
G75*
G02*
X106144302Y-69306688I-13111J1D01*
G01*
X105949838Y-68833863D02*
X105972780Y-68769613D01*
X106446868Y-70009504D02*
G75*
G02*
X106409237Y-69971422I39881J77043D01*
G01*
X106008444Y-68839082D02*
X106037459Y-68919072D01*
X105977493Y-68766301D02*
G75*
G02*
X105982283Y-68769608I0J-5122D01*
G01*
X105989153Y-68174625D02*
X105727173Y-68162949D01*
X106899544Y-70021845D02*
G75*
G02*
X106858619Y-70035843I-61604J113283D01*
G01*
X106409237Y-69971422D02*
G75*
G02*
X106373807Y-69886300I577832J290445D01*
G01*
X108159402Y-69234685D02*
X108201937Y-69216134D01*
X106070188Y-69014067D02*
X106102243Y-69111331D01*
X108121017Y-69252070D02*
X108159402Y-69234685D01*
X108089070Y-69267069D02*
X108121017Y-69252070D01*
X108078232Y-69273361D02*
G75*
G02*
X108089070Y-69267069I43987J-63286D01*
G01*
X108076315Y-69283562D02*
G75*
G02*
X108078232Y-69273361I6139J4127D01*
G01*
X105972780Y-68769613D02*
G75*
G02*
X105977493Y-68766300I4713J-1696D01*
G01*
X108586128Y-69975156D02*
G75*
G02*
X108600927Y-70013370I-63245J-46465D01*
G01*
X108136411Y-69372064D02*
X108076315Y-69283561D01*
X105866877Y-69088031D02*
X105896020Y-68996300D01*
X108585923Y-70035669D02*
G75*
G02*
X108524827Y-70044808I-64865J224843D01*
G01*
X106144302Y-69306688D02*
G75*
G02*
X106099728Y-69316832I-122420J434907D01*
G01*
X114333861Y-70526300D02*
X114233861Y-70526300D01*
X116793861Y-71046300D02*
X116793861Y-70886300D01*
X117255006Y-71048189D02*
X117076643Y-71046300D01*
X117353860Y-70626300D02*
G75*
G02*
X117344192Y-70684073I-177438J-1D01*
G01*
X117063861Y-71238128D02*
X117223577Y-71228643D01*
X116593861Y-70526300D02*
X116593861Y-71206300D01*
X116793861Y-70886300D02*
X116793861Y-70726300D01*
X117255006Y-71048189D02*
G75*
G02*
X117317617Y-71059031I-4494J-212155D01*
G01*
X117343126Y-71085636D02*
G75*
G02*
X117346643Y-71136300I-116868J-33567D01*
G01*
X117340971Y-71844359D02*
G75*
G02*
X117305861Y-71873669I-48824J22802D01*
G01*
X116973861Y-70526300D02*
X116593861Y-70526300D01*
X117225787Y-70528017D02*
X116973861Y-70526300D01*
X117225787Y-70528017D02*
G75*
G02*
X117305861Y-70538932I-4531J-332412D01*
G01*
X117305861Y-70538931D02*
G75*
G02*
X117340971Y-70568241I-13714J-52113D01*
G01*
X117344192Y-70684073D02*
G75*
G02*
X117315861Y-70712729I-43974J15142D01*
G01*
X116793861Y-71468128D02*
X116793861Y-71249956D01*
X116793861Y-71686300D02*
X116793861Y-71468128D01*
X117073861Y-70726300D02*
X117253284Y-70724291D01*
X116793861Y-70726300D02*
X117073861Y-70726300D01*
X117076643Y-71046300D02*
X116793861Y-71046300D01*
X117346643Y-71136301D02*
G75*
G02*
X117328287Y-71185655I-122191J17354D01*
G01*
X117328287Y-71185655D02*
G75*
G02*
X117292894Y-71213850I-59253J38067D01*
G01*
X114433861Y-70526300D02*
X114333861Y-70526300D01*
X116793861Y-71249956D02*
X117063861Y-71238128D01*
X117253284Y-71688310D02*
X117073861Y-71686300D01*
X116593861Y-71886300D02*
X116973861Y-71886300D01*
X117340971Y-70568241D02*
G75*
G02*
X117353861Y-70626300I-124312J-58059D01*
G01*
X117315860Y-70712729D02*
G75*
G02*
X117253284Y-70724291I-67039J187711D01*
G01*
X116593861Y-71206300D02*
X116593861Y-71886300D01*
X114233861Y-70526300D02*
X114234010Y-71036300D01*
X117344192Y-71728527D02*
G75*
G02*
X117353861Y-71786300I-167770J-57773D01*
G01*
X117353861Y-71786301D02*
G75*
G02*
X117340971Y-71844360I-137202J0D01*
G01*
X116973861Y-71886300D02*
X117225787Y-71884584D01*
X117317616Y-71059031D02*
G75*
G02*
X117343126Y-71085636I-12508J-37525D01*
G01*
X117292894Y-71213851D02*
G75*
G02*
X117223577Y-71228643I-88953J247030D01*
G01*
X117073861Y-71686300D02*
X116793861Y-71686300D01*
X117253285Y-71688310D02*
G75*
G02*
X117315861Y-71699872I-4464J-199273D01*
G01*
X117315861Y-71699872D02*
G75*
G02*
X117344192Y-71728528I-15643J-43798D01*
G01*
X117305861Y-71873669D02*
G75*
G02*
X117225787Y-71884584I-84605J321497D01*
G01*
X112293861Y-71866300D02*
X112304828Y-71196300D01*
X114433861Y-71028119D02*
X114433861Y-70526300D01*
X114976265Y-71574150D02*
G75*
G02*
X114903156Y-71658607I-156178J61321D01*
G01*
X114436157Y-71346354D02*
X114433861Y-71028119D01*
X114447951Y-71475143D02*
G75*
G02*
X114436157Y-71346354I829939J140941D01*
G01*
X114903156Y-71658607D02*
G75*
G02*
X114765976Y-71709877I-227164J398653D01*
G01*
X114536512Y-71632588D02*
G75*
G02*
X114477351Y-71555962I268289J268289D01*
G01*
X115050689Y-70591233D02*
G75*
G02*
X115080976Y-70544537I75986J-16115D01*
G01*
X115233861Y-71010255D02*
X115233861Y-70526300D01*
X115222820Y-71369558D02*
G75*
G02*
X115182986Y-71588998I-944363J58091D01*
G01*
X115106171Y-71731933D02*
G75*
G02*
X114981520Y-71832682I-307678J253186D01*
G01*
X114594784Y-71683833D02*
G75*
G02*
X114536512Y-71632588I370127J479644D01*
G01*
X114643908Y-71710102D02*
G75*
G02*
X114594785Y-71683833I53752J159584D01*
G01*
X111471493Y-70535337D02*
G75*
G02*
X111500014Y-70562300I-13915J-43285D01*
G01*
X111511994Y-71774712D02*
X111513861Y-71566300D01*
X114473830Y-71846283D02*
G75*
G02*
X114354640Y-71747248I182313J340655D01*
G01*
X114477351Y-71555962D02*
G75*
G02*
X114447952Y-71475142I206527J120885D01*
G01*
X115037439Y-70699422D02*
G75*
G02*
X115050689Y-70591233I626068J-21774D01*
G01*
X111793861Y-71246300D02*
X112073861Y-71246300D01*
X114863826Y-71874524D02*
G75*
G02*
X114720972Y-71891222I-164387J786979D01*
G01*
X114581260Y-71882260D02*
G75*
G02*
X114473830Y-71846284I52187J334223D01*
G01*
X114765976Y-71709877D02*
G75*
G02*
X114696703Y-71717875I-83030J415153D01*
G01*
X115233861Y-70526300D02*
X115137039Y-70526300D01*
X111793861Y-71046300D02*
X111513861Y-71046300D01*
X112073861Y-71046300D02*
X111793861Y-71046300D01*
X112073861Y-70786300D02*
X112073861Y-71046300D01*
X112073861Y-71568957D02*
X112073861Y-71891614D01*
X115182986Y-71588999D02*
G75*
G02*
X115106171Y-71731933I-399452J122563D01*
G01*
X111513861Y-71246300D02*
X111793861Y-71246300D01*
X111471805Y-71875350D02*
G75*
G02*
X111413861Y-71886300I-57945J147841D01*
G01*
X111513861Y-71046300D02*
X111513861Y-70786300D01*
X112315795Y-70526300D02*
X112194828Y-70526300D01*
X112073861Y-71246300D02*
X112073861Y-71568957D01*
X111413861Y-70526301D02*
G75*
G02*
X111471494Y-70535337I0J-188304D01*
G01*
X111513861Y-71566300D02*
X111513861Y-71246300D01*
X115011147Y-71416068D02*
G75*
G02*
X114976265Y-71574151I-516840J31153D01*
G01*
X115027039Y-71044986D02*
X115011146Y-71416068D01*
X115037438Y-70699422D02*
X115027039Y-71044986D01*
X114981520Y-71832682D02*
G75*
G02*
X114863826Y-71874525I-212115J410186D01*
G01*
X115222820Y-71369559D02*
X115233861Y-71010255D01*
X114234010Y-71036300D02*
X114244356Y-71393253D01*
X114720972Y-71891222D02*
G75*
G02*
X114581260Y-71882261I-20666J771369D01*
G01*
X111313861Y-70526300D02*
X111313861Y-71206300D01*
X111413861Y-70526300D02*
X111313861Y-70526300D01*
X112073861Y-70526300D02*
X112073861Y-70786300D01*
X112304828Y-71196300D02*
X112315795Y-70526300D01*
X111500014Y-70562301D02*
G75*
G02*
X111511760Y-70621359I-165276J-63567D01*
G01*
X115080976Y-70544537D02*
G75*
G02*
X115137039Y-70526300I56063J-77056D01*
G01*
X114354640Y-71747248D02*
G75*
G02*
X114281824Y-71607968I318301J255082D01*
G01*
X111513861Y-70786300D02*
X111511760Y-70621359D01*
X112194828Y-70526300D02*
X112073861Y-70526300D01*
X112073861Y-71891614D02*
X112183861Y-71878957D01*
X111511994Y-71774712D02*
G75*
G02*
X111500736Y-71844300I-248167J4445D01*
G01*
X111500736Y-71844301D02*
G75*
G02*
X111471805Y-71875351I-46837J14637D01*
G01*
X112183861Y-71878957D02*
X112293861Y-71866300D01*
X114696703Y-71717875D02*
G75*
G02*
X114643908Y-71710101I-4877J150037D01*
G01*
X114281823Y-71607967D02*
G75*
G02*
X114244356Y-71393253I909900J269401D01*
G01*
X110830589Y-64283957D02*
X111821340Y-64871998D01*
X109547368Y-63546734D02*
X110116258Y-63869695D01*
X109440145Y-63565801D02*
G75*
G02*
X109489492Y-63542442I178641J-313574D01*
G01*
X108811635Y-63924039D02*
X109440146Y-63565801D01*
X108102288Y-64329772D02*
X108811635Y-63924039D01*
X107272450Y-64806744D02*
X108102288Y-64329772D01*
X106364657Y-65325641D02*
X107272450Y-64806744D01*
X104844632Y-66004738D02*
G75*
G02*
X104716820Y-65889877I159626J306165D01*
G01*
X104660452Y-65727940D02*
G75*
G02*
X104688131Y-65556300I360625J29896D01*
G01*
X105958668Y-64728660D02*
X105275531Y-65124054D01*
X105666615Y-65715220D02*
X106364657Y-65325641D01*
X105099792Y-66024585D02*
X105666615Y-65715220D01*
X108309188Y-63378660D02*
X107786888Y-63678730D01*
X105014248Y-66046300D02*
G75*
G02*
X104844631Y-66004738I0J366887D01*
G01*
X104716820Y-65889877D02*
G75*
G02*
X104660452Y-65727941I285954J190316D01*
G01*
X105275531Y-65124054D02*
X104947353Y-65326521D01*
X107786888Y-63678730D02*
X107150400Y-64044321D01*
X104688131Y-65556300D02*
G75*
G02*
X104762041Y-65459592I226267J-96329D01*
G01*
X103445354Y-66327307D02*
G75*
G02*
X103973957Y-66284613I741941J-5892458D01*
G01*
X105031363Y-66262933D02*
X103973957Y-66284613D01*
X108791280Y-66246300D02*
X105031363Y-66262933D01*
X110116258Y-63869695D02*
X110830589Y-64283957D01*
X104762041Y-65459593D02*
G75*
G02*
X104947353Y-65326521I1557186J-1972938D01*
G01*
X114088699Y-66226300D02*
X108791280Y-66246300D01*
X111821340Y-64871998D02*
X114088699Y-66226300D01*
X109489492Y-63542441D02*
G75*
G02*
X109547368Y-63546734I24384J-63545D01*
G01*
X105099792Y-66024585D02*
G75*
G02*
X105014248Y-66046300I-85544J157635D01*
G01*
X107150400Y-64044321D02*
X106506329Y-64414208D01*
X106506329Y-64414208D02*
X105958668Y-64728660D01*
X115597497Y-66966300D02*
X115695679Y-66868119D01*
X112837610Y-64637905D02*
X110253715Y-63084216D01*
X116280137Y-68875180D02*
G75*
G02*
X116441867Y-68710499I1266897J-1082436D01*
G01*
X103836937Y-72209377D02*
X103953861Y-72092454D01*
X116597138Y-68604628D02*
G75*
G02*
X116782879Y-68526740I613384J-1202333D01*
G01*
X103244282Y-67211077D02*
X103236277Y-68087902D01*
X116441866Y-68710499D02*
G75*
G02*
X116597138Y-68604628I493232J-556583D01*
G01*
X115607447Y-69662356D02*
X115694207Y-69771163D01*
X109466506Y-62739915D02*
G75*
G02*
X109521175Y-62726300I54669J-102954D01*
G01*
X109725847Y-62791597D02*
X109671210Y-62766603D01*
X115579676Y-66290050D02*
G75*
G02*
X115703861Y-66391963I-287460J-476900D01*
G01*
X103717177Y-72297138D02*
G75*
G02*
X103593861Y-72327277I-123317J237209D01*
G01*
X115767686Y-66760711D02*
G75*
G02*
X115695679Y-66868119I-308177J128762D01*
G01*
X103953861Y-72092454D02*
X103953861Y-69529377D01*
X103236277Y-68087902D02*
X103233861Y-69306748D01*
X103836937Y-72209377D02*
G75*
G02*
X103717177Y-72297138I-344453J344452D01*
G01*
X108749874Y-63128626D02*
X108309188Y-63378660D01*
X115694207Y-69771163D02*
X115914034Y-69404142D01*
X115492474Y-68816723D02*
G75*
G02*
X115739153Y-68419588I1010445J-352454D01*
G01*
X103233861Y-69306748D02*
X103233861Y-72092454D01*
X103593860Y-72327277D02*
G75*
G02*
X103470544Y-72297138I1J267348D01*
G01*
X115703860Y-66391963D02*
G75*
G02*
X115772131Y-66503567I-256276J-233454D01*
G01*
X103233861Y-72092454D02*
X103350784Y-72209377D01*
X109133532Y-62917931D02*
X108749874Y-63128626D01*
X110253715Y-63084216D02*
X109725847Y-62791597D01*
X103953861Y-69529377D02*
X103953861Y-66966300D01*
X103953861Y-66966300D02*
X109775679Y-66966300D01*
X109671210Y-62766603D02*
X109612919Y-62745481D01*
X115899903Y-69743352D02*
X115779839Y-69917253D01*
X116007632Y-69571245D02*
X115899903Y-69743352D01*
X115739153Y-68419588D02*
G75*
G02*
X116122732Y-68185089I658666J-646440D01*
G01*
X109466506Y-62739915D02*
X109133532Y-62917931D01*
X115772132Y-66503567D02*
G75*
G02*
X115794461Y-66632881I-328375J-123288D01*
G01*
X115579676Y-66290050D02*
X112837610Y-64637905D01*
X103274777Y-66444587D02*
G75*
G02*
X103445354Y-66327306I198736J-106361D01*
G01*
X103470544Y-72297138D02*
G75*
G02*
X103350784Y-72209377I224693J432213D01*
G01*
X103255229Y-66519768D02*
X103244282Y-67211077D01*
X116211439Y-69246683D02*
X116007632Y-69571245D01*
X116211438Y-69246683D02*
G75*
G02*
X116388042Y-69009548I2276472J-1511046D01*
G01*
X115794461Y-66632882D02*
G75*
G02*
X115767685Y-66760711I-346992J5964D01*
G01*
X116388042Y-69009548D02*
G75*
G02*
X116552155Y-68838346I1302942J-1084727D01*
G01*
X116106501Y-69102685D02*
G75*
G02*
X116280137Y-68875181I2147989J-1459386D01*
G01*
X116552156Y-68838346D02*
G75*
G02*
X116716130Y-68720219I605944J-668253D01*
G01*
X109775679Y-66966300D02*
X115597497Y-66966300D01*
X116869174Y-68615455D02*
G75*
G02*
X116716130Y-68720219I-668621J812581D01*
G01*
X116782879Y-68526741D02*
G75*
G02*
X116871992Y-68547067I27855J-83387D01*
G01*
X115914034Y-69404142D02*
X116106500Y-69102684D01*
X115443292Y-69270065D02*
G75*
G02*
X115492474Y-68816723I1003480J120474D01*
G01*
X109521175Y-62726301D02*
G75*
G02*
X109559332Y-62730699I0J-167717D01*
G01*
X103255229Y-66519768D02*
G75*
G02*
X103274777Y-66444588I165393J-2873D01*
G01*
X109612919Y-62745481D02*
X109559332Y-62730699D01*
X115607447Y-69662356D02*
G75*
G02*
X115443293Y-69270065I608280J485026D01*
G01*
X116871993Y-68547066D02*
G75*
G02*
X116869174Y-68615455I-31993J-32934D01*
G01*
X120142000Y-37338000D02*
X163342000Y-37338000D01*
X120142000Y-37338000D02*
X120142000Y-58338000D01*
X163342000Y-58338000D02*
X120142000Y-58338000D01*
X163342000Y-58338000D02*
X163342000Y-37338000D01*
X141700000Y-72490000D02*
X141700000Y-69750000D01*
X141700000Y-69750000D02*
X135160000Y-69750000D01*
X135160000Y-69750000D02*
X135160000Y-72490000D01*
X135160000Y-72490000D02*
X141700000Y-72490000D01*
X142470000Y-71120000D02*
X141700000Y-71120000D01*
X134390000Y-71120000D02*
X135160000Y-71120000D01*
X171990000Y-64670000D02*
X171990000Y-67410000D01*
X171990000Y-67410000D02*
X178530000Y-67410000D01*
X178530000Y-67410000D02*
X178530000Y-64670000D01*
X178530000Y-64670000D02*
X171990000Y-64670000D01*
X171220000Y-66040000D02*
X171990000Y-66040000D01*
X179300000Y-66040000D02*
X178530000Y-66040000D01*
X171990000Y-59590000D02*
X171990000Y-62330000D01*
X171990000Y-62330000D02*
X178530000Y-62330000D01*
X178530000Y-62330000D02*
X178530000Y-59590000D01*
X178530000Y-59590000D02*
X171990000Y-59590000D01*
X171220000Y-60960000D02*
X171990000Y-60960000D01*
X179300000Y-60960000D02*
X178530000Y-60960000D01*
X162680000Y-72430000D02*
X162680000Y-62190000D01*
X146790000Y-72430000D02*
X146790000Y-62190000D01*
X146790000Y-72430000D02*
X162680000Y-72430000D01*
X146790000Y-62190000D02*
X162680000Y-62190000D01*
X162680000Y-69850000D02*
X165220000Y-69850000D01*
X162680000Y-67310000D02*
X165220000Y-67310000D01*
X162680000Y-64770000D02*
X165220000Y-64770000D01*
X175260000Y-36830000D02*
X180340000Y-36830000D01*
X180340000Y-36830000D02*
X180340000Y-46990000D01*
X180340000Y-46990000D02*
X170180000Y-46990000D01*
X170180000Y-46990000D02*
X170180000Y-36830000D01*
X170180000Y-36830000D02*
X175260000Y-36830000D01*
X109220000Y-60960000D02*
X104140000Y-60960000D01*
X104140000Y-60960000D02*
X104140000Y-50800000D01*
X104140000Y-50800000D02*
X114300000Y-50800000D01*
X114300000Y-50800000D02*
X114300000Y-60960000D01*
X114300000Y-60960000D02*
X109220000Y-60960000D01*
X109220000Y-46990000D02*
X104140000Y-46990000D01*
X104140000Y-46990000D02*
X104140000Y-36830000D01*
X104140000Y-36830000D02*
X114300000Y-36830000D01*
X114300000Y-36830000D02*
X114300000Y-46990000D01*
X114300000Y-46990000D02*
X109220000Y-46990000D01*
X138464000Y-66330000D02*
X138620000Y-66330000D01*
X140780000Y-66330000D02*
X140936000Y-66330000D01*
X140779837Y-63728870D02*
G75*
G02*
X140780000Y-65810961I-1079837J-1041130D01*
G01*
X138620163Y-63728870D02*
G75*
G03*
X138620000Y-65810961I1079837J-1041130D01*
G01*
X140778608Y-63097665D02*
G75*
G02*
X140935516Y-66330000I-1078608J-1672335D01*
G01*
X138621392Y-63097665D02*
G75*
G03*
X138464484Y-66330000I1078608J-1672335D01*
G01*
X129720000Y-64970000D02*
X129720000Y-62030000D01*
X129720000Y-62030000D02*
X124280000Y-62030000D01*
X124280000Y-62030000D02*
X124280000Y-64970000D01*
X124280000Y-64970000D02*
X129720000Y-64970000D01*
X130740000Y-63500000D02*
X129720000Y-63500000D01*
X123260000Y-63500000D02*
X124280000Y-63500000D01*
X128820000Y-64970000D02*
X128820000Y-62030000D01*
X128700000Y-64970000D02*
X128700000Y-62030000D01*
X128940000Y-64970000D02*
X128940000Y-62030000D01*
X127620000Y-72490000D02*
X121380000Y-72490000D01*
X127620000Y-69750000D02*
X121380000Y-69750000D01*
X127620000Y-72490000D02*
X127620000Y-72045000D01*
X127620000Y-70195000D02*
X127620000Y-69750000D01*
X121380000Y-72490000D02*
X121380000Y-72045000D01*
X121380000Y-70195000D02*
X121380000Y-69750000D01*
D12*
X121793095Y-35512380D02*
X121793095Y-36321904D01*
X121840714Y-36417142D01*
X121888333Y-36464761D01*
X121983571Y-36512380D01*
X122174047Y-36512380D01*
X122269285Y-36464761D01*
X122316904Y-36417142D01*
X122364523Y-36321904D01*
X122364523Y-35512380D01*
X123364523Y-36512380D02*
X122793095Y-36512380D01*
X123078809Y-36512380D02*
X123078809Y-35512380D01*
X122983571Y-35655238D01*
X122888333Y-35750476D01*
X122793095Y-35798095D01*
X155860952Y-55967380D02*
X156051428Y-55967380D01*
X156146666Y-56015000D01*
X156241904Y-56110238D01*
X156289523Y-56300714D01*
X156289523Y-56634047D01*
X156241904Y-56824523D01*
X156146666Y-56919761D01*
X156051428Y-56967380D01*
X155860952Y-56967380D01*
X155765714Y-56919761D01*
X155670476Y-56824523D01*
X155622857Y-56634047D01*
X155622857Y-56300714D01*
X155670476Y-56110238D01*
X155765714Y-56015000D01*
X155860952Y-55967380D01*
X156718095Y-55967380D02*
X156718095Y-56776904D01*
X156765714Y-56872142D01*
X156813333Y-56919761D01*
X156908571Y-56967380D01*
X157099047Y-56967380D01*
X157194285Y-56919761D01*
X157241904Y-56872142D01*
X157289523Y-56776904D01*
X157289523Y-55967380D01*
X157622857Y-55967380D02*
X158194285Y-55967380D01*
X157908571Y-56967380D02*
X157908571Y-55967380D01*
X158527619Y-56586428D02*
X159289523Y-56586428D01*
X155860952Y-38822380D02*
X156051428Y-38822380D01*
X156146666Y-38870000D01*
X156241904Y-38965238D01*
X156289523Y-39155714D01*
X156289523Y-39489047D01*
X156241904Y-39679523D01*
X156146666Y-39774761D01*
X156051428Y-39822380D01*
X155860952Y-39822380D01*
X155765714Y-39774761D01*
X155670476Y-39679523D01*
X155622857Y-39489047D01*
X155622857Y-39155714D01*
X155670476Y-38965238D01*
X155765714Y-38870000D01*
X155860952Y-38822380D01*
X156718095Y-38822380D02*
X156718095Y-39631904D01*
X156765714Y-39727142D01*
X156813333Y-39774761D01*
X156908571Y-39822380D01*
X157099047Y-39822380D01*
X157194285Y-39774761D01*
X157241904Y-39727142D01*
X157289523Y-39631904D01*
X157289523Y-38822380D01*
X157622857Y-38822380D02*
X158194285Y-38822380D01*
X157908571Y-39822380D02*
X157908571Y-38822380D01*
X158527619Y-39441428D02*
X159289523Y-39441428D01*
X158908571Y-39822380D02*
X158908571Y-39060476D01*
X125222142Y-56967380D02*
X125222142Y-55967380D01*
X125698333Y-56967380D02*
X125698333Y-55967380D01*
X126269761Y-56967380D01*
X126269761Y-55967380D01*
X126745952Y-56586428D02*
X127507857Y-56586428D01*
X125222142Y-39822380D02*
X125222142Y-38822380D01*
X125698333Y-39822380D02*
X125698333Y-38822380D01*
X126269761Y-39822380D01*
X126269761Y-38822380D01*
X126745952Y-39441428D02*
X127507857Y-39441428D01*
X127126904Y-39822380D02*
X127126904Y-39060476D01*
X138263333Y-73942380D02*
X137930000Y-73466190D01*
X137691904Y-73942380D02*
X137691904Y-72942380D01*
X138072857Y-72942380D01*
X138168095Y-72990000D01*
X138215714Y-73037619D01*
X138263333Y-73132857D01*
X138263333Y-73275714D01*
X138215714Y-73370952D01*
X138168095Y-73418571D01*
X138072857Y-73466190D01*
X137691904Y-73466190D01*
X138596666Y-72942380D02*
X139215714Y-72942380D01*
X138882380Y-73323333D01*
X139025238Y-73323333D01*
X139120476Y-73370952D01*
X139168095Y-73418571D01*
X139215714Y-73513809D01*
X139215714Y-73751904D01*
X139168095Y-73847142D01*
X139120476Y-73894761D01*
X139025238Y-73942380D01*
X138739523Y-73942380D01*
X138644285Y-73894761D01*
X138596666Y-73847142D01*
X175093333Y-64122380D02*
X174760000Y-63646190D01*
X174521904Y-64122380D02*
X174521904Y-63122380D01*
X174902857Y-63122380D01*
X174998095Y-63170000D01*
X175045714Y-63217619D01*
X175093333Y-63312857D01*
X175093333Y-63455714D01*
X175045714Y-63550952D01*
X174998095Y-63598571D01*
X174902857Y-63646190D01*
X174521904Y-63646190D01*
X175474285Y-63217619D02*
X175521904Y-63170000D01*
X175617142Y-63122380D01*
X175855238Y-63122380D01*
X175950476Y-63170000D01*
X175998095Y-63217619D01*
X176045714Y-63312857D01*
X176045714Y-63408095D01*
X175998095Y-63550952D01*
X175426666Y-64122380D01*
X176045714Y-64122380D01*
X175093333Y-59042380D02*
X174760000Y-58566190D01*
X174521904Y-59042380D02*
X174521904Y-58042380D01*
X174902857Y-58042380D01*
X174998095Y-58090000D01*
X175045714Y-58137619D01*
X175093333Y-58232857D01*
X175093333Y-58375714D01*
X175045714Y-58470952D01*
X174998095Y-58518571D01*
X174902857Y-58566190D01*
X174521904Y-58566190D01*
X176045714Y-59042380D02*
X175474285Y-59042380D01*
X175760000Y-59042380D02*
X175760000Y-58042380D01*
X175664761Y-58185238D01*
X175569523Y-58280476D01*
X175474285Y-58328095D01*
X147224761Y-61507619D02*
X147129523Y-61460000D01*
X147034285Y-61364761D01*
X146891428Y-61221904D01*
X146796190Y-61174285D01*
X146700952Y-61174285D01*
X146748571Y-61412380D02*
X146653333Y-61364761D01*
X146558095Y-61269523D01*
X146510476Y-61079047D01*
X146510476Y-60745714D01*
X146558095Y-60555238D01*
X146653333Y-60460000D01*
X146748571Y-60412380D01*
X146939047Y-60412380D01*
X147034285Y-60460000D01*
X147129523Y-60555238D01*
X147177142Y-60745714D01*
X147177142Y-61079047D01*
X147129523Y-61269523D01*
X147034285Y-61364761D01*
X146939047Y-61412380D01*
X146748571Y-61412380D01*
X148129523Y-61412380D02*
X147558095Y-61412380D01*
X147843809Y-61412380D02*
X147843809Y-60412380D01*
X147748571Y-60555238D01*
X147653333Y-60650476D01*
X147558095Y-60698095D01*
X179371666Y-47712380D02*
X179371666Y-48426666D01*
X179324047Y-48569523D01*
X179228809Y-48664761D01*
X179085952Y-48712380D01*
X178990714Y-48712380D01*
X180276428Y-48045714D02*
X180276428Y-48712380D01*
X180038333Y-47664761D02*
X179800238Y-48379047D01*
X180419285Y-48379047D01*
X104441666Y-61682380D02*
X104441666Y-62396666D01*
X104394047Y-62539523D01*
X104298809Y-62634761D01*
X104155952Y-62682380D01*
X104060714Y-62682380D01*
X104822619Y-61682380D02*
X105441666Y-61682380D01*
X105108333Y-62063333D01*
X105251190Y-62063333D01*
X105346428Y-62110952D01*
X105394047Y-62158571D01*
X105441666Y-62253809D01*
X105441666Y-62491904D01*
X105394047Y-62587142D01*
X105346428Y-62634761D01*
X105251190Y-62682380D01*
X104965476Y-62682380D01*
X104870238Y-62634761D01*
X104822619Y-62587142D01*
X171116666Y-51522380D02*
X171116666Y-52236666D01*
X171069047Y-52379523D01*
X170973809Y-52474761D01*
X170830952Y-52522380D01*
X170735714Y-52522380D01*
X171545238Y-51617619D02*
X171592857Y-51570000D01*
X171688095Y-51522380D01*
X171926190Y-51522380D01*
X172021428Y-51570000D01*
X172069047Y-51617619D01*
X172116666Y-51712857D01*
X172116666Y-51808095D01*
X172069047Y-51950952D01*
X171497619Y-52522380D01*
X172116666Y-52522380D01*
X104441666Y-47712380D02*
X104441666Y-48426666D01*
X104394047Y-48569523D01*
X104298809Y-48664761D01*
X104155952Y-48712380D01*
X104060714Y-48712380D01*
X105441666Y-48712380D02*
X104870238Y-48712380D01*
X105155952Y-48712380D02*
X105155952Y-47712380D01*
X105060714Y-47855238D01*
X104965476Y-47950476D01*
X104870238Y-47998095D01*
X135786904Y-65222380D02*
X135786904Y-64222380D01*
X136025000Y-64222380D01*
X136167857Y-64270000D01*
X136263095Y-64365238D01*
X136310714Y-64460476D01*
X136358333Y-64650952D01*
X136358333Y-64793809D01*
X136310714Y-64984285D01*
X136263095Y-65079523D01*
X136167857Y-65174761D01*
X136025000Y-65222380D01*
X135786904Y-65222380D01*
X136739285Y-64317619D02*
X136786904Y-64270000D01*
X136882142Y-64222380D01*
X137120238Y-64222380D01*
X137215476Y-64270000D01*
X137263095Y-64317619D01*
X137310714Y-64412857D01*
X137310714Y-64508095D01*
X137263095Y-64650952D01*
X136691666Y-65222380D01*
X137310714Y-65222380D01*
X126261904Y-66422380D02*
X126261904Y-65422380D01*
X126500000Y-65422380D01*
X126642857Y-65470000D01*
X126738095Y-65565238D01*
X126785714Y-65660476D01*
X126833333Y-65850952D01*
X126833333Y-65993809D01*
X126785714Y-66184285D01*
X126738095Y-66279523D01*
X126642857Y-66374761D01*
X126500000Y-66422380D01*
X126261904Y-66422380D01*
X127785714Y-66422380D02*
X127214285Y-66422380D01*
X127500000Y-66422380D02*
X127500000Y-65422380D01*
X127404761Y-65565238D01*
X127309523Y-65660476D01*
X127214285Y-65708095D01*
X131818095Y-66052380D02*
X131818095Y-65052380D01*
X132389523Y-66052380D02*
X131960952Y-65480952D01*
X132389523Y-65052380D02*
X131818095Y-65623809D01*
X124333333Y-73977142D02*
X124285714Y-74024761D01*
X124142857Y-74072380D01*
X124047619Y-74072380D01*
X123904761Y-74024761D01*
X123809523Y-73929523D01*
X123761904Y-73834285D01*
X123714285Y-73643809D01*
X123714285Y-73500952D01*
X123761904Y-73310476D01*
X123809523Y-73215238D01*
X123904761Y-73120000D01*
X124047619Y-73072380D01*
X124142857Y-73072380D01*
X124285714Y-73120000D01*
X124333333Y-73167619D01*
X125285714Y-74072380D02*
X124714285Y-74072380D01*
X125000000Y-74072380D02*
X125000000Y-73072380D01*
X124904761Y-73215238D01*
X124809523Y-73310476D01*
X124714285Y-73358095D01*
%LPC*%
D13*
X161420000Y-56470000D03*
X161420000Y-39370000D03*
X121920000Y-56470000D03*
X121920000Y-39370000D03*
D14*
X133350000Y-71120000D03*
D15*
X143510000Y-71120000D03*
D14*
X180340000Y-66040000D03*
D15*
X170180000Y-66040000D03*
D14*
X180340000Y-60960000D03*
D15*
X170180000Y-60960000D03*
D16*
X166370000Y-64770000D03*
X166370000Y-67310000D03*
D17*
X166370000Y-69850000D03*
D18*
X149710000Y-67310000D03*
D19*
X175260000Y-44370000D03*
X175260000Y-39370000D03*
X109220000Y-53420000D03*
X109220000Y-58420000D03*
X175260000Y-52070000D03*
X109220000Y-39450000D03*
X109220000Y-44450000D03*
D20*
X139700000Y-63500000D03*
D21*
X139700000Y-66040000D03*
D22*
X121920000Y-63500000D03*
D23*
X132080000Y-63500000D03*
D15*
X122000000Y-71120000D03*
X127000000Y-71120000D03*
M02*
