G04 #@! TF.GenerationSoftware,KiCad,Pcbnew,(5.1.9)-1*
G04 #@! TF.CreationDate,2021-12-30T20:04:45+01:00*
G04 #@! TF.ProjectId,Pumpe,50756d70-652e-46b6-9963-61645f706362,rev?*
G04 #@! TF.SameCoordinates,Original*
G04 #@! TF.FileFunction,Copper,L1,Top*
G04 #@! TF.FilePolarity,Positive*
%FSLAX46Y46*%
G04 Gerber Fmt 4.6, Leading zero omitted, Abs format (unit mm)*
G04 Created by KiCad (PCBNEW (5.1.9)-1) date 2021-12-30 20:04:45*
%MOMM*%
%LPD*%
G01*
G04 APERTURE LIST*
G04 #@! TA.AperFunction,ComponentPad*
%ADD10C,2.000000*%
G04 #@! TD*
G04 #@! TA.AperFunction,ComponentPad*
%ADD11O,1.600000X1.600000*%
G04 #@! TD*
G04 #@! TA.AperFunction,ComponentPad*
%ADD12C,1.600000*%
G04 #@! TD*
G04 #@! TA.AperFunction,ComponentPad*
%ADD13O,2.000000X1.905000*%
G04 #@! TD*
G04 #@! TA.AperFunction,ComponentPad*
%ADD14R,2.000000X1.905000*%
G04 #@! TD*
G04 #@! TA.AperFunction,ComponentPad*
%ADD15C,3.000000*%
G04 #@! TD*
G04 #@! TA.AperFunction,ComponentPad*
%ADD16C,1.800000*%
G04 #@! TD*
G04 #@! TA.AperFunction,ComponentPad*
%ADD17R,1.800000X1.800000*%
G04 #@! TD*
G04 #@! TA.AperFunction,ComponentPad*
%ADD18O,2.200000X2.200000*%
G04 #@! TD*
G04 #@! TA.AperFunction,ComponentPad*
%ADD19R,2.200000X2.200000*%
G04 #@! TD*
G04 #@! TA.AperFunction,Conductor*
%ADD20C,1.600000*%
G04 #@! TD*
G04 #@! TA.AperFunction,Conductor*
%ADD21C,0.254000*%
G04 #@! TD*
G04 #@! TA.AperFunction,Conductor*
%ADD22C,0.200000*%
G04 #@! TD*
G04 APERTURE END LIST*
D10*
X161420000Y-56470000D03*
X161420000Y-39370000D03*
X121920000Y-56470000D03*
X121920000Y-39370000D03*
D11*
X133350000Y-71120000D03*
D12*
X143510000Y-71120000D03*
D11*
X180340000Y-66040000D03*
D12*
X170180000Y-66040000D03*
D11*
X180340000Y-60960000D03*
D12*
X170180000Y-60960000D03*
D13*
X166370000Y-64770000D03*
X166370000Y-67310000D03*
D14*
X166370000Y-69850000D03*
D15*
X175260000Y-44370000D03*
X175260000Y-39370000D03*
X109220000Y-53420000D03*
X109220000Y-58420000D03*
X175260000Y-52070000D03*
X109220000Y-39450000D03*
X109220000Y-44450000D03*
D16*
X139700000Y-63500000D03*
D17*
X139700000Y-66040000D03*
D18*
X121920000Y-63500000D03*
D19*
X132080000Y-63500000D03*
D12*
X122000000Y-71120000D03*
X127000000Y-71120000D03*
D20*
X116840000Y-58420000D02*
X121920000Y-63500000D01*
X109220000Y-58420000D02*
X116840000Y-58420000D01*
X121920000Y-71040000D02*
X122000000Y-71120000D01*
X121920000Y-63500000D02*
X121920000Y-71040000D01*
X163770000Y-67310000D02*
X166370000Y-67310000D01*
X122000000Y-72470000D02*
X123190000Y-73660000D01*
X157420000Y-73660000D02*
X163770000Y-67310000D01*
X122000000Y-71120000D02*
X122000000Y-72470000D01*
X133350000Y-71120000D02*
X133350000Y-73660000D01*
X133350000Y-73660000D02*
X157420000Y-73660000D01*
X123190000Y-73660000D02*
X133350000Y-73660000D01*
X121840000Y-39450000D02*
X121920000Y-39370000D01*
X139700000Y-67310000D02*
X143510000Y-71120000D01*
X139700000Y-66040000D02*
X139700000Y-67310000D01*
X170180000Y-57150000D02*
X175260000Y-52070000D01*
X170180000Y-60960000D02*
X170180000Y-57150000D01*
X161420000Y-56470000D02*
X161420000Y-51940000D01*
X168990000Y-44370000D02*
X175260000Y-44370000D01*
X161420000Y-51940000D02*
X168990000Y-44370000D01*
X161420000Y-39370000D02*
X175260000Y-39370000D01*
X176530000Y-69850000D02*
X180340000Y-66040000D01*
X166370000Y-69850000D02*
X176530000Y-69850000D01*
X180340000Y-60960000D02*
X180340000Y-66040000D01*
D21*
X124333000Y-38152606D02*
X124333000Y-59690000D01*
X124335440Y-59714776D01*
X124342667Y-59738601D01*
X124354403Y-59760557D01*
X124370197Y-59779803D01*
X125640197Y-61049803D01*
X125659443Y-61065597D01*
X125681399Y-61077333D01*
X125705224Y-61084560D01*
X125730000Y-61087000D01*
X140917394Y-61087000D01*
X142113000Y-62282606D01*
X142113000Y-67693605D01*
X141238072Y-66818677D01*
X141238072Y-65140000D01*
X141225812Y-65015518D01*
X141189502Y-64895820D01*
X141130537Y-64785506D01*
X141051185Y-64688815D01*
X140954494Y-64609463D01*
X140844180Y-64550498D01*
X140833265Y-64547187D01*
X140880030Y-64500422D01*
X140764082Y-64384474D01*
X141018261Y-64300792D01*
X141149158Y-64028225D01*
X141224365Y-63735358D01*
X141240991Y-63433447D01*
X141198397Y-63134093D01*
X141098222Y-62848801D01*
X141018261Y-62699208D01*
X140764080Y-62615525D01*
X139879605Y-63500000D01*
X139893748Y-63514143D01*
X139714143Y-63693748D01*
X139700000Y-63679605D01*
X139685858Y-63693748D01*
X139506253Y-63514143D01*
X139520395Y-63500000D01*
X138635920Y-62615525D01*
X138381739Y-62699208D01*
X138250842Y-62971775D01*
X138175635Y-63264642D01*
X138159009Y-63566553D01*
X138201603Y-63865907D01*
X138301778Y-64151199D01*
X138381739Y-64300792D01*
X138635918Y-64384474D01*
X138519970Y-64500422D01*
X138566735Y-64547187D01*
X138555820Y-64550498D01*
X138445506Y-64609463D01*
X138348815Y-64688815D01*
X138269463Y-64785506D01*
X138210498Y-64895820D01*
X138174188Y-65015518D01*
X138161928Y-65140000D01*
X138161928Y-66940000D01*
X138174188Y-67064482D01*
X138210498Y-67184180D01*
X138261121Y-67278888D01*
X138258057Y-67310000D01*
X138265000Y-67380492D01*
X138285764Y-67591309D01*
X138367818Y-67861808D01*
X138501069Y-68111101D01*
X138680393Y-68329608D01*
X138735155Y-68374550D01*
X142113000Y-71752396D01*
X142113000Y-72225000D01*
X134785000Y-72225000D01*
X134785000Y-70978665D01*
X134771179Y-70909183D01*
X134764236Y-70838691D01*
X134743673Y-70770903D01*
X134729853Y-70701426D01*
X134702747Y-70635986D01*
X134682182Y-70568192D01*
X134648786Y-70505712D01*
X134621680Y-70440273D01*
X134582328Y-70381378D01*
X134548932Y-70318899D01*
X134503991Y-70264138D01*
X134464637Y-70205241D01*
X134414544Y-70155148D01*
X134369607Y-70100392D01*
X134314851Y-70055455D01*
X134264759Y-70005363D01*
X134205858Y-69966007D01*
X134151100Y-69921068D01*
X134088626Y-69887675D01*
X134029727Y-69848320D01*
X133964284Y-69821213D01*
X133901807Y-69787818D01*
X133834017Y-69767254D01*
X133768574Y-69740147D01*
X133699094Y-69726326D01*
X133631308Y-69705764D01*
X133560818Y-69698821D01*
X133491335Y-69685000D01*
X133420492Y-69685000D01*
X133350000Y-69678057D01*
X133279508Y-69685000D01*
X133208665Y-69685000D01*
X133139183Y-69698821D01*
X133068691Y-69705764D01*
X133000903Y-69726327D01*
X132931426Y-69740147D01*
X132865986Y-69767253D01*
X132798192Y-69787818D01*
X132735712Y-69821214D01*
X132670273Y-69848320D01*
X132611378Y-69887672D01*
X132548899Y-69921068D01*
X132494138Y-69966009D01*
X132435241Y-70005363D01*
X132385150Y-70055454D01*
X132330392Y-70100393D01*
X132285457Y-70155147D01*
X132235363Y-70205241D01*
X132196007Y-70264142D01*
X132151068Y-70318900D01*
X132117675Y-70381374D01*
X132078320Y-70440273D01*
X132051213Y-70505716D01*
X132017818Y-70568193D01*
X131997254Y-70635983D01*
X131970147Y-70701426D01*
X131956326Y-70770906D01*
X131935764Y-70838692D01*
X131928821Y-70909182D01*
X131915000Y-70978665D01*
X131915000Y-72225000D01*
X127780148Y-72225000D01*
X127813097Y-72112702D01*
X127000000Y-71299605D01*
X126186903Y-72112702D01*
X126219852Y-72225000D01*
X123784396Y-72225000D01*
X123435000Y-71875605D01*
X123435000Y-71190512D01*
X125559783Y-71190512D01*
X125601213Y-71470130D01*
X125696397Y-71736292D01*
X125763329Y-71861514D01*
X126007298Y-71933097D01*
X126820395Y-71120000D01*
X127179605Y-71120000D01*
X127992702Y-71933097D01*
X128236671Y-71861514D01*
X128357571Y-71606004D01*
X128426300Y-71331816D01*
X128440217Y-71049488D01*
X128398787Y-70769870D01*
X128303603Y-70503708D01*
X128236671Y-70378486D01*
X127992702Y-70306903D01*
X127179605Y-71120000D01*
X126820395Y-71120000D01*
X126007298Y-70306903D01*
X125763329Y-70378486D01*
X125642429Y-70633996D01*
X125573700Y-70908184D01*
X125559783Y-71190512D01*
X123435000Y-71190512D01*
X123435000Y-71190491D01*
X123441943Y-71119999D01*
X123435000Y-71049507D01*
X123435000Y-70978665D01*
X123421179Y-70909183D01*
X123414236Y-70838691D01*
X123393673Y-70770904D01*
X123379853Y-70701426D01*
X123355000Y-70641425D01*
X123355000Y-70127298D01*
X126186903Y-70127298D01*
X127000000Y-70940395D01*
X127813097Y-70127298D01*
X127741514Y-69883329D01*
X127486004Y-69762429D01*
X127211816Y-69693700D01*
X126929488Y-69679783D01*
X126649870Y-69721213D01*
X126383708Y-69816397D01*
X126258486Y-69883329D01*
X126186903Y-70127298D01*
X123355000Y-70127298D01*
X123355000Y-64600000D01*
X130341928Y-64600000D01*
X130354188Y-64724482D01*
X130390498Y-64844180D01*
X130449463Y-64954494D01*
X130528815Y-65051185D01*
X130625506Y-65130537D01*
X130735820Y-65189502D01*
X130855518Y-65225812D01*
X130980000Y-65238072D01*
X131794250Y-65235000D01*
X131953000Y-65076250D01*
X131953000Y-63627000D01*
X132207000Y-63627000D01*
X132207000Y-65076250D01*
X132365750Y-65235000D01*
X133180000Y-65238072D01*
X133304482Y-65225812D01*
X133424180Y-65189502D01*
X133534494Y-65130537D01*
X133631185Y-65051185D01*
X133710537Y-64954494D01*
X133769502Y-64844180D01*
X133805812Y-64724482D01*
X133818072Y-64600000D01*
X133815000Y-63785750D01*
X133656250Y-63627000D01*
X132207000Y-63627000D01*
X131953000Y-63627000D01*
X130503750Y-63627000D01*
X130345000Y-63785750D01*
X130341928Y-64600000D01*
X123355000Y-64600000D01*
X123355000Y-64475289D01*
X123457537Y-64321831D01*
X123588325Y-64006081D01*
X123655000Y-63670883D01*
X123655000Y-63329117D01*
X123588325Y-62993919D01*
X123457537Y-62678169D01*
X123271671Y-62400000D01*
X130341928Y-62400000D01*
X130345000Y-63214250D01*
X130503750Y-63373000D01*
X131953000Y-63373000D01*
X131953000Y-61923750D01*
X132207000Y-61923750D01*
X132207000Y-63373000D01*
X133656250Y-63373000D01*
X133815000Y-63214250D01*
X133817936Y-62435920D01*
X138815525Y-62435920D01*
X139700000Y-63320395D01*
X140584475Y-62435920D01*
X140500792Y-62181739D01*
X140228225Y-62050842D01*
X139935358Y-61975635D01*
X139633447Y-61959009D01*
X139334093Y-62001603D01*
X139048801Y-62101778D01*
X138899208Y-62181739D01*
X138815525Y-62435920D01*
X133817936Y-62435920D01*
X133818072Y-62400000D01*
X133805812Y-62275518D01*
X133769502Y-62155820D01*
X133710537Y-62045506D01*
X133631185Y-61948815D01*
X133534494Y-61869463D01*
X133424180Y-61810498D01*
X133304482Y-61774188D01*
X133180000Y-61761928D01*
X132365750Y-61765000D01*
X132207000Y-61923750D01*
X131953000Y-61923750D01*
X131794250Y-61765000D01*
X130980000Y-61761928D01*
X130855518Y-61774188D01*
X130735820Y-61810498D01*
X130625506Y-61869463D01*
X130528815Y-61948815D01*
X130449463Y-62045506D01*
X130390498Y-62155820D01*
X130354188Y-62275518D01*
X130341928Y-62400000D01*
X123271671Y-62400000D01*
X123267663Y-62394002D01*
X123025998Y-62152337D01*
X122741831Y-61962463D01*
X122426081Y-61831675D01*
X122245064Y-61795669D01*
X117904554Y-57455159D01*
X117859608Y-57400392D01*
X117641101Y-57221068D01*
X117391808Y-57087818D01*
X117121309Y-57005764D01*
X116910492Y-56985000D01*
X116840000Y-56978057D01*
X116769508Y-56985000D01*
X110804346Y-56985000D01*
X110580983Y-56761637D01*
X110231302Y-56527988D01*
X109842756Y-56367047D01*
X109550769Y-56308967D01*
X120285000Y-56308967D01*
X120285000Y-56631033D01*
X120347832Y-56946912D01*
X120471082Y-57244463D01*
X120650013Y-57512252D01*
X120877748Y-57739987D01*
X121145537Y-57918918D01*
X121443088Y-58042168D01*
X121758967Y-58105000D01*
X122081033Y-58105000D01*
X122396912Y-58042168D01*
X122694463Y-57918918D01*
X122962252Y-57739987D01*
X123189987Y-57512252D01*
X123368918Y-57244463D01*
X123492168Y-56946912D01*
X123555000Y-56631033D01*
X123555000Y-56308967D01*
X123492168Y-55993088D01*
X123368918Y-55695537D01*
X123189987Y-55427748D01*
X122962252Y-55200013D01*
X122694463Y-55021082D01*
X122396912Y-54897832D01*
X122081033Y-54835000D01*
X121758967Y-54835000D01*
X121443088Y-54897832D01*
X121145537Y-55021082D01*
X120877748Y-55200013D01*
X120650013Y-55427748D01*
X120471082Y-55695537D01*
X120347832Y-55993088D01*
X120285000Y-56308967D01*
X109550769Y-56308967D01*
X109430279Y-56285000D01*
X109009721Y-56285000D01*
X108597244Y-56367047D01*
X108208698Y-56527988D01*
X107859017Y-56761637D01*
X107561637Y-57059017D01*
X107327988Y-57408698D01*
X107167047Y-57797244D01*
X107085000Y-58209721D01*
X107085000Y-58293000D01*
X106732606Y-58293000D01*
X105537000Y-57097394D01*
X105537000Y-54911653D01*
X107907952Y-54911653D01*
X108063962Y-55227214D01*
X108438745Y-55418020D01*
X108843551Y-55532044D01*
X109262824Y-55564902D01*
X109680451Y-55515334D01*
X110080383Y-55385243D01*
X110376038Y-55227214D01*
X110532048Y-54911653D01*
X109220000Y-53599605D01*
X107907952Y-54911653D01*
X105537000Y-54911653D01*
X105537000Y-53462824D01*
X107075098Y-53462824D01*
X107124666Y-53880451D01*
X107254757Y-54280383D01*
X107412786Y-54576038D01*
X107728347Y-54732048D01*
X109040395Y-53420000D01*
X109399605Y-53420000D01*
X110711653Y-54732048D01*
X111027214Y-54576038D01*
X111218020Y-54201255D01*
X111332044Y-53796449D01*
X111364902Y-53377176D01*
X111315334Y-52959549D01*
X111185243Y-52559617D01*
X111027214Y-52263962D01*
X110711653Y-52107952D01*
X109399605Y-53420000D01*
X109040395Y-53420000D01*
X107728347Y-52107952D01*
X107412786Y-52263962D01*
X107221980Y-52638745D01*
X107107956Y-53043551D01*
X107075098Y-53462824D01*
X105537000Y-53462824D01*
X105537000Y-51928347D01*
X107907952Y-51928347D01*
X109220000Y-53240395D01*
X110532048Y-51928347D01*
X110376038Y-51612786D01*
X110001255Y-51421980D01*
X109596449Y-51307956D01*
X109177176Y-51275098D01*
X108759549Y-51324666D01*
X108359617Y-51454757D01*
X108063962Y-51612786D01*
X107907952Y-51928347D01*
X105537000Y-51928347D01*
X105537000Y-44239721D01*
X107085000Y-44239721D01*
X107085000Y-44660279D01*
X107167047Y-45072756D01*
X107327988Y-45461302D01*
X107561637Y-45810983D01*
X107859017Y-46108363D01*
X108208698Y-46342012D01*
X108597244Y-46502953D01*
X109009721Y-46585000D01*
X109430279Y-46585000D01*
X109842756Y-46502953D01*
X110231302Y-46342012D01*
X110580983Y-46108363D01*
X110878363Y-45810983D01*
X111112012Y-45461302D01*
X111272953Y-45072756D01*
X111355000Y-44660279D01*
X111355000Y-44239721D01*
X111272953Y-43827244D01*
X111112012Y-43438698D01*
X110878363Y-43089017D01*
X110580983Y-42791637D01*
X110231302Y-42557988D01*
X109842756Y-42397047D01*
X109430279Y-42315000D01*
X109009721Y-42315000D01*
X108597244Y-42397047D01*
X108208698Y-42557988D01*
X107859017Y-42791637D01*
X107561637Y-43089017D01*
X107327988Y-43438698D01*
X107167047Y-43827244D01*
X107085000Y-44239721D01*
X105537000Y-44239721D01*
X105537000Y-40941653D01*
X107907952Y-40941653D01*
X108063962Y-41257214D01*
X108438745Y-41448020D01*
X108843551Y-41562044D01*
X109262824Y-41594902D01*
X109680451Y-41545334D01*
X110080383Y-41415243D01*
X110376038Y-41257214D01*
X110532048Y-40941653D01*
X109220000Y-39629605D01*
X107907952Y-40941653D01*
X105537000Y-40941653D01*
X105537000Y-39492824D01*
X107075098Y-39492824D01*
X107124666Y-39910451D01*
X107254757Y-40310383D01*
X107412786Y-40606038D01*
X107728347Y-40762048D01*
X109040395Y-39450000D01*
X109399605Y-39450000D01*
X110711653Y-40762048D01*
X111027214Y-40606038D01*
X111078443Y-40505413D01*
X120964192Y-40505413D01*
X121059956Y-40769814D01*
X121349571Y-40910704D01*
X121661108Y-40992384D01*
X121982595Y-41011718D01*
X122301675Y-40967961D01*
X122606088Y-40862795D01*
X122780044Y-40769814D01*
X122875808Y-40505413D01*
X121920000Y-39549605D01*
X120964192Y-40505413D01*
X111078443Y-40505413D01*
X111218020Y-40231255D01*
X111332044Y-39826449D01*
X111362909Y-39432595D01*
X120278282Y-39432595D01*
X120322039Y-39751675D01*
X120427205Y-40056088D01*
X120520186Y-40230044D01*
X120784587Y-40325808D01*
X121740395Y-39370000D01*
X122099605Y-39370000D01*
X123055413Y-40325808D01*
X123319814Y-40230044D01*
X123460704Y-39940429D01*
X123542384Y-39628892D01*
X123561718Y-39307405D01*
X123517961Y-38988325D01*
X123412795Y-38683912D01*
X123319814Y-38509956D01*
X123055413Y-38414192D01*
X122099605Y-39370000D01*
X121740395Y-39370000D01*
X120784587Y-38414192D01*
X120520186Y-38509956D01*
X120379296Y-38799571D01*
X120297616Y-39111108D01*
X120278282Y-39432595D01*
X111362909Y-39432595D01*
X111364902Y-39407176D01*
X111315334Y-38989549D01*
X111185243Y-38589617D01*
X111027214Y-38293962D01*
X110907117Y-38234587D01*
X120964192Y-38234587D01*
X121920000Y-39190395D01*
X122875808Y-38234587D01*
X122780044Y-37970186D01*
X122490429Y-37829296D01*
X122178892Y-37747616D01*
X121857405Y-37728282D01*
X121538325Y-37772039D01*
X121233912Y-37877205D01*
X121059956Y-37970186D01*
X120964192Y-38234587D01*
X110907117Y-38234587D01*
X110711653Y-38137952D01*
X109399605Y-39450000D01*
X109040395Y-39450000D01*
X107728347Y-38137952D01*
X107412786Y-38293962D01*
X107221980Y-38668745D01*
X107107956Y-39073551D01*
X107075098Y-39492824D01*
X105537000Y-39492824D01*
X105537000Y-38152606D01*
X105731259Y-37958347D01*
X107907952Y-37958347D01*
X109220000Y-39270395D01*
X110532048Y-37958347D01*
X110376038Y-37642786D01*
X110001255Y-37451980D01*
X109596449Y-37337956D01*
X109177176Y-37305098D01*
X108759549Y-37354666D01*
X108359617Y-37484757D01*
X108063962Y-37642786D01*
X107907952Y-37958347D01*
X105731259Y-37958347D01*
X106732606Y-36957000D01*
X123137394Y-36957000D01*
X124333000Y-38152606D01*
G04 #@! TA.AperFunction,Conductor*
D22*
G36*
X124333000Y-38152606D02*
G01*
X124333000Y-59690000D01*
X124335440Y-59714776D01*
X124342667Y-59738601D01*
X124354403Y-59760557D01*
X124370197Y-59779803D01*
X125640197Y-61049803D01*
X125659443Y-61065597D01*
X125681399Y-61077333D01*
X125705224Y-61084560D01*
X125730000Y-61087000D01*
X140917394Y-61087000D01*
X142113000Y-62282606D01*
X142113000Y-67693605D01*
X141238072Y-66818677D01*
X141238072Y-65140000D01*
X141225812Y-65015518D01*
X141189502Y-64895820D01*
X141130537Y-64785506D01*
X141051185Y-64688815D01*
X140954494Y-64609463D01*
X140844180Y-64550498D01*
X140833265Y-64547187D01*
X140880030Y-64500422D01*
X140764082Y-64384474D01*
X141018261Y-64300792D01*
X141149158Y-64028225D01*
X141224365Y-63735358D01*
X141240991Y-63433447D01*
X141198397Y-63134093D01*
X141098222Y-62848801D01*
X141018261Y-62699208D01*
X140764080Y-62615525D01*
X139879605Y-63500000D01*
X139893748Y-63514143D01*
X139714143Y-63693748D01*
X139700000Y-63679605D01*
X139685858Y-63693748D01*
X139506253Y-63514143D01*
X139520395Y-63500000D01*
X138635920Y-62615525D01*
X138381739Y-62699208D01*
X138250842Y-62971775D01*
X138175635Y-63264642D01*
X138159009Y-63566553D01*
X138201603Y-63865907D01*
X138301778Y-64151199D01*
X138381739Y-64300792D01*
X138635918Y-64384474D01*
X138519970Y-64500422D01*
X138566735Y-64547187D01*
X138555820Y-64550498D01*
X138445506Y-64609463D01*
X138348815Y-64688815D01*
X138269463Y-64785506D01*
X138210498Y-64895820D01*
X138174188Y-65015518D01*
X138161928Y-65140000D01*
X138161928Y-66940000D01*
X138174188Y-67064482D01*
X138210498Y-67184180D01*
X138261121Y-67278888D01*
X138258057Y-67310000D01*
X138265000Y-67380492D01*
X138285764Y-67591309D01*
X138367818Y-67861808D01*
X138501069Y-68111101D01*
X138680393Y-68329608D01*
X138735155Y-68374550D01*
X142113000Y-71752396D01*
X142113000Y-72225000D01*
X134785000Y-72225000D01*
X134785000Y-70978665D01*
X134771179Y-70909183D01*
X134764236Y-70838691D01*
X134743673Y-70770903D01*
X134729853Y-70701426D01*
X134702747Y-70635986D01*
X134682182Y-70568192D01*
X134648786Y-70505712D01*
X134621680Y-70440273D01*
X134582328Y-70381378D01*
X134548932Y-70318899D01*
X134503991Y-70264138D01*
X134464637Y-70205241D01*
X134414544Y-70155148D01*
X134369607Y-70100392D01*
X134314851Y-70055455D01*
X134264759Y-70005363D01*
X134205858Y-69966007D01*
X134151100Y-69921068D01*
X134088626Y-69887675D01*
X134029727Y-69848320D01*
X133964284Y-69821213D01*
X133901807Y-69787818D01*
X133834017Y-69767254D01*
X133768574Y-69740147D01*
X133699094Y-69726326D01*
X133631308Y-69705764D01*
X133560818Y-69698821D01*
X133491335Y-69685000D01*
X133420492Y-69685000D01*
X133350000Y-69678057D01*
X133279508Y-69685000D01*
X133208665Y-69685000D01*
X133139183Y-69698821D01*
X133068691Y-69705764D01*
X133000903Y-69726327D01*
X132931426Y-69740147D01*
X132865986Y-69767253D01*
X132798192Y-69787818D01*
X132735712Y-69821214D01*
X132670273Y-69848320D01*
X132611378Y-69887672D01*
X132548899Y-69921068D01*
X132494138Y-69966009D01*
X132435241Y-70005363D01*
X132385150Y-70055454D01*
X132330392Y-70100393D01*
X132285457Y-70155147D01*
X132235363Y-70205241D01*
X132196007Y-70264142D01*
X132151068Y-70318900D01*
X132117675Y-70381374D01*
X132078320Y-70440273D01*
X132051213Y-70505716D01*
X132017818Y-70568193D01*
X131997254Y-70635983D01*
X131970147Y-70701426D01*
X131956326Y-70770906D01*
X131935764Y-70838692D01*
X131928821Y-70909182D01*
X131915000Y-70978665D01*
X131915000Y-72225000D01*
X127780148Y-72225000D01*
X127813097Y-72112702D01*
X127000000Y-71299605D01*
X126186903Y-72112702D01*
X126219852Y-72225000D01*
X123784396Y-72225000D01*
X123435000Y-71875605D01*
X123435000Y-71190512D01*
X125559783Y-71190512D01*
X125601213Y-71470130D01*
X125696397Y-71736292D01*
X125763329Y-71861514D01*
X126007298Y-71933097D01*
X126820395Y-71120000D01*
X127179605Y-71120000D01*
X127992702Y-71933097D01*
X128236671Y-71861514D01*
X128357571Y-71606004D01*
X128426300Y-71331816D01*
X128440217Y-71049488D01*
X128398787Y-70769870D01*
X128303603Y-70503708D01*
X128236671Y-70378486D01*
X127992702Y-70306903D01*
X127179605Y-71120000D01*
X126820395Y-71120000D01*
X126007298Y-70306903D01*
X125763329Y-70378486D01*
X125642429Y-70633996D01*
X125573700Y-70908184D01*
X125559783Y-71190512D01*
X123435000Y-71190512D01*
X123435000Y-71190491D01*
X123441943Y-71119999D01*
X123435000Y-71049507D01*
X123435000Y-70978665D01*
X123421179Y-70909183D01*
X123414236Y-70838691D01*
X123393673Y-70770904D01*
X123379853Y-70701426D01*
X123355000Y-70641425D01*
X123355000Y-70127298D01*
X126186903Y-70127298D01*
X127000000Y-70940395D01*
X127813097Y-70127298D01*
X127741514Y-69883329D01*
X127486004Y-69762429D01*
X127211816Y-69693700D01*
X126929488Y-69679783D01*
X126649870Y-69721213D01*
X126383708Y-69816397D01*
X126258486Y-69883329D01*
X126186903Y-70127298D01*
X123355000Y-70127298D01*
X123355000Y-64600000D01*
X130341928Y-64600000D01*
X130354188Y-64724482D01*
X130390498Y-64844180D01*
X130449463Y-64954494D01*
X130528815Y-65051185D01*
X130625506Y-65130537D01*
X130735820Y-65189502D01*
X130855518Y-65225812D01*
X130980000Y-65238072D01*
X131794250Y-65235000D01*
X131953000Y-65076250D01*
X131953000Y-63627000D01*
X132207000Y-63627000D01*
X132207000Y-65076250D01*
X132365750Y-65235000D01*
X133180000Y-65238072D01*
X133304482Y-65225812D01*
X133424180Y-65189502D01*
X133534494Y-65130537D01*
X133631185Y-65051185D01*
X133710537Y-64954494D01*
X133769502Y-64844180D01*
X133805812Y-64724482D01*
X133818072Y-64600000D01*
X133815000Y-63785750D01*
X133656250Y-63627000D01*
X132207000Y-63627000D01*
X131953000Y-63627000D01*
X130503750Y-63627000D01*
X130345000Y-63785750D01*
X130341928Y-64600000D01*
X123355000Y-64600000D01*
X123355000Y-64475289D01*
X123457537Y-64321831D01*
X123588325Y-64006081D01*
X123655000Y-63670883D01*
X123655000Y-63329117D01*
X123588325Y-62993919D01*
X123457537Y-62678169D01*
X123271671Y-62400000D01*
X130341928Y-62400000D01*
X130345000Y-63214250D01*
X130503750Y-63373000D01*
X131953000Y-63373000D01*
X131953000Y-61923750D01*
X132207000Y-61923750D01*
X132207000Y-63373000D01*
X133656250Y-63373000D01*
X133815000Y-63214250D01*
X133817936Y-62435920D01*
X138815525Y-62435920D01*
X139700000Y-63320395D01*
X140584475Y-62435920D01*
X140500792Y-62181739D01*
X140228225Y-62050842D01*
X139935358Y-61975635D01*
X139633447Y-61959009D01*
X139334093Y-62001603D01*
X139048801Y-62101778D01*
X138899208Y-62181739D01*
X138815525Y-62435920D01*
X133817936Y-62435920D01*
X133818072Y-62400000D01*
X133805812Y-62275518D01*
X133769502Y-62155820D01*
X133710537Y-62045506D01*
X133631185Y-61948815D01*
X133534494Y-61869463D01*
X133424180Y-61810498D01*
X133304482Y-61774188D01*
X133180000Y-61761928D01*
X132365750Y-61765000D01*
X132207000Y-61923750D01*
X131953000Y-61923750D01*
X131794250Y-61765000D01*
X130980000Y-61761928D01*
X130855518Y-61774188D01*
X130735820Y-61810498D01*
X130625506Y-61869463D01*
X130528815Y-61948815D01*
X130449463Y-62045506D01*
X130390498Y-62155820D01*
X130354188Y-62275518D01*
X130341928Y-62400000D01*
X123271671Y-62400000D01*
X123267663Y-62394002D01*
X123025998Y-62152337D01*
X122741831Y-61962463D01*
X122426081Y-61831675D01*
X122245064Y-61795669D01*
X117904554Y-57455159D01*
X117859608Y-57400392D01*
X117641101Y-57221068D01*
X117391808Y-57087818D01*
X117121309Y-57005764D01*
X116910492Y-56985000D01*
X116840000Y-56978057D01*
X116769508Y-56985000D01*
X110804346Y-56985000D01*
X110580983Y-56761637D01*
X110231302Y-56527988D01*
X109842756Y-56367047D01*
X109550769Y-56308967D01*
X120285000Y-56308967D01*
X120285000Y-56631033D01*
X120347832Y-56946912D01*
X120471082Y-57244463D01*
X120650013Y-57512252D01*
X120877748Y-57739987D01*
X121145537Y-57918918D01*
X121443088Y-58042168D01*
X121758967Y-58105000D01*
X122081033Y-58105000D01*
X122396912Y-58042168D01*
X122694463Y-57918918D01*
X122962252Y-57739987D01*
X123189987Y-57512252D01*
X123368918Y-57244463D01*
X123492168Y-56946912D01*
X123555000Y-56631033D01*
X123555000Y-56308967D01*
X123492168Y-55993088D01*
X123368918Y-55695537D01*
X123189987Y-55427748D01*
X122962252Y-55200013D01*
X122694463Y-55021082D01*
X122396912Y-54897832D01*
X122081033Y-54835000D01*
X121758967Y-54835000D01*
X121443088Y-54897832D01*
X121145537Y-55021082D01*
X120877748Y-55200013D01*
X120650013Y-55427748D01*
X120471082Y-55695537D01*
X120347832Y-55993088D01*
X120285000Y-56308967D01*
X109550769Y-56308967D01*
X109430279Y-56285000D01*
X109009721Y-56285000D01*
X108597244Y-56367047D01*
X108208698Y-56527988D01*
X107859017Y-56761637D01*
X107561637Y-57059017D01*
X107327988Y-57408698D01*
X107167047Y-57797244D01*
X107085000Y-58209721D01*
X107085000Y-58293000D01*
X106732606Y-58293000D01*
X105537000Y-57097394D01*
X105537000Y-54911653D01*
X107907952Y-54911653D01*
X108063962Y-55227214D01*
X108438745Y-55418020D01*
X108843551Y-55532044D01*
X109262824Y-55564902D01*
X109680451Y-55515334D01*
X110080383Y-55385243D01*
X110376038Y-55227214D01*
X110532048Y-54911653D01*
X109220000Y-53599605D01*
X107907952Y-54911653D01*
X105537000Y-54911653D01*
X105537000Y-53462824D01*
X107075098Y-53462824D01*
X107124666Y-53880451D01*
X107254757Y-54280383D01*
X107412786Y-54576038D01*
X107728347Y-54732048D01*
X109040395Y-53420000D01*
X109399605Y-53420000D01*
X110711653Y-54732048D01*
X111027214Y-54576038D01*
X111218020Y-54201255D01*
X111332044Y-53796449D01*
X111364902Y-53377176D01*
X111315334Y-52959549D01*
X111185243Y-52559617D01*
X111027214Y-52263962D01*
X110711653Y-52107952D01*
X109399605Y-53420000D01*
X109040395Y-53420000D01*
X107728347Y-52107952D01*
X107412786Y-52263962D01*
X107221980Y-52638745D01*
X107107956Y-53043551D01*
X107075098Y-53462824D01*
X105537000Y-53462824D01*
X105537000Y-51928347D01*
X107907952Y-51928347D01*
X109220000Y-53240395D01*
X110532048Y-51928347D01*
X110376038Y-51612786D01*
X110001255Y-51421980D01*
X109596449Y-51307956D01*
X109177176Y-51275098D01*
X108759549Y-51324666D01*
X108359617Y-51454757D01*
X108063962Y-51612786D01*
X107907952Y-51928347D01*
X105537000Y-51928347D01*
X105537000Y-44239721D01*
X107085000Y-44239721D01*
X107085000Y-44660279D01*
X107167047Y-45072756D01*
X107327988Y-45461302D01*
X107561637Y-45810983D01*
X107859017Y-46108363D01*
X108208698Y-46342012D01*
X108597244Y-46502953D01*
X109009721Y-46585000D01*
X109430279Y-46585000D01*
X109842756Y-46502953D01*
X110231302Y-46342012D01*
X110580983Y-46108363D01*
X110878363Y-45810983D01*
X111112012Y-45461302D01*
X111272953Y-45072756D01*
X111355000Y-44660279D01*
X111355000Y-44239721D01*
X111272953Y-43827244D01*
X111112012Y-43438698D01*
X110878363Y-43089017D01*
X110580983Y-42791637D01*
X110231302Y-42557988D01*
X109842756Y-42397047D01*
X109430279Y-42315000D01*
X109009721Y-42315000D01*
X108597244Y-42397047D01*
X108208698Y-42557988D01*
X107859017Y-42791637D01*
X107561637Y-43089017D01*
X107327988Y-43438698D01*
X107167047Y-43827244D01*
X107085000Y-44239721D01*
X105537000Y-44239721D01*
X105537000Y-40941653D01*
X107907952Y-40941653D01*
X108063962Y-41257214D01*
X108438745Y-41448020D01*
X108843551Y-41562044D01*
X109262824Y-41594902D01*
X109680451Y-41545334D01*
X110080383Y-41415243D01*
X110376038Y-41257214D01*
X110532048Y-40941653D01*
X109220000Y-39629605D01*
X107907952Y-40941653D01*
X105537000Y-40941653D01*
X105537000Y-39492824D01*
X107075098Y-39492824D01*
X107124666Y-39910451D01*
X107254757Y-40310383D01*
X107412786Y-40606038D01*
X107728347Y-40762048D01*
X109040395Y-39450000D01*
X109399605Y-39450000D01*
X110711653Y-40762048D01*
X111027214Y-40606038D01*
X111078443Y-40505413D01*
X120964192Y-40505413D01*
X121059956Y-40769814D01*
X121349571Y-40910704D01*
X121661108Y-40992384D01*
X121982595Y-41011718D01*
X122301675Y-40967961D01*
X122606088Y-40862795D01*
X122780044Y-40769814D01*
X122875808Y-40505413D01*
X121920000Y-39549605D01*
X120964192Y-40505413D01*
X111078443Y-40505413D01*
X111218020Y-40231255D01*
X111332044Y-39826449D01*
X111362909Y-39432595D01*
X120278282Y-39432595D01*
X120322039Y-39751675D01*
X120427205Y-40056088D01*
X120520186Y-40230044D01*
X120784587Y-40325808D01*
X121740395Y-39370000D01*
X122099605Y-39370000D01*
X123055413Y-40325808D01*
X123319814Y-40230044D01*
X123460704Y-39940429D01*
X123542384Y-39628892D01*
X123561718Y-39307405D01*
X123517961Y-38988325D01*
X123412795Y-38683912D01*
X123319814Y-38509956D01*
X123055413Y-38414192D01*
X122099605Y-39370000D01*
X121740395Y-39370000D01*
X120784587Y-38414192D01*
X120520186Y-38509956D01*
X120379296Y-38799571D01*
X120297616Y-39111108D01*
X120278282Y-39432595D01*
X111362909Y-39432595D01*
X111364902Y-39407176D01*
X111315334Y-38989549D01*
X111185243Y-38589617D01*
X111027214Y-38293962D01*
X110907117Y-38234587D01*
X120964192Y-38234587D01*
X121920000Y-39190395D01*
X122875808Y-38234587D01*
X122780044Y-37970186D01*
X122490429Y-37829296D01*
X122178892Y-37747616D01*
X121857405Y-37728282D01*
X121538325Y-37772039D01*
X121233912Y-37877205D01*
X121059956Y-37970186D01*
X120964192Y-38234587D01*
X110907117Y-38234587D01*
X110711653Y-38137952D01*
X109399605Y-39450000D01*
X109040395Y-39450000D01*
X107728347Y-38137952D01*
X107412786Y-38293962D01*
X107221980Y-38668745D01*
X107107956Y-39073551D01*
X107075098Y-39492824D01*
X105537000Y-39492824D01*
X105537000Y-38152606D01*
X105731259Y-37958347D01*
X107907952Y-37958347D01*
X109220000Y-39270395D01*
X110532048Y-37958347D01*
X110376038Y-37642786D01*
X110001255Y-37451980D01*
X109596449Y-37337956D01*
X109177176Y-37305098D01*
X108759549Y-37354666D01*
X108359617Y-37484757D01*
X108063962Y-37642786D01*
X107907952Y-37958347D01*
X105731259Y-37958347D01*
X106732606Y-36957000D01*
X123137394Y-36957000D01*
X124333000Y-38152606D01*
G37*
G04 #@! TD.AperFunction*
M02*
