%FSLAX45Y45*%
G04 Gerber Fmt 4.5, Leading zero omitted, Abs format (unit mm)*
G04 Created by KiCad (PCBNEW (5.1.9)-1) date 2021-12-30 20:05:51*
%MOMM*%
%LPD*%
G01*
G04 APERTURE LIST*
%TA.AperFunction,Profile*%
%ADD10C,0.038100*%
%TD*%
%ADD11C,0.200000*%
%ADD12C,0.300000*%
G04 APERTURE END LIST*
D10*
X18288000Y-7493000D02*
X10160000Y-7493000D01*
X10160000Y-7493000D02*
X10160000Y-3429000D01*
X18288000Y-3429000D02*
X18288000Y-7493000D01*
X10160000Y-3429000D02*
X18288000Y-3429000D01*
D11*
X14796000Y-6556000D02*
X15146000Y-6906000D01*
X15146000Y-6556000D02*
X14796000Y-6906000D01*
D12*
X10444523Y-7960619D02*
X10444523Y-7660619D01*
X10515952Y-7660619D01*
X10558809Y-7674905D01*
X10587381Y-7703476D01*
X10601666Y-7732048D01*
X10615952Y-7789191D01*
X10615952Y-7832048D01*
X10601666Y-7889191D01*
X10587381Y-7917762D01*
X10558809Y-7946334D01*
X10515952Y-7960619D01*
X10444523Y-7960619D01*
X10744523Y-7960619D02*
X10744523Y-7760619D01*
X10744523Y-7817762D02*
X10758809Y-7789191D01*
X10773095Y-7774905D01*
X10801666Y-7760619D01*
X10830238Y-7760619D01*
X10930238Y-7960619D02*
X10930238Y-7760619D01*
X10930238Y-7660619D02*
X10915952Y-7674905D01*
X10930238Y-7689191D01*
X10944523Y-7674905D01*
X10930238Y-7660619D01*
X10930238Y-7689191D01*
X11115952Y-7960619D02*
X11087381Y-7946334D01*
X11073095Y-7917762D01*
X11073095Y-7660619D01*
X11273095Y-7960619D02*
X11244523Y-7946334D01*
X11230238Y-7917762D01*
X11230238Y-7660619D01*
X11615952Y-7960619D02*
X11615952Y-7660619D01*
X11715952Y-7874905D01*
X11815952Y-7660619D01*
X11815952Y-7960619D01*
X12087381Y-7960619D02*
X12087381Y-7803476D01*
X12073095Y-7774905D01*
X12044523Y-7760619D01*
X11987381Y-7760619D01*
X11958809Y-7774905D01*
X12087381Y-7946334D02*
X12058809Y-7960619D01*
X11987381Y-7960619D01*
X11958809Y-7946334D01*
X11944523Y-7917762D01*
X11944523Y-7889191D01*
X11958809Y-7860619D01*
X11987381Y-7846334D01*
X12058809Y-7846334D01*
X12087381Y-7832048D01*
X12230238Y-7760619D02*
X12230238Y-8060619D01*
X12230238Y-7774905D02*
X12258809Y-7760619D01*
X12315952Y-7760619D01*
X12344523Y-7774905D01*
X12358809Y-7789191D01*
X12373095Y-7817762D01*
X12373095Y-7903476D01*
X12358809Y-7932048D01*
X12344523Y-7946334D01*
X12315952Y-7960619D01*
X12258809Y-7960619D01*
X12230238Y-7946334D01*
X12501666Y-7932048D02*
X12515952Y-7946334D01*
X12501666Y-7960619D01*
X12487381Y-7946334D01*
X12501666Y-7932048D01*
X12501666Y-7960619D01*
X12501666Y-7774905D02*
X12515952Y-7789191D01*
X12501666Y-7803476D01*
X12487381Y-7789191D01*
X12501666Y-7774905D01*
X12501666Y-7803476D01*
X9808095Y-8279905D02*
X10158095Y-8629905D01*
X10158095Y-8279905D02*
X9808095Y-8629905D01*
X10415952Y-8290619D02*
X10601666Y-8290619D01*
X10501666Y-8404905D01*
X10544523Y-8404905D01*
X10573095Y-8419191D01*
X10587381Y-8433477D01*
X10601666Y-8462048D01*
X10601666Y-8533477D01*
X10587381Y-8562048D01*
X10573095Y-8576334D01*
X10544523Y-8590619D01*
X10458809Y-8590619D01*
X10430238Y-8576334D01*
X10415952Y-8562048D01*
X10730238Y-8562048D02*
X10744523Y-8576334D01*
X10730238Y-8590619D01*
X10715952Y-8576334D01*
X10730238Y-8562048D01*
X10730238Y-8590619D01*
X11015952Y-8290619D02*
X10873095Y-8290619D01*
X10858809Y-8433477D01*
X10873095Y-8419191D01*
X10901666Y-8404905D01*
X10973095Y-8404905D01*
X11001666Y-8419191D01*
X11015952Y-8433477D01*
X11030238Y-8462048D01*
X11030238Y-8533477D01*
X11015952Y-8562048D01*
X11001666Y-8576334D01*
X10973095Y-8590619D01*
X10901666Y-8590619D01*
X10873095Y-8576334D01*
X10858809Y-8562048D01*
X11215952Y-8290619D02*
X11244523Y-8290619D01*
X11273095Y-8304905D01*
X11287381Y-8319191D01*
X11301666Y-8347762D01*
X11315952Y-8404905D01*
X11315952Y-8476334D01*
X11301666Y-8533477D01*
X11287381Y-8562048D01*
X11273095Y-8576334D01*
X11244523Y-8590619D01*
X11215952Y-8590619D01*
X11187381Y-8576334D01*
X11173095Y-8562048D01*
X11158809Y-8533477D01*
X11144523Y-8476334D01*
X11144523Y-8404905D01*
X11158809Y-8347762D01*
X11173095Y-8319191D01*
X11187381Y-8304905D01*
X11215952Y-8290619D01*
X11444523Y-8590619D02*
X11444523Y-8390619D01*
X11444523Y-8419191D02*
X11458809Y-8404905D01*
X11487381Y-8390619D01*
X11530238Y-8390619D01*
X11558809Y-8404905D01*
X11573095Y-8433477D01*
X11573095Y-8590619D01*
X11573095Y-8433477D02*
X11587381Y-8404905D01*
X11615952Y-8390619D01*
X11658809Y-8390619D01*
X11687381Y-8404905D01*
X11701666Y-8433477D01*
X11701666Y-8590619D01*
X11844523Y-8590619D02*
X11844523Y-8390619D01*
X11844523Y-8419191D02*
X11858809Y-8404905D01*
X11887381Y-8390619D01*
X11930238Y-8390619D01*
X11958809Y-8404905D01*
X11973095Y-8433477D01*
X11973095Y-8590619D01*
X11973095Y-8433477D02*
X11987381Y-8404905D01*
X12015952Y-8390619D01*
X12058809Y-8390619D01*
X12087381Y-8404905D01*
X12101666Y-8433477D01*
X12101666Y-8590619D01*
X12687381Y-8276334D02*
X12430238Y-8662048D01*
X13073095Y-8290619D02*
X13101666Y-8290619D01*
X13130238Y-8304905D01*
X13144523Y-8319191D01*
X13158809Y-8347762D01*
X13173095Y-8404905D01*
X13173095Y-8476334D01*
X13158809Y-8533477D01*
X13144523Y-8562048D01*
X13130238Y-8576334D01*
X13101666Y-8590619D01*
X13073095Y-8590619D01*
X13044523Y-8576334D01*
X13030238Y-8562048D01*
X13015952Y-8533477D01*
X13001666Y-8476334D01*
X13001666Y-8404905D01*
X13015952Y-8347762D01*
X13030238Y-8319191D01*
X13044523Y-8304905D01*
X13073095Y-8290619D01*
X13301666Y-8562048D02*
X13315952Y-8576334D01*
X13301666Y-8590619D01*
X13287381Y-8576334D01*
X13301666Y-8562048D01*
X13301666Y-8590619D01*
X13601666Y-8590619D02*
X13430238Y-8590619D01*
X13515952Y-8590619D02*
X13515952Y-8290619D01*
X13487381Y-8333476D01*
X13458809Y-8362048D01*
X13430238Y-8376334D01*
X13701666Y-8290619D02*
X13887381Y-8290619D01*
X13787381Y-8404905D01*
X13830238Y-8404905D01*
X13858809Y-8419191D01*
X13873095Y-8433477D01*
X13887381Y-8462048D01*
X13887381Y-8533477D01*
X13873095Y-8562048D01*
X13858809Y-8576334D01*
X13830238Y-8590619D01*
X13744523Y-8590619D01*
X13715952Y-8576334D01*
X13701666Y-8562048D01*
X14058809Y-8419191D02*
X14030238Y-8404905D01*
X14015952Y-8390619D01*
X14001666Y-8362048D01*
X14001666Y-8347762D01*
X14015952Y-8319191D01*
X14030238Y-8304905D01*
X14058809Y-8290619D01*
X14115952Y-8290619D01*
X14144523Y-8304905D01*
X14158809Y-8319191D01*
X14173095Y-8347762D01*
X14173095Y-8362048D01*
X14158809Y-8390619D01*
X14144523Y-8404905D01*
X14115952Y-8419191D01*
X14058809Y-8419191D01*
X14030238Y-8433477D01*
X14015952Y-8447762D01*
X14001666Y-8476334D01*
X14001666Y-8533477D01*
X14015952Y-8562048D01*
X14030238Y-8576334D01*
X14058809Y-8590619D01*
X14115952Y-8590619D01*
X14144523Y-8576334D01*
X14158809Y-8562048D01*
X14173095Y-8533477D01*
X14173095Y-8476334D01*
X14158809Y-8447762D01*
X14144523Y-8433477D01*
X14115952Y-8419191D01*
X14287381Y-8290619D02*
X14287381Y-8347762D01*
X14401666Y-8290619D02*
X14401666Y-8347762D01*
X14844523Y-8704905D02*
X14830238Y-8690619D01*
X14801666Y-8647762D01*
X14787381Y-8619191D01*
X14773095Y-8576334D01*
X14758809Y-8504905D01*
X14758809Y-8447762D01*
X14773095Y-8376334D01*
X14787381Y-8333476D01*
X14801666Y-8304905D01*
X14830238Y-8262048D01*
X14844523Y-8247762D01*
X15115952Y-8590619D02*
X14944523Y-8590619D01*
X15030238Y-8590619D02*
X15030238Y-8290619D01*
X15001666Y-8333476D01*
X14973095Y-8362048D01*
X14944523Y-8376334D01*
X15473095Y-8590619D02*
X15473095Y-8290619D01*
X15601666Y-8590619D02*
X15601666Y-8433477D01*
X15587381Y-8404905D01*
X15558809Y-8390619D01*
X15515952Y-8390619D01*
X15487381Y-8404905D01*
X15473095Y-8419191D01*
X15787381Y-8590619D02*
X15758809Y-8576334D01*
X15744523Y-8562048D01*
X15730238Y-8533477D01*
X15730238Y-8447762D01*
X15744523Y-8419191D01*
X15758809Y-8404905D01*
X15787381Y-8390619D01*
X15830238Y-8390619D01*
X15858809Y-8404905D01*
X15873095Y-8419191D01*
X15887381Y-8447762D01*
X15887381Y-8533477D01*
X15873095Y-8562048D01*
X15858809Y-8576334D01*
X15830238Y-8590619D01*
X15787381Y-8590619D01*
X16058809Y-8590619D02*
X16030238Y-8576334D01*
X16015952Y-8547762D01*
X16015952Y-8290619D01*
X16287381Y-8576334D02*
X16258809Y-8590619D01*
X16201666Y-8590619D01*
X16173095Y-8576334D01*
X16158809Y-8547762D01*
X16158809Y-8433477D01*
X16173095Y-8404905D01*
X16201666Y-8390619D01*
X16258809Y-8390619D01*
X16287381Y-8404905D01*
X16301666Y-8433477D01*
X16301666Y-8462048D01*
X16158809Y-8490619D01*
X16401666Y-8704905D02*
X16415952Y-8690619D01*
X16444523Y-8647762D01*
X16458809Y-8619191D01*
X16473095Y-8576334D01*
X16487381Y-8504905D01*
X16487381Y-8447762D01*
X16473095Y-8376334D01*
X16458809Y-8333476D01*
X16444523Y-8304905D01*
X16415952Y-8262048D01*
X16401666Y-8247762D01*
X16944523Y-8704905D02*
X16930238Y-8690619D01*
X16901666Y-8647762D01*
X16887381Y-8619191D01*
X16873095Y-8576334D01*
X16858809Y-8504905D01*
X16858809Y-8447762D01*
X16873095Y-8376334D01*
X16887381Y-8333476D01*
X16901666Y-8304905D01*
X16930238Y-8262048D01*
X16944523Y-8247762D01*
X17058809Y-8390619D02*
X17058809Y-8590619D01*
X17058809Y-8419191D02*
X17073095Y-8404905D01*
X17101666Y-8390619D01*
X17144523Y-8390619D01*
X17173095Y-8404905D01*
X17187381Y-8433477D01*
X17187381Y-8590619D01*
X17373095Y-8590619D02*
X17344523Y-8576334D01*
X17330238Y-8562048D01*
X17315952Y-8533477D01*
X17315952Y-8447762D01*
X17330238Y-8419191D01*
X17344523Y-8404905D01*
X17373095Y-8390619D01*
X17415952Y-8390619D01*
X17444523Y-8404905D01*
X17458809Y-8419191D01*
X17473095Y-8447762D01*
X17473095Y-8533477D01*
X17458809Y-8562048D01*
X17444523Y-8576334D01*
X17415952Y-8590619D01*
X17373095Y-8590619D01*
X17558809Y-8390619D02*
X17673095Y-8390619D01*
X17601666Y-8290619D02*
X17601666Y-8547762D01*
X17615952Y-8576334D01*
X17644523Y-8590619D01*
X17673095Y-8590619D01*
X18001666Y-8390619D02*
X18001666Y-8690619D01*
X18001666Y-8404905D02*
X18030238Y-8390619D01*
X18087381Y-8390619D01*
X18115952Y-8404905D01*
X18130238Y-8419191D01*
X18144523Y-8447762D01*
X18144523Y-8533477D01*
X18130238Y-8562048D01*
X18115952Y-8576334D01*
X18087381Y-8590619D01*
X18030238Y-8590619D01*
X18001666Y-8576334D01*
X18315952Y-8590619D02*
X18287381Y-8576334D01*
X18273095Y-8547762D01*
X18273095Y-8290619D01*
X18558809Y-8590619D02*
X18558809Y-8433477D01*
X18544523Y-8404905D01*
X18515952Y-8390619D01*
X18458809Y-8390619D01*
X18430238Y-8404905D01*
X18558809Y-8576334D02*
X18530238Y-8590619D01*
X18458809Y-8590619D01*
X18430238Y-8576334D01*
X18415952Y-8547762D01*
X18415952Y-8519191D01*
X18430238Y-8490619D01*
X18458809Y-8476334D01*
X18530238Y-8476334D01*
X18558809Y-8462048D01*
X18658809Y-8390619D02*
X18773095Y-8390619D01*
X18701666Y-8290619D02*
X18701666Y-8547762D01*
X18715952Y-8576334D01*
X18744523Y-8590619D01*
X18773095Y-8590619D01*
X18987381Y-8576334D02*
X18958809Y-8590619D01*
X18901666Y-8590619D01*
X18873095Y-8576334D01*
X18858809Y-8547762D01*
X18858809Y-8433477D01*
X18873095Y-8404905D01*
X18901666Y-8390619D01*
X18958809Y-8390619D01*
X18987381Y-8404905D01*
X19001666Y-8433477D01*
X19001666Y-8462048D01*
X18858809Y-8490619D01*
X19258809Y-8590619D02*
X19258809Y-8290619D01*
X19258809Y-8576334D02*
X19230238Y-8590619D01*
X19173095Y-8590619D01*
X19144523Y-8576334D01*
X19130238Y-8562048D01*
X19115952Y-8533477D01*
X19115952Y-8447762D01*
X19130238Y-8419191D01*
X19144523Y-8404905D01*
X19173095Y-8390619D01*
X19230238Y-8390619D01*
X19258809Y-8404905D01*
X19373095Y-8704905D02*
X19387381Y-8690619D01*
X19415952Y-8647762D01*
X19430238Y-8619191D01*
X19444523Y-8576334D01*
X19458809Y-8504905D01*
X19458809Y-8447762D01*
X19444523Y-8376334D01*
X19430238Y-8333476D01*
X19415952Y-8304905D01*
X19387381Y-8262048D01*
X19373095Y-8247762D01*
M02*
