%FSLAX45Y45*%
G04 Gerber Fmt 4.5, Leading zero omitted, Abs format (unit mm)*
G04 Created by KiCad (PCBNEW (5.1.9)-1) date 2021-12-30 20:05:51*
%MOMM*%
%LPD*%
G01*
G04 APERTURE LIST*
%TA.AperFunction,Profile*%
%ADD10C,0.038100*%
%TD*%
%ADD11C,0.200000*%
%ADD12C,0.300000*%
G04 APERTURE END LIST*
D10*
X18288000Y-7493000D02*
X10160000Y-7493000D01*
X10160000Y-7493000D02*
X10160000Y-3429000D01*
X18288000Y-3429000D02*
X18288000Y-7493000D01*
X10160000Y-3429000D02*
X18288000Y-3429000D01*
D11*
X12160000Y-7072000D02*
X12240000Y-7152000D01*
X12240000Y-7072000D02*
X12160000Y-7152000D01*
X12660000Y-7072000D02*
X12740000Y-7152000D01*
X12740000Y-7072000D02*
X12660000Y-7152000D01*
X13295000Y-7072000D02*
X13375000Y-7152000D01*
X13375000Y-7072000D02*
X13295000Y-7152000D01*
X14311000Y-7072000D02*
X14391000Y-7152000D01*
X14391000Y-7072000D02*
X14311000Y-7152000D01*
X16978000Y-6056000D02*
X17058000Y-6136000D01*
X17058000Y-6056000D02*
X16978000Y-6136000D01*
X16978000Y-6564000D02*
X17058000Y-6644000D01*
X17058000Y-6564000D02*
X16978000Y-6644000D01*
X17994000Y-6056000D02*
X18074000Y-6136000D01*
X18074000Y-6056000D02*
X17994000Y-6136000D01*
X17994000Y-6564000D02*
X18074000Y-6644000D01*
X18074000Y-6564000D02*
X17994000Y-6644000D01*
X14015000Y-6350000D02*
G75*
G03*
X14015000Y-6350000I-45000J0D01*
G01*
X14015000Y-6604000D02*
G75*
G03*
X14015000Y-6604000I-45000J0D01*
G01*
X12192000Y-3887000D02*
X12192000Y-3987000D01*
X12142000Y-3937000D02*
X12242000Y-3937000D01*
X12192000Y-5597000D02*
X12192000Y-5697000D01*
X12142000Y-5647000D02*
X12242000Y-5647000D01*
X16142000Y-3887000D02*
X16142000Y-3987000D01*
X16092000Y-3937000D02*
X16192000Y-3937000D01*
X16142000Y-5597000D02*
X16142000Y-5697000D01*
X16092000Y-5647000D02*
X16192000Y-5647000D01*
X12230891Y-6388891D02*
X12230891Y-6311109D01*
X12153109Y-6311109D01*
X12153109Y-6388891D01*
X12230891Y-6388891D01*
X13246891Y-6388891D02*
X13246891Y-6311109D01*
X13169109Y-6311109D01*
X13169109Y-6388891D01*
X13246891Y-6388891D01*
X16675891Y-6515891D02*
X16675891Y-6438109D01*
X16598109Y-6438109D01*
X16598109Y-6515891D01*
X16675891Y-6515891D01*
X16675891Y-6769891D02*
X16675891Y-6692109D01*
X16598109Y-6692109D01*
X16598109Y-6769891D01*
X16675891Y-6769891D01*
X16675891Y-7023891D02*
X16675891Y-6946109D01*
X16598109Y-6946109D01*
X16598109Y-7023891D01*
X16675891Y-7023891D01*
X10922000Y-4015000D02*
X10992000Y-3945000D01*
X10922000Y-3875000D01*
X10852000Y-3945000D01*
X10922000Y-4015000D01*
X10922000Y-4515000D02*
X10992000Y-4445000D01*
X10922000Y-4375000D01*
X10852000Y-4445000D01*
X10922000Y-4515000D01*
X10922000Y-5412000D02*
X10992000Y-5342000D01*
X10922000Y-5272000D01*
X10852000Y-5342000D01*
X10922000Y-5412000D01*
X10922000Y-5912000D02*
X10992000Y-5842000D01*
X10922000Y-5772000D01*
X10852000Y-5842000D01*
X10922000Y-5912000D01*
X17526000Y-4007000D02*
X17596000Y-3937000D01*
X17526000Y-3867000D01*
X17456000Y-3937000D01*
X17526000Y-4007000D01*
X17526000Y-4507000D02*
X17596000Y-4437000D01*
X17526000Y-4367000D01*
X17456000Y-4437000D01*
X17526000Y-4507000D01*
X17526000Y-5277000D02*
X17596000Y-5207000D01*
X17526000Y-5137000D01*
X17456000Y-5207000D01*
X17526000Y-5277000D01*
D12*
X10444523Y-7960619D02*
X10444523Y-7660619D01*
X10515952Y-7660619D01*
X10558809Y-7674905D01*
X10587381Y-7703476D01*
X10601666Y-7732048D01*
X10615952Y-7789191D01*
X10615952Y-7832048D01*
X10601666Y-7889191D01*
X10587381Y-7917762D01*
X10558809Y-7946334D01*
X10515952Y-7960619D01*
X10444523Y-7960619D01*
X10744523Y-7960619D02*
X10744523Y-7760619D01*
X10744523Y-7817762D02*
X10758809Y-7789191D01*
X10773095Y-7774905D01*
X10801666Y-7760619D01*
X10830238Y-7760619D01*
X10930238Y-7960619D02*
X10930238Y-7760619D01*
X10930238Y-7660619D02*
X10915952Y-7674905D01*
X10930238Y-7689191D01*
X10944523Y-7674905D01*
X10930238Y-7660619D01*
X10930238Y-7689191D01*
X11115952Y-7960619D02*
X11087381Y-7946334D01*
X11073095Y-7917762D01*
X11073095Y-7660619D01*
X11273095Y-7960619D02*
X11244523Y-7946334D01*
X11230238Y-7917762D01*
X11230238Y-7660619D01*
X11615952Y-7960619D02*
X11615952Y-7660619D01*
X11715952Y-7874905D01*
X11815952Y-7660619D01*
X11815952Y-7960619D01*
X12087381Y-7960619D02*
X12087381Y-7803476D01*
X12073095Y-7774905D01*
X12044523Y-7760619D01*
X11987381Y-7760619D01*
X11958809Y-7774905D01*
X12087381Y-7946334D02*
X12058809Y-7960619D01*
X11987381Y-7960619D01*
X11958809Y-7946334D01*
X11944523Y-7917762D01*
X11944523Y-7889191D01*
X11958809Y-7860619D01*
X11987381Y-7846334D01*
X12058809Y-7846334D01*
X12087381Y-7832048D01*
X12230238Y-7760619D02*
X12230238Y-8060619D01*
X12230238Y-7774905D02*
X12258809Y-7760619D01*
X12315952Y-7760619D01*
X12344523Y-7774905D01*
X12358809Y-7789191D01*
X12373095Y-7817762D01*
X12373095Y-7903476D01*
X12358809Y-7932048D01*
X12344523Y-7946334D01*
X12315952Y-7960619D01*
X12258809Y-7960619D01*
X12230238Y-7946334D01*
X12501666Y-7932048D02*
X12515952Y-7946334D01*
X12501666Y-7960619D01*
X12487381Y-7946334D01*
X12501666Y-7932048D01*
X12501666Y-7960619D01*
X12501666Y-7774905D02*
X12515952Y-7789191D01*
X12501666Y-7803476D01*
X12487381Y-7789191D01*
X12501666Y-7774905D01*
X12501666Y-7803476D01*
X10078095Y-8414905D02*
X10158095Y-8494905D01*
X10158095Y-8414905D02*
X10078095Y-8494905D01*
X10501666Y-8290619D02*
X10530238Y-8290619D01*
X10558809Y-8304905D01*
X10573095Y-8319191D01*
X10587381Y-8347762D01*
X10601666Y-8404905D01*
X10601666Y-8476334D01*
X10587381Y-8533477D01*
X10573095Y-8562048D01*
X10558809Y-8576334D01*
X10530238Y-8590619D01*
X10501666Y-8590619D01*
X10473095Y-8576334D01*
X10458809Y-8562048D01*
X10444523Y-8533477D01*
X10430238Y-8476334D01*
X10430238Y-8404905D01*
X10444523Y-8347762D01*
X10458809Y-8319191D01*
X10473095Y-8304905D01*
X10501666Y-8290619D01*
X10730238Y-8562048D02*
X10744523Y-8576334D01*
X10730238Y-8590619D01*
X10715952Y-8576334D01*
X10730238Y-8562048D01*
X10730238Y-8590619D01*
X10915952Y-8419191D02*
X10887381Y-8404905D01*
X10873095Y-8390619D01*
X10858809Y-8362048D01*
X10858809Y-8347762D01*
X10873095Y-8319191D01*
X10887381Y-8304905D01*
X10915952Y-8290619D01*
X10973095Y-8290619D01*
X11001666Y-8304905D01*
X11015952Y-8319191D01*
X11030238Y-8347762D01*
X11030238Y-8362048D01*
X11015952Y-8390619D01*
X11001666Y-8404905D01*
X10973095Y-8419191D01*
X10915952Y-8419191D01*
X10887381Y-8433477D01*
X10873095Y-8447762D01*
X10858809Y-8476334D01*
X10858809Y-8533477D01*
X10873095Y-8562048D01*
X10887381Y-8576334D01*
X10915952Y-8590619D01*
X10973095Y-8590619D01*
X11001666Y-8576334D01*
X11015952Y-8562048D01*
X11030238Y-8533477D01*
X11030238Y-8476334D01*
X11015952Y-8447762D01*
X11001666Y-8433477D01*
X10973095Y-8419191D01*
X11215952Y-8290619D02*
X11244523Y-8290619D01*
X11273095Y-8304905D01*
X11287381Y-8319191D01*
X11301666Y-8347762D01*
X11315952Y-8404905D01*
X11315952Y-8476334D01*
X11301666Y-8533477D01*
X11287381Y-8562048D01*
X11273095Y-8576334D01*
X11244523Y-8590619D01*
X11215952Y-8590619D01*
X11187381Y-8576334D01*
X11173095Y-8562048D01*
X11158809Y-8533477D01*
X11144523Y-8476334D01*
X11144523Y-8404905D01*
X11158809Y-8347762D01*
X11173095Y-8319191D01*
X11187381Y-8304905D01*
X11215952Y-8290619D01*
X11444523Y-8590619D02*
X11444523Y-8390619D01*
X11444523Y-8419191D02*
X11458809Y-8404905D01*
X11487381Y-8390619D01*
X11530238Y-8390619D01*
X11558809Y-8404905D01*
X11573095Y-8433477D01*
X11573095Y-8590619D01*
X11573095Y-8433477D02*
X11587381Y-8404905D01*
X11615952Y-8390619D01*
X11658809Y-8390619D01*
X11687381Y-8404905D01*
X11701666Y-8433477D01*
X11701666Y-8590619D01*
X11844523Y-8590619D02*
X11844523Y-8390619D01*
X11844523Y-8419191D02*
X11858809Y-8404905D01*
X11887381Y-8390619D01*
X11930238Y-8390619D01*
X11958809Y-8404905D01*
X11973095Y-8433477D01*
X11973095Y-8590619D01*
X11973095Y-8433477D02*
X11987381Y-8404905D01*
X12015952Y-8390619D01*
X12058809Y-8390619D01*
X12087381Y-8404905D01*
X12101666Y-8433477D01*
X12101666Y-8590619D01*
X12687381Y-8276334D02*
X12430238Y-8662048D01*
X13073095Y-8290619D02*
X13101666Y-8290619D01*
X13130238Y-8304905D01*
X13144523Y-8319191D01*
X13158809Y-8347762D01*
X13173095Y-8404905D01*
X13173095Y-8476334D01*
X13158809Y-8533477D01*
X13144523Y-8562048D01*
X13130238Y-8576334D01*
X13101666Y-8590619D01*
X13073095Y-8590619D01*
X13044523Y-8576334D01*
X13030238Y-8562048D01*
X13015952Y-8533477D01*
X13001666Y-8476334D01*
X13001666Y-8404905D01*
X13015952Y-8347762D01*
X13030238Y-8319191D01*
X13044523Y-8304905D01*
X13073095Y-8290619D01*
X13301666Y-8562048D02*
X13315952Y-8576334D01*
X13301666Y-8590619D01*
X13287381Y-8576334D01*
X13301666Y-8562048D01*
X13301666Y-8590619D01*
X13501666Y-8290619D02*
X13530238Y-8290619D01*
X13558809Y-8304905D01*
X13573095Y-8319191D01*
X13587381Y-8347762D01*
X13601666Y-8404905D01*
X13601666Y-8476334D01*
X13587381Y-8533477D01*
X13573095Y-8562048D01*
X13558809Y-8576334D01*
X13530238Y-8590619D01*
X13501666Y-8590619D01*
X13473095Y-8576334D01*
X13458809Y-8562048D01*
X13444523Y-8533477D01*
X13430238Y-8476334D01*
X13430238Y-8404905D01*
X13444523Y-8347762D01*
X13458809Y-8319191D01*
X13473095Y-8304905D01*
X13501666Y-8290619D01*
X13701666Y-8290619D02*
X13887381Y-8290619D01*
X13787381Y-8404905D01*
X13830238Y-8404905D01*
X13858809Y-8419191D01*
X13873095Y-8433477D01*
X13887381Y-8462048D01*
X13887381Y-8533477D01*
X13873095Y-8562048D01*
X13858809Y-8576334D01*
X13830238Y-8590619D01*
X13744523Y-8590619D01*
X13715952Y-8576334D01*
X13701666Y-8562048D01*
X14173095Y-8590619D02*
X14001666Y-8590619D01*
X14087381Y-8590619D02*
X14087381Y-8290619D01*
X14058809Y-8333476D01*
X14030238Y-8362048D01*
X14001666Y-8376334D01*
X14287381Y-8290619D02*
X14287381Y-8347762D01*
X14401666Y-8290619D02*
X14401666Y-8347762D01*
X14844523Y-8704905D02*
X14830238Y-8690619D01*
X14801666Y-8647762D01*
X14787381Y-8619191D01*
X14773095Y-8576334D01*
X14758809Y-8504905D01*
X14758809Y-8447762D01*
X14773095Y-8376334D01*
X14787381Y-8333476D01*
X14801666Y-8304905D01*
X14830238Y-8262048D01*
X14844523Y-8247762D01*
X15001666Y-8419191D02*
X14973095Y-8404905D01*
X14958809Y-8390619D01*
X14944523Y-8362048D01*
X14944523Y-8347762D01*
X14958809Y-8319191D01*
X14973095Y-8304905D01*
X15001666Y-8290619D01*
X15058809Y-8290619D01*
X15087381Y-8304905D01*
X15101666Y-8319191D01*
X15115952Y-8347762D01*
X15115952Y-8362048D01*
X15101666Y-8390619D01*
X15087381Y-8404905D01*
X15058809Y-8419191D01*
X15001666Y-8419191D01*
X14973095Y-8433477D01*
X14958809Y-8447762D01*
X14944523Y-8476334D01*
X14944523Y-8533477D01*
X14958809Y-8562048D01*
X14973095Y-8576334D01*
X15001666Y-8590619D01*
X15058809Y-8590619D01*
X15087381Y-8576334D01*
X15101666Y-8562048D01*
X15115952Y-8533477D01*
X15115952Y-8476334D01*
X15101666Y-8447762D01*
X15087381Y-8433477D01*
X15058809Y-8419191D01*
X15473095Y-8590619D02*
X15473095Y-8290619D01*
X15601666Y-8590619D02*
X15601666Y-8433477D01*
X15587381Y-8404905D01*
X15558809Y-8390619D01*
X15515952Y-8390619D01*
X15487381Y-8404905D01*
X15473095Y-8419191D01*
X15787381Y-8590619D02*
X15758809Y-8576334D01*
X15744523Y-8562048D01*
X15730238Y-8533477D01*
X15730238Y-8447762D01*
X15744523Y-8419191D01*
X15758809Y-8404905D01*
X15787381Y-8390619D01*
X15830238Y-8390619D01*
X15858809Y-8404905D01*
X15873095Y-8419191D01*
X15887381Y-8447762D01*
X15887381Y-8533477D01*
X15873095Y-8562048D01*
X15858809Y-8576334D01*
X15830238Y-8590619D01*
X15787381Y-8590619D01*
X16058809Y-8590619D02*
X16030238Y-8576334D01*
X16015952Y-8547762D01*
X16015952Y-8290619D01*
X16287381Y-8576334D02*
X16258809Y-8590619D01*
X16201666Y-8590619D01*
X16173095Y-8576334D01*
X16158809Y-8547762D01*
X16158809Y-8433477D01*
X16173095Y-8404905D01*
X16201666Y-8390619D01*
X16258809Y-8390619D01*
X16287381Y-8404905D01*
X16301666Y-8433477D01*
X16301666Y-8462048D01*
X16158809Y-8490619D01*
X16415952Y-8576334D02*
X16444523Y-8590619D01*
X16501666Y-8590619D01*
X16530238Y-8576334D01*
X16544523Y-8547762D01*
X16544523Y-8533477D01*
X16530238Y-8504905D01*
X16501666Y-8490619D01*
X16458809Y-8490619D01*
X16430238Y-8476334D01*
X16415952Y-8447762D01*
X16415952Y-8433477D01*
X16430238Y-8404905D01*
X16458809Y-8390619D01*
X16501666Y-8390619D01*
X16530238Y-8404905D01*
X16644523Y-8704905D02*
X16658809Y-8690619D01*
X16687381Y-8647762D01*
X16701666Y-8619191D01*
X16715952Y-8576334D01*
X16730238Y-8504905D01*
X16730238Y-8447762D01*
X16715952Y-8376334D01*
X16701666Y-8333476D01*
X16687381Y-8304905D01*
X16658809Y-8262048D01*
X16644523Y-8247762D01*
X10158095Y-8850905D02*
G75*
G03*
X10158095Y-8850905I-45000J0D01*
G01*
X10501666Y-8686619D02*
X10530238Y-8686619D01*
X10558809Y-8700905D01*
X10573095Y-8715191D01*
X10587381Y-8743762D01*
X10601666Y-8800905D01*
X10601666Y-8872334D01*
X10587381Y-8929477D01*
X10573095Y-8958048D01*
X10558809Y-8972334D01*
X10530238Y-8986619D01*
X10501666Y-8986619D01*
X10473095Y-8972334D01*
X10458809Y-8958048D01*
X10444523Y-8929477D01*
X10430238Y-8872334D01*
X10430238Y-8800905D01*
X10444523Y-8743762D01*
X10458809Y-8715191D01*
X10473095Y-8700905D01*
X10501666Y-8686619D01*
X10730238Y-8958048D02*
X10744523Y-8972334D01*
X10730238Y-8986619D01*
X10715952Y-8972334D01*
X10730238Y-8958048D01*
X10730238Y-8986619D01*
X10887381Y-8986619D02*
X10944523Y-8986619D01*
X10973095Y-8972334D01*
X10987381Y-8958048D01*
X11015952Y-8915191D01*
X11030238Y-8858048D01*
X11030238Y-8743762D01*
X11015952Y-8715191D01*
X11001666Y-8700905D01*
X10973095Y-8686619D01*
X10915952Y-8686619D01*
X10887381Y-8700905D01*
X10873095Y-8715191D01*
X10858809Y-8743762D01*
X10858809Y-8815191D01*
X10873095Y-8843762D01*
X10887381Y-8858048D01*
X10915952Y-8872334D01*
X10973095Y-8872334D01*
X11001666Y-8858048D01*
X11015952Y-8843762D01*
X11030238Y-8815191D01*
X11215952Y-8686619D02*
X11244523Y-8686619D01*
X11273095Y-8700905D01*
X11287381Y-8715191D01*
X11301666Y-8743762D01*
X11315952Y-8800905D01*
X11315952Y-8872334D01*
X11301666Y-8929477D01*
X11287381Y-8958048D01*
X11273095Y-8972334D01*
X11244523Y-8986619D01*
X11215952Y-8986619D01*
X11187381Y-8972334D01*
X11173095Y-8958048D01*
X11158809Y-8929477D01*
X11144523Y-8872334D01*
X11144523Y-8800905D01*
X11158809Y-8743762D01*
X11173095Y-8715191D01*
X11187381Y-8700905D01*
X11215952Y-8686619D01*
X11444523Y-8986619D02*
X11444523Y-8786619D01*
X11444523Y-8815191D02*
X11458809Y-8800905D01*
X11487381Y-8786619D01*
X11530238Y-8786619D01*
X11558809Y-8800905D01*
X11573095Y-8829477D01*
X11573095Y-8986619D01*
X11573095Y-8829477D02*
X11587381Y-8800905D01*
X11615952Y-8786619D01*
X11658809Y-8786619D01*
X11687381Y-8800905D01*
X11701666Y-8829477D01*
X11701666Y-8986619D01*
X11844523Y-8986619D02*
X11844523Y-8786619D01*
X11844523Y-8815191D02*
X11858809Y-8800905D01*
X11887381Y-8786619D01*
X11930238Y-8786619D01*
X11958809Y-8800905D01*
X11973095Y-8829477D01*
X11973095Y-8986619D01*
X11973095Y-8829477D02*
X11987381Y-8800905D01*
X12015952Y-8786619D01*
X12058809Y-8786619D01*
X12087381Y-8800905D01*
X12101666Y-8829477D01*
X12101666Y-8986619D01*
X12687381Y-8672334D02*
X12430238Y-9058048D01*
X13073095Y-8686619D02*
X13101666Y-8686619D01*
X13130238Y-8700905D01*
X13144523Y-8715191D01*
X13158809Y-8743762D01*
X13173095Y-8800905D01*
X13173095Y-8872334D01*
X13158809Y-8929477D01*
X13144523Y-8958048D01*
X13130238Y-8972334D01*
X13101666Y-8986619D01*
X13073095Y-8986619D01*
X13044523Y-8972334D01*
X13030238Y-8958048D01*
X13015952Y-8929477D01*
X13001666Y-8872334D01*
X13001666Y-8800905D01*
X13015952Y-8743762D01*
X13030238Y-8715191D01*
X13044523Y-8700905D01*
X13073095Y-8686619D01*
X13301666Y-8958048D02*
X13315952Y-8972334D01*
X13301666Y-8986619D01*
X13287381Y-8972334D01*
X13301666Y-8958048D01*
X13301666Y-8986619D01*
X13501666Y-8686619D02*
X13530238Y-8686619D01*
X13558809Y-8700905D01*
X13573095Y-8715191D01*
X13587381Y-8743762D01*
X13601666Y-8800905D01*
X13601666Y-8872334D01*
X13587381Y-8929477D01*
X13573095Y-8958048D01*
X13558809Y-8972334D01*
X13530238Y-8986619D01*
X13501666Y-8986619D01*
X13473095Y-8972334D01*
X13458809Y-8958048D01*
X13444523Y-8929477D01*
X13430238Y-8872334D01*
X13430238Y-8800905D01*
X13444523Y-8743762D01*
X13458809Y-8715191D01*
X13473095Y-8700905D01*
X13501666Y-8686619D01*
X13701666Y-8686619D02*
X13887381Y-8686619D01*
X13787381Y-8800905D01*
X13830238Y-8800905D01*
X13858809Y-8815191D01*
X13873095Y-8829477D01*
X13887381Y-8858048D01*
X13887381Y-8929477D01*
X13873095Y-8958048D01*
X13858809Y-8972334D01*
X13830238Y-8986619D01*
X13744523Y-8986619D01*
X13715952Y-8972334D01*
X13701666Y-8958048D01*
X14158809Y-8686619D02*
X14015952Y-8686619D01*
X14001666Y-8829477D01*
X14015952Y-8815191D01*
X14044523Y-8800905D01*
X14115952Y-8800905D01*
X14144523Y-8815191D01*
X14158809Y-8829477D01*
X14173095Y-8858048D01*
X14173095Y-8929477D01*
X14158809Y-8958048D01*
X14144523Y-8972334D01*
X14115952Y-8986619D01*
X14044523Y-8986619D01*
X14015952Y-8972334D01*
X14001666Y-8958048D01*
X14287381Y-8686619D02*
X14287381Y-8743762D01*
X14401666Y-8686619D02*
X14401666Y-8743762D01*
X14844523Y-9100905D02*
X14830238Y-9086619D01*
X14801666Y-9043762D01*
X14787381Y-9015191D01*
X14773095Y-8972334D01*
X14758809Y-8900905D01*
X14758809Y-8843762D01*
X14773095Y-8772334D01*
X14787381Y-8729477D01*
X14801666Y-8700905D01*
X14830238Y-8658048D01*
X14844523Y-8643762D01*
X14944523Y-8715191D02*
X14958809Y-8700905D01*
X14987381Y-8686619D01*
X15058809Y-8686619D01*
X15087381Y-8700905D01*
X15101666Y-8715191D01*
X15115952Y-8743762D01*
X15115952Y-8772334D01*
X15101666Y-8815191D01*
X14930238Y-8986619D01*
X15115952Y-8986619D01*
X15473095Y-8986619D02*
X15473095Y-8686619D01*
X15601666Y-8986619D02*
X15601666Y-8829477D01*
X15587381Y-8800905D01*
X15558809Y-8786619D01*
X15515952Y-8786619D01*
X15487381Y-8800905D01*
X15473095Y-8815191D01*
X15787381Y-8986619D02*
X15758809Y-8972334D01*
X15744523Y-8958048D01*
X15730238Y-8929477D01*
X15730238Y-8843762D01*
X15744523Y-8815191D01*
X15758809Y-8800905D01*
X15787381Y-8786619D01*
X15830238Y-8786619D01*
X15858809Y-8800905D01*
X15873095Y-8815191D01*
X15887381Y-8843762D01*
X15887381Y-8929477D01*
X15873095Y-8958048D01*
X15858809Y-8972334D01*
X15830238Y-8986619D01*
X15787381Y-8986619D01*
X16058809Y-8986619D02*
X16030238Y-8972334D01*
X16015952Y-8943762D01*
X16015952Y-8686619D01*
X16287381Y-8972334D02*
X16258809Y-8986619D01*
X16201666Y-8986619D01*
X16173095Y-8972334D01*
X16158809Y-8943762D01*
X16158809Y-8829477D01*
X16173095Y-8800905D01*
X16201666Y-8786619D01*
X16258809Y-8786619D01*
X16287381Y-8800905D01*
X16301666Y-8829477D01*
X16301666Y-8858048D01*
X16158809Y-8886619D01*
X16415952Y-8972334D02*
X16444523Y-8986619D01*
X16501666Y-8986619D01*
X16530238Y-8972334D01*
X16544523Y-8943762D01*
X16544523Y-8929477D01*
X16530238Y-8900905D01*
X16501666Y-8886619D01*
X16458809Y-8886619D01*
X16430238Y-8872334D01*
X16415952Y-8843762D01*
X16415952Y-8829477D01*
X16430238Y-8800905D01*
X16458809Y-8786619D01*
X16501666Y-8786619D01*
X16530238Y-8800905D01*
X16644523Y-9100905D02*
X16658809Y-9086619D01*
X16687381Y-9043762D01*
X16701666Y-9015191D01*
X16715952Y-8972334D01*
X16730238Y-8900905D01*
X16730238Y-8843762D01*
X16715952Y-8772334D01*
X16701666Y-8729477D01*
X16687381Y-8700905D01*
X16658809Y-8658048D01*
X16644523Y-8643762D01*
X10108095Y-9196905D02*
X10108095Y-9296905D01*
X10058095Y-9246905D02*
X10158095Y-9246905D01*
X10601666Y-9382619D02*
X10430238Y-9382619D01*
X10515952Y-9382619D02*
X10515952Y-9082619D01*
X10487381Y-9125477D01*
X10458809Y-9154048D01*
X10430238Y-9168334D01*
X10730238Y-9354048D02*
X10744523Y-9368334D01*
X10730238Y-9382619D01*
X10715952Y-9368334D01*
X10730238Y-9354048D01*
X10730238Y-9382619D01*
X10930238Y-9082619D02*
X10958809Y-9082619D01*
X10987381Y-9096905D01*
X11001666Y-9111191D01*
X11015952Y-9139762D01*
X11030238Y-9196905D01*
X11030238Y-9268334D01*
X11015952Y-9325477D01*
X11001666Y-9354048D01*
X10987381Y-9368334D01*
X10958809Y-9382619D01*
X10930238Y-9382619D01*
X10901666Y-9368334D01*
X10887381Y-9354048D01*
X10873095Y-9325477D01*
X10858809Y-9268334D01*
X10858809Y-9196905D01*
X10873095Y-9139762D01*
X10887381Y-9111191D01*
X10901666Y-9096905D01*
X10930238Y-9082619D01*
X11215952Y-9082619D02*
X11244523Y-9082619D01*
X11273095Y-9096905D01*
X11287381Y-9111191D01*
X11301666Y-9139762D01*
X11315952Y-9196905D01*
X11315952Y-9268334D01*
X11301666Y-9325477D01*
X11287381Y-9354048D01*
X11273095Y-9368334D01*
X11244523Y-9382619D01*
X11215952Y-9382619D01*
X11187381Y-9368334D01*
X11173095Y-9354048D01*
X11158809Y-9325477D01*
X11144523Y-9268334D01*
X11144523Y-9196905D01*
X11158809Y-9139762D01*
X11173095Y-9111191D01*
X11187381Y-9096905D01*
X11215952Y-9082619D01*
X11444523Y-9382619D02*
X11444523Y-9182619D01*
X11444523Y-9211191D02*
X11458809Y-9196905D01*
X11487381Y-9182619D01*
X11530238Y-9182619D01*
X11558809Y-9196905D01*
X11573095Y-9225477D01*
X11573095Y-9382619D01*
X11573095Y-9225477D02*
X11587381Y-9196905D01*
X11615952Y-9182619D01*
X11658809Y-9182619D01*
X11687381Y-9196905D01*
X11701666Y-9225477D01*
X11701666Y-9382619D01*
X11844523Y-9382619D02*
X11844523Y-9182619D01*
X11844523Y-9211191D02*
X11858809Y-9196905D01*
X11887381Y-9182619D01*
X11930238Y-9182619D01*
X11958809Y-9196905D01*
X11973095Y-9225477D01*
X11973095Y-9382619D01*
X11973095Y-9225477D02*
X11987381Y-9196905D01*
X12015952Y-9182619D01*
X12058809Y-9182619D01*
X12087381Y-9196905D01*
X12101666Y-9225477D01*
X12101666Y-9382619D01*
X12687381Y-9068334D02*
X12430238Y-9454048D01*
X13073095Y-9082619D02*
X13101666Y-9082619D01*
X13130238Y-9096905D01*
X13144523Y-9111191D01*
X13158809Y-9139762D01*
X13173095Y-9196905D01*
X13173095Y-9268334D01*
X13158809Y-9325477D01*
X13144523Y-9354048D01*
X13130238Y-9368334D01*
X13101666Y-9382619D01*
X13073095Y-9382619D01*
X13044523Y-9368334D01*
X13030238Y-9354048D01*
X13015952Y-9325477D01*
X13001666Y-9268334D01*
X13001666Y-9196905D01*
X13015952Y-9139762D01*
X13030238Y-9111191D01*
X13044523Y-9096905D01*
X13073095Y-9082619D01*
X13301666Y-9354048D02*
X13315952Y-9368334D01*
X13301666Y-9382619D01*
X13287381Y-9368334D01*
X13301666Y-9354048D01*
X13301666Y-9382619D01*
X13501666Y-9082619D02*
X13530238Y-9082619D01*
X13558809Y-9096905D01*
X13573095Y-9111191D01*
X13587381Y-9139762D01*
X13601666Y-9196905D01*
X13601666Y-9268334D01*
X13587381Y-9325477D01*
X13573095Y-9354048D01*
X13558809Y-9368334D01*
X13530238Y-9382619D01*
X13501666Y-9382619D01*
X13473095Y-9368334D01*
X13458809Y-9354048D01*
X13444523Y-9325477D01*
X13430238Y-9268334D01*
X13430238Y-9196905D01*
X13444523Y-9139762D01*
X13458809Y-9111191D01*
X13473095Y-9096905D01*
X13501666Y-9082619D01*
X13701666Y-9082619D02*
X13887381Y-9082619D01*
X13787381Y-9196905D01*
X13830238Y-9196905D01*
X13858809Y-9211191D01*
X13873095Y-9225477D01*
X13887381Y-9254048D01*
X13887381Y-9325477D01*
X13873095Y-9354048D01*
X13858809Y-9368334D01*
X13830238Y-9382619D01*
X13744523Y-9382619D01*
X13715952Y-9368334D01*
X13701666Y-9354048D01*
X14030238Y-9382619D02*
X14087381Y-9382619D01*
X14115952Y-9368334D01*
X14130238Y-9354048D01*
X14158809Y-9311191D01*
X14173095Y-9254048D01*
X14173095Y-9139762D01*
X14158809Y-9111191D01*
X14144523Y-9096905D01*
X14115952Y-9082619D01*
X14058809Y-9082619D01*
X14030238Y-9096905D01*
X14015952Y-9111191D01*
X14001666Y-9139762D01*
X14001666Y-9211191D01*
X14015952Y-9239762D01*
X14030238Y-9254048D01*
X14058809Y-9268334D01*
X14115952Y-9268334D01*
X14144523Y-9254048D01*
X14158809Y-9239762D01*
X14173095Y-9211191D01*
X14287381Y-9082619D02*
X14287381Y-9139762D01*
X14401666Y-9082619D02*
X14401666Y-9139762D01*
X14844523Y-9496905D02*
X14830238Y-9482619D01*
X14801666Y-9439762D01*
X14787381Y-9411191D01*
X14773095Y-9368334D01*
X14758809Y-9296905D01*
X14758809Y-9239762D01*
X14773095Y-9168334D01*
X14787381Y-9125477D01*
X14801666Y-9096905D01*
X14830238Y-9054048D01*
X14844523Y-9039762D01*
X15087381Y-9182619D02*
X15087381Y-9382619D01*
X15015952Y-9068334D02*
X14944523Y-9282619D01*
X15130238Y-9282619D01*
X15473095Y-9382619D02*
X15473095Y-9082619D01*
X15601666Y-9382619D02*
X15601666Y-9225477D01*
X15587381Y-9196905D01*
X15558809Y-9182619D01*
X15515952Y-9182619D01*
X15487381Y-9196905D01*
X15473095Y-9211191D01*
X15787381Y-9382619D02*
X15758809Y-9368334D01*
X15744523Y-9354048D01*
X15730238Y-9325477D01*
X15730238Y-9239762D01*
X15744523Y-9211191D01*
X15758809Y-9196905D01*
X15787381Y-9182619D01*
X15830238Y-9182619D01*
X15858809Y-9196905D01*
X15873095Y-9211191D01*
X15887381Y-9239762D01*
X15887381Y-9325477D01*
X15873095Y-9354048D01*
X15858809Y-9368334D01*
X15830238Y-9382619D01*
X15787381Y-9382619D01*
X16058809Y-9382619D02*
X16030238Y-9368334D01*
X16015952Y-9339762D01*
X16015952Y-9082619D01*
X16287381Y-9368334D02*
X16258809Y-9382619D01*
X16201666Y-9382619D01*
X16173095Y-9368334D01*
X16158809Y-9339762D01*
X16158809Y-9225477D01*
X16173095Y-9196905D01*
X16201666Y-9182619D01*
X16258809Y-9182619D01*
X16287381Y-9196905D01*
X16301666Y-9225477D01*
X16301666Y-9254048D01*
X16158809Y-9282619D01*
X16415952Y-9368334D02*
X16444523Y-9382619D01*
X16501666Y-9382619D01*
X16530238Y-9368334D01*
X16544523Y-9339762D01*
X16544523Y-9325477D01*
X16530238Y-9296905D01*
X16501666Y-9282619D01*
X16458809Y-9282619D01*
X16430238Y-9268334D01*
X16415952Y-9239762D01*
X16415952Y-9225477D01*
X16430238Y-9196905D01*
X16458809Y-9182619D01*
X16501666Y-9182619D01*
X16530238Y-9196905D01*
X16644523Y-9496905D02*
X16658809Y-9482619D01*
X16687381Y-9439762D01*
X16701666Y-9411191D01*
X16715952Y-9368334D01*
X16730238Y-9296905D01*
X16730238Y-9239762D01*
X16715952Y-9168334D01*
X16701666Y-9125477D01*
X16687381Y-9096905D01*
X16658809Y-9054048D01*
X16644523Y-9039762D01*
X10141986Y-9681796D02*
X10141986Y-9604014D01*
X10064204Y-9604014D01*
X10064204Y-9681796D01*
X10141986Y-9681796D01*
X10601666Y-9778619D02*
X10430238Y-9778619D01*
X10515952Y-9778619D02*
X10515952Y-9478619D01*
X10487381Y-9521477D01*
X10458809Y-9550048D01*
X10430238Y-9564334D01*
X10730238Y-9750048D02*
X10744523Y-9764334D01*
X10730238Y-9778619D01*
X10715952Y-9764334D01*
X10730238Y-9750048D01*
X10730238Y-9778619D01*
X11030238Y-9778619D02*
X10858809Y-9778619D01*
X10944523Y-9778619D02*
X10944523Y-9478619D01*
X10915952Y-9521477D01*
X10887381Y-9550048D01*
X10858809Y-9564334D01*
X11215952Y-9478619D02*
X11244523Y-9478619D01*
X11273095Y-9492905D01*
X11287381Y-9507191D01*
X11301666Y-9535762D01*
X11315952Y-9592905D01*
X11315952Y-9664334D01*
X11301666Y-9721477D01*
X11287381Y-9750048D01*
X11273095Y-9764334D01*
X11244523Y-9778619D01*
X11215952Y-9778619D01*
X11187381Y-9764334D01*
X11173095Y-9750048D01*
X11158809Y-9721477D01*
X11144523Y-9664334D01*
X11144523Y-9592905D01*
X11158809Y-9535762D01*
X11173095Y-9507191D01*
X11187381Y-9492905D01*
X11215952Y-9478619D01*
X11444523Y-9778619D02*
X11444523Y-9578619D01*
X11444523Y-9607191D02*
X11458809Y-9592905D01*
X11487381Y-9578619D01*
X11530238Y-9578619D01*
X11558809Y-9592905D01*
X11573095Y-9621477D01*
X11573095Y-9778619D01*
X11573095Y-9621477D02*
X11587381Y-9592905D01*
X11615952Y-9578619D01*
X11658809Y-9578619D01*
X11687381Y-9592905D01*
X11701666Y-9621477D01*
X11701666Y-9778619D01*
X11844523Y-9778619D02*
X11844523Y-9578619D01*
X11844523Y-9607191D02*
X11858809Y-9592905D01*
X11887381Y-9578619D01*
X11930238Y-9578619D01*
X11958809Y-9592905D01*
X11973095Y-9621477D01*
X11973095Y-9778619D01*
X11973095Y-9621477D02*
X11987381Y-9592905D01*
X12015952Y-9578619D01*
X12058809Y-9578619D01*
X12087381Y-9592905D01*
X12101666Y-9621477D01*
X12101666Y-9778619D01*
X12687381Y-9464334D02*
X12430238Y-9850048D01*
X13073095Y-9478619D02*
X13101666Y-9478619D01*
X13130238Y-9492905D01*
X13144523Y-9507191D01*
X13158809Y-9535762D01*
X13173095Y-9592905D01*
X13173095Y-9664334D01*
X13158809Y-9721477D01*
X13144523Y-9750048D01*
X13130238Y-9764334D01*
X13101666Y-9778619D01*
X13073095Y-9778619D01*
X13044523Y-9764334D01*
X13030238Y-9750048D01*
X13015952Y-9721477D01*
X13001666Y-9664334D01*
X13001666Y-9592905D01*
X13015952Y-9535762D01*
X13030238Y-9507191D01*
X13044523Y-9492905D01*
X13073095Y-9478619D01*
X13301666Y-9750048D02*
X13315952Y-9764334D01*
X13301666Y-9778619D01*
X13287381Y-9764334D01*
X13301666Y-9750048D01*
X13301666Y-9778619D01*
X13501666Y-9478619D02*
X13530238Y-9478619D01*
X13558809Y-9492905D01*
X13573095Y-9507191D01*
X13587381Y-9535762D01*
X13601666Y-9592905D01*
X13601666Y-9664334D01*
X13587381Y-9721477D01*
X13573095Y-9750048D01*
X13558809Y-9764334D01*
X13530238Y-9778619D01*
X13501666Y-9778619D01*
X13473095Y-9764334D01*
X13458809Y-9750048D01*
X13444523Y-9721477D01*
X13430238Y-9664334D01*
X13430238Y-9592905D01*
X13444523Y-9535762D01*
X13458809Y-9507191D01*
X13473095Y-9492905D01*
X13501666Y-9478619D01*
X13858809Y-9578619D02*
X13858809Y-9778619D01*
X13787381Y-9464334D02*
X13715952Y-9678619D01*
X13901666Y-9678619D01*
X13987381Y-9478619D02*
X14173095Y-9478619D01*
X14073095Y-9592905D01*
X14115952Y-9592905D01*
X14144523Y-9607191D01*
X14158809Y-9621477D01*
X14173095Y-9650048D01*
X14173095Y-9721477D01*
X14158809Y-9750048D01*
X14144523Y-9764334D01*
X14115952Y-9778619D01*
X14030238Y-9778619D01*
X14001666Y-9764334D01*
X13987381Y-9750048D01*
X14287381Y-9478619D02*
X14287381Y-9535762D01*
X14401666Y-9478619D02*
X14401666Y-9535762D01*
X14844523Y-9892905D02*
X14830238Y-9878619D01*
X14801666Y-9835762D01*
X14787381Y-9807191D01*
X14773095Y-9764334D01*
X14758809Y-9692905D01*
X14758809Y-9635762D01*
X14773095Y-9564334D01*
X14787381Y-9521477D01*
X14801666Y-9492905D01*
X14830238Y-9450048D01*
X14844523Y-9435762D01*
X15101666Y-9478619D02*
X14958809Y-9478619D01*
X14944523Y-9621477D01*
X14958809Y-9607191D01*
X14987381Y-9592905D01*
X15058809Y-9592905D01*
X15087381Y-9607191D01*
X15101666Y-9621477D01*
X15115952Y-9650048D01*
X15115952Y-9721477D01*
X15101666Y-9750048D01*
X15087381Y-9764334D01*
X15058809Y-9778619D01*
X14987381Y-9778619D01*
X14958809Y-9764334D01*
X14944523Y-9750048D01*
X15473095Y-9778619D02*
X15473095Y-9478619D01*
X15601666Y-9778619D02*
X15601666Y-9621477D01*
X15587381Y-9592905D01*
X15558809Y-9578619D01*
X15515952Y-9578619D01*
X15487381Y-9592905D01*
X15473095Y-9607191D01*
X15787381Y-9778619D02*
X15758809Y-9764334D01*
X15744523Y-9750048D01*
X15730238Y-9721477D01*
X15730238Y-9635762D01*
X15744523Y-9607191D01*
X15758809Y-9592905D01*
X15787381Y-9578619D01*
X15830238Y-9578619D01*
X15858809Y-9592905D01*
X15873095Y-9607191D01*
X15887381Y-9635762D01*
X15887381Y-9721477D01*
X15873095Y-9750048D01*
X15858809Y-9764334D01*
X15830238Y-9778619D01*
X15787381Y-9778619D01*
X16058809Y-9778619D02*
X16030238Y-9764334D01*
X16015952Y-9735762D01*
X16015952Y-9478619D01*
X16287381Y-9764334D02*
X16258809Y-9778619D01*
X16201666Y-9778619D01*
X16173095Y-9764334D01*
X16158809Y-9735762D01*
X16158809Y-9621477D01*
X16173095Y-9592905D01*
X16201666Y-9578619D01*
X16258809Y-9578619D01*
X16287381Y-9592905D01*
X16301666Y-9621477D01*
X16301666Y-9650048D01*
X16158809Y-9678619D01*
X16415952Y-9764334D02*
X16444523Y-9778619D01*
X16501666Y-9778619D01*
X16530238Y-9764334D01*
X16544523Y-9735762D01*
X16544523Y-9721477D01*
X16530238Y-9692905D01*
X16501666Y-9678619D01*
X16458809Y-9678619D01*
X16430238Y-9664334D01*
X16415952Y-9635762D01*
X16415952Y-9621477D01*
X16430238Y-9592905D01*
X16458809Y-9578619D01*
X16501666Y-9578619D01*
X16530238Y-9592905D01*
X16644523Y-9892905D02*
X16658809Y-9878619D01*
X16687381Y-9835762D01*
X16701666Y-9807191D01*
X16715952Y-9764334D01*
X16730238Y-9692905D01*
X16730238Y-9635762D01*
X16715952Y-9564334D01*
X16701666Y-9521477D01*
X16687381Y-9492905D01*
X16658809Y-9450048D01*
X16644523Y-9435762D01*
X10088095Y-10108905D02*
X10158095Y-10038905D01*
X10088095Y-9968905D01*
X10018095Y-10038905D01*
X10088095Y-10108905D01*
X10601666Y-10174619D02*
X10430238Y-10174619D01*
X10515952Y-10174619D02*
X10515952Y-9874619D01*
X10487381Y-9917477D01*
X10458809Y-9946048D01*
X10430238Y-9960334D01*
X10730238Y-10146048D02*
X10744523Y-10160334D01*
X10730238Y-10174619D01*
X10715952Y-10160334D01*
X10730238Y-10146048D01*
X10730238Y-10174619D01*
X11001666Y-9974619D02*
X11001666Y-10174619D01*
X10930238Y-9860334D02*
X10858809Y-10074619D01*
X11044523Y-10074619D01*
X11215952Y-9874619D02*
X11244523Y-9874619D01*
X11273095Y-9888905D01*
X11287381Y-9903191D01*
X11301666Y-9931762D01*
X11315952Y-9988905D01*
X11315952Y-10060334D01*
X11301666Y-10117477D01*
X11287381Y-10146048D01*
X11273095Y-10160334D01*
X11244523Y-10174619D01*
X11215952Y-10174619D01*
X11187381Y-10160334D01*
X11173095Y-10146048D01*
X11158809Y-10117477D01*
X11144523Y-10060334D01*
X11144523Y-9988905D01*
X11158809Y-9931762D01*
X11173095Y-9903191D01*
X11187381Y-9888905D01*
X11215952Y-9874619D01*
X11444523Y-10174619D02*
X11444523Y-9974619D01*
X11444523Y-10003191D02*
X11458809Y-9988905D01*
X11487381Y-9974619D01*
X11530238Y-9974619D01*
X11558809Y-9988905D01*
X11573095Y-10017477D01*
X11573095Y-10174619D01*
X11573095Y-10017477D02*
X11587381Y-9988905D01*
X11615952Y-9974619D01*
X11658809Y-9974619D01*
X11687381Y-9988905D01*
X11701666Y-10017477D01*
X11701666Y-10174619D01*
X11844523Y-10174619D02*
X11844523Y-9974619D01*
X11844523Y-10003191D02*
X11858809Y-9988905D01*
X11887381Y-9974619D01*
X11930238Y-9974619D01*
X11958809Y-9988905D01*
X11973095Y-10017477D01*
X11973095Y-10174619D01*
X11973095Y-10017477D02*
X11987381Y-9988905D01*
X12015952Y-9974619D01*
X12058809Y-9974619D01*
X12087381Y-9988905D01*
X12101666Y-10017477D01*
X12101666Y-10174619D01*
X12687381Y-9860334D02*
X12430238Y-10246048D01*
X13073095Y-9874619D02*
X13101666Y-9874619D01*
X13130238Y-9888905D01*
X13144523Y-9903191D01*
X13158809Y-9931762D01*
X13173095Y-9988905D01*
X13173095Y-10060334D01*
X13158809Y-10117477D01*
X13144523Y-10146048D01*
X13130238Y-10160334D01*
X13101666Y-10174619D01*
X13073095Y-10174619D01*
X13044523Y-10160334D01*
X13030238Y-10146048D01*
X13015952Y-10117477D01*
X13001666Y-10060334D01*
X13001666Y-9988905D01*
X13015952Y-9931762D01*
X13030238Y-9903191D01*
X13044523Y-9888905D01*
X13073095Y-9874619D01*
X13301666Y-10146048D02*
X13315952Y-10160334D01*
X13301666Y-10174619D01*
X13287381Y-10160334D01*
X13301666Y-10146048D01*
X13301666Y-10174619D01*
X13501666Y-9874619D02*
X13530238Y-9874619D01*
X13558809Y-9888905D01*
X13573095Y-9903191D01*
X13587381Y-9931762D01*
X13601666Y-9988905D01*
X13601666Y-10060334D01*
X13587381Y-10117477D01*
X13573095Y-10146048D01*
X13558809Y-10160334D01*
X13530238Y-10174619D01*
X13501666Y-10174619D01*
X13473095Y-10160334D01*
X13458809Y-10146048D01*
X13444523Y-10117477D01*
X13430238Y-10060334D01*
X13430238Y-9988905D01*
X13444523Y-9931762D01*
X13458809Y-9903191D01*
X13473095Y-9888905D01*
X13501666Y-9874619D01*
X13873095Y-9874619D02*
X13730238Y-9874619D01*
X13715952Y-10017477D01*
X13730238Y-10003191D01*
X13758809Y-9988905D01*
X13830238Y-9988905D01*
X13858809Y-10003191D01*
X13873095Y-10017477D01*
X13887381Y-10046048D01*
X13887381Y-10117477D01*
X13873095Y-10146048D01*
X13858809Y-10160334D01*
X13830238Y-10174619D01*
X13758809Y-10174619D01*
X13730238Y-10160334D01*
X13715952Y-10146048D01*
X14158809Y-9874619D02*
X14015952Y-9874619D01*
X14001666Y-10017477D01*
X14015952Y-10003191D01*
X14044523Y-9988905D01*
X14115952Y-9988905D01*
X14144523Y-10003191D01*
X14158809Y-10017477D01*
X14173095Y-10046048D01*
X14173095Y-10117477D01*
X14158809Y-10146048D01*
X14144523Y-10160334D01*
X14115952Y-10174619D01*
X14044523Y-10174619D01*
X14015952Y-10160334D01*
X14001666Y-10146048D01*
X14287381Y-9874619D02*
X14287381Y-9931762D01*
X14401666Y-9874619D02*
X14401666Y-9931762D01*
X14844523Y-10288905D02*
X14830238Y-10274619D01*
X14801666Y-10231762D01*
X14787381Y-10203191D01*
X14773095Y-10160334D01*
X14758809Y-10088905D01*
X14758809Y-10031762D01*
X14773095Y-9960334D01*
X14787381Y-9917477D01*
X14801666Y-9888905D01*
X14830238Y-9846048D01*
X14844523Y-9831762D01*
X14930238Y-9874619D02*
X15130238Y-9874619D01*
X15001666Y-10174619D01*
X15473095Y-10174619D02*
X15473095Y-9874619D01*
X15601666Y-10174619D02*
X15601666Y-10017477D01*
X15587381Y-9988905D01*
X15558809Y-9974619D01*
X15515952Y-9974619D01*
X15487381Y-9988905D01*
X15473095Y-10003191D01*
X15787381Y-10174619D02*
X15758809Y-10160334D01*
X15744523Y-10146048D01*
X15730238Y-10117477D01*
X15730238Y-10031762D01*
X15744523Y-10003191D01*
X15758809Y-9988905D01*
X15787381Y-9974619D01*
X15830238Y-9974619D01*
X15858809Y-9988905D01*
X15873095Y-10003191D01*
X15887381Y-10031762D01*
X15887381Y-10117477D01*
X15873095Y-10146048D01*
X15858809Y-10160334D01*
X15830238Y-10174619D01*
X15787381Y-10174619D01*
X16058809Y-10174619D02*
X16030238Y-10160334D01*
X16015952Y-10131762D01*
X16015952Y-9874619D01*
X16287381Y-10160334D02*
X16258809Y-10174619D01*
X16201666Y-10174619D01*
X16173095Y-10160334D01*
X16158809Y-10131762D01*
X16158809Y-10017477D01*
X16173095Y-9988905D01*
X16201666Y-9974619D01*
X16258809Y-9974619D01*
X16287381Y-9988905D01*
X16301666Y-10017477D01*
X16301666Y-10046048D01*
X16158809Y-10074619D01*
X16415952Y-10160334D02*
X16444523Y-10174619D01*
X16501666Y-10174619D01*
X16530238Y-10160334D01*
X16544523Y-10131762D01*
X16544523Y-10117477D01*
X16530238Y-10088905D01*
X16501666Y-10074619D01*
X16458809Y-10074619D01*
X16430238Y-10060334D01*
X16415952Y-10031762D01*
X16415952Y-10017477D01*
X16430238Y-9988905D01*
X16458809Y-9974619D01*
X16501666Y-9974619D01*
X16530238Y-9988905D01*
X16644523Y-10288905D02*
X16658809Y-10274619D01*
X16687381Y-10231762D01*
X16701666Y-10203191D01*
X16715952Y-10160334D01*
X16730238Y-10088905D01*
X16730238Y-10031762D01*
X16715952Y-9960334D01*
X16701666Y-9917477D01*
X16687381Y-9888905D01*
X16658809Y-9846048D01*
X16644523Y-9831762D01*
M02*
